<?xml version="1.0" standalone="no"?><!DOCTYPE svg PUBLIC "-//W3C//DTD SVG 1.1//EN" "http://www.w3.org/Graphics/SVG/1.1/DTD/svg11.dtd" ><svg version="1.1" xmlns="http://www.w3.org/2000/svg"><defs><font horiz-adv-x="0" id="font"><font-face ascent="793" bbox="-120 -236 978 923" cap-height="614" descent="-207" font-family="Copyright Klim Type Foundry" font-stretch="normal" font-style="normal" font-weight="700" units-per-em="1000" x-height="444" /><missing-glyph horiz-adv-x="199" /><glyph d="M405 614 639 0H476L432 119H209L166 0H7L240 614ZM257 251H384L321 424Z" glyph-name="A" horiz-adv-x="646" unicode="A" /><glyph d="M242 119 176 0H7L351 614H864V476H603V380H839V245H603V139H864V0H444V119ZM444 484 315 251H444Z" glyph-name="AE" horiz-adv-x="898" unicode="&#198;" /><glyph d="M242 119 176 0H7L351 614H864V476H603V380H839V245H603V139H864V0H444V119ZM444 484 315 251H444ZM517 666 599 796H759L671 666Z" glyph-name="AEacute" horiz-adv-x="898" unicode="&#508;" /><glyph d="M405 614 639 0H476L432 119H209L166 0H7L240 614ZM257 251H384L321 424ZM242 666 324 796H484L396 666Z" glyph-name="Aacute" horiz-adv-x="646" unicode="&#193;" /><glyph d="M405 614 639 0H476L432 119H209L166 0H7L240 614ZM257 251H384L321 424ZM323 658Q292 658 265.5 667.5Q239 677 219.5 695.5Q200 714 189.5 741Q179 768 179 804H287Q287 783 297 772.5Q307 762 323 762Q341 762 350.5 772.5Q360 783 360 804H468Q468 768 457 741Q446 714 427 695.5Q408 677 381.5 667.5Q355 658 323 658Z" glyph-name="Abreve" horiz-adv-x="646" unicode="&#258;" /><glyph d="M405 614 639 0H476L432 119H209L166 0H7L240 614ZM257 251H384L321 424ZM492 666H365L324 711L282 666H155L264 798H383Z" glyph-name="Acircumflex" horiz-adv-x="646" unicode="&#194;" /><glyph d="M405 614 639 0H476L432 119H209L166 0H7L240 614ZM257 251H384L321 424ZM154 734Q154 767 176.5 790Q199 813 233 813Q266 813 289 790Q312 767 312 734Q312 701 289 678Q266 655 233 655Q199 655 176.5 678Q154 701 154 734ZM335 734Q335 767 358 790Q381 813 414 813Q446 813 469.5 790Q493 767 493 734Q493 701 469.5 678Q446 655 414 655Q381 655 358 678Q335 701 335 734Z" glyph-name="Adieresis" horiz-adv-x="646" unicode="&#196;" /><glyph d="M405 614 639 0H476L432 119H209L166 0H7L240 614ZM257 251H384L321 424ZM252 666 163 796H323L405 666Z" glyph-name="Agrave" horiz-adv-x="646" unicode="&#192;" /><glyph d="M405 614 639 0H476L432 119H209L166 0H7L240 614ZM257 251H384L321 424ZM191 774H457V666H191Z" glyph-name="Amacron" horiz-adv-x="646" unicode="&#256;" /><glyph d="M405 614 639 0Q623 -19 613 -30Q603 -41 597 -49Q591 -57 589 -62.5Q587 -68 587 -75Q587 -84 592 -88.5Q597 -93 607 -93Q615 -93 622.5 -90Q630 -87 642 -79V-166Q629 -174 613.5 -179.5Q598 -185 577 -185Q557 -185 540 -180Q523 -175 510.5 -165Q498 -155 491 -140Q484 -125 484 -106Q484 -91 488.5 -78Q493 -65 500.5 -52Q508 -39 518 -26Q528 -13 540 0H476L432 119H209L166 0H7L240 614ZM257 251H384L321 424Z" glyph-name="Aogonek" horiz-adv-x="646" unicode="&#260;" /><glyph d="M405 614 639 0H476L432 119H209L166 0H7L240 614ZM257 251H384L321 424ZM431 747Q431 724 423 705Q415 686 400 672.5Q385 659 365.5 650.5Q346 642 323 642Q300 642 280.5 650.5Q261 659 246.5 672.5Q232 686 223.5 705Q215 724 215 747Q215 769 223.5 788.5Q232 808 246.5 822Q261 836 280.5 844.5Q300 853 323 853Q346 853 365.5 844.5Q385 836 400 822Q415 808 423 788.5Q431 769 431 747ZM360 747Q360 762 349.5 772.5Q339 783 323 783Q308 783 298 772.5Q288 762 288 747Q288 732 298 721.5Q308 711 323 711Q339 711 349.5 721.5Q360 732 360 747Z" glyph-name="Aring" horiz-adv-x="646" unicode="&#197;" /><glyph d="M427 717Q427 681 396.5 656Q366 631 321 631Q275 631 244.5 656Q214 681 214 717Q214 735 222 751Q230 767 244.5 778.5Q259 790 278.5 796.5Q298 803 321 803Q343 803 362.5 796.5Q382 790 396.5 778.5Q411 767 419 751Q427 735 427 717ZM247 821 311 923H471L401 821ZM357 717Q357 729 346.5 737.5Q336 746 321 746Q305 746 294.5 737.5Q284 729 284 717Q284 705 294.5 696.5Q305 688 321 688Q336 688 346.5 696.5Q357 705 357 717ZM405 614 639 0H476L432 119H209L166 0H7L240 614ZM257 251H384L321 424Z" glyph-name="Aringacute" horiz-adv-x="646" unicode="&#506;" /><glyph d="M405 614 639 0H476L432 119H209L166 0H7L240 614ZM257 251H384L321 424ZM480 809Q480 779 475.5 751.5Q471 724 461 703.5Q451 683 434 671Q417 659 392 659Q374 659 359 664.5Q344 670 330 676.5Q316 683 302.5 688.5Q289 694 277 694Q265 694 258.5 685.5Q252 677 251 663H166Q166 693 170.5 720Q175 747 185 768Q195 789 212 801Q229 813 254 813Q272 813 287 807.5Q302 802 316 795.5Q330 789 343 783.5Q356 778 369 778Q381 778 387.5 786Q394 794 395 809Z" glyph-name="Atilde" horiz-adv-x="646" unicode="&#195;" /><glyph d="M432 317Q454 310 472 296Q490 282 503.5 263Q517 244 524.5 221Q532 198 532 172Q532 88 478.5 44Q425 0 328 0H46V614H310Q407 614 460.5 572Q514 530 514 447Q514 422 507.5 401Q501 380 490 363.5Q479 347 464 335Q449 323 432 317ZM292 371Q327 371 345 384.5Q363 398 363 427Q363 456 345 469Q327 482 292 482H199V371ZM199 132H307Q341 132 359.5 148.5Q378 165 378 191Q378 219 359.5 235Q341 251 307 251H199Z" glyph-name="B" horiz-adv-x="557" unicode="B" /><glyph d="M22 307Q22 377 44 435Q66 493 105 535Q144 577 198.5 600.5Q253 624 317 624Q375 624 420.5 607.5Q466 591 499 562.5Q532 534 553 494.5Q574 455 582 408H422Q410 442 384.5 462.5Q359 483 317 483Q285 483 260.5 469.5Q236 456 219 432.5Q202 409 193 377Q184 345 184 307Q184 269 193 237Q202 205 219 182Q236 159 260.5 145.5Q285 132 317 132Q359 132 384.5 152Q410 172 422 207H582Q574 160 553 120Q532 80 499 51.5Q466 23 420.5 6.5Q375 -10 317 -10Q253 -10 198.5 13.5Q144 37 105 79Q66 121 44 179Q22 237 22 307Z" glyph-name="C" horiz-adv-x="603" unicode="C" /><glyph d="M22 307Q22 377 44 435Q66 493 105 535Q144 577 198.5 600.5Q253 624 317 624Q375 624 420.5 607.5Q466 591 499 562.5Q532 534 553 494.5Q574 455 582 408H422Q410 442 384.5 462.5Q359 483 317 483Q285 483 260.5 469.5Q236 456 219 432.5Q202 409 193 377Q184 345 184 307Q184 269 193 237Q202 205 219 182Q236 159 260.5 145.5Q285 132 317 132Q359 132 384.5 152Q410 172 422 207H582Q574 160 553 120Q532 80 499 51.5Q466 23 420.5 6.5Q375 -10 317 -10Q253 -10 198.5 13.5Q144 37 105 79Q66 121 44 179Q22 237 22 307ZM244 666 326 796H486L398 666Z" glyph-name="Cacute" horiz-adv-x="603" unicode="&#262;" /><glyph d="M22 307Q22 377 44 435Q66 493 105 535Q144 577 198.5 600.5Q253 624 317 624Q375 624 420.5 607.5Q466 591 499 562.5Q532 534 553 494.5Q574 455 582 408H422Q410 442 384.5 462.5Q359 483 317 483Q285 483 260.5 469.5Q236 456 219 432.5Q202 409 193 377Q184 345 184 307Q184 269 193 237Q202 205 219 182Q236 159 260.5 145.5Q285 132 317 132Q359 132 384.5 152Q410 172 422 207H582Q574 160 553 120Q532 80 499 51.5Q466 23 420.5 6.5Q375 -10 317 -10Q253 -10 198.5 13.5Q144 37 105 79Q66 121 44 179Q22 237 22 307ZM154 796H281L323 750L364 796H491L382 663H263Z" glyph-name="Ccaron" horiz-adv-x="603" unicode="&#268;" /><glyph d="M22 307Q22 377 44 435Q66 493 105 535Q144 577 198.5 600.5Q253 624 317 624Q375 624 420.5 607.5Q466 591 499 562.5Q532 534 553 494.5Q574 455 582 408H422Q410 442 384.5 462.5Q359 483 317 483Q285 483 260.5 469.5Q236 456 219 432.5Q202 409 193 377Q184 345 184 307Q184 269 193 237Q202 205 219 182Q236 159 260.5 145.5Q285 132 317 132Q359 132 384.5 152Q410 172 422 207H582Q574 160 553 120Q532 80 499 51.5Q466 23 420.5 6.5Q375 -10 317 -10Q253 -10 198.5 13.5Q144 37 105 79Q66 121 44 179Q22 237 22 307ZM185 -181 253 -40H389L318 -181Z" glyph-name="Ccedilla" horiz-adv-x="603" unicode="&#199;" /><glyph d="M22 307Q22 377 44 435Q66 493 105 535Q144 577 198.5 600.5Q253 624 317 624Q375 624 420.5 607.5Q466 591 499 562.5Q532 534 553 494.5Q574 455 582 408H422Q410 442 384.5 462.5Q359 483 317 483Q285 483 260.5 469.5Q236 456 219 432.5Q202 409 193 377Q184 345 184 307Q184 269 193 237Q202 205 219 182Q236 159 260.5 145.5Q285 132 317 132Q359 132 384.5 152Q410 172 422 207H582Q574 160 553 120Q532 80 499 51.5Q466 23 420.5 6.5Q375 -10 317 -10Q253 -10 198.5 13.5Q144 37 105 79Q66 121 44 179Q22 237 22 307ZM492 666H365L324 711L282 666H155L264 798H383Z" glyph-name="Ccircumflex" horiz-adv-x="603" unicode="&#264;" /><glyph d="M22 307Q22 377 44 435Q66 493 105 535Q144 577 198.5 600.5Q253 624 317 624Q375 624 420.5 607.5Q466 591 499 562.5Q532 534 553 494.5Q574 455 582 408H422Q410 442 384.5 462.5Q359 483 317 483Q285 483 260.5 469.5Q236 456 219 432.5Q202 409 193 377Q184 345 184 307Q184 269 193 237Q202 205 219 182Q236 159 260.5 145.5Q285 132 317 132Q359 132 384.5 152Q410 172 422 207H582Q574 160 553 120Q532 80 499 51.5Q466 23 420.5 6.5Q375 -10 317 -10Q253 -10 198.5 13.5Q144 37 105 79Q66 121 44 179Q22 237 22 307ZM410 743Q410 703 384 680.5Q358 658 321 658Q285 658 258.5 680.5Q232 703 232 743Q232 782 258.5 804.5Q285 827 321 827Q358 827 384 804.5Q410 782 410 743Z" glyph-name="Cdotaccent" horiz-adv-x="603" unicode="&#266;" /><glyph d="M271 139Q308 139 337.5 151Q367 163 387.5 185Q408 207 418.5 238Q429 269 429 307Q429 346 418.5 377Q408 408 387.5 430Q367 452 337.5 464Q308 476 271 476H204V139ZM46 614H278Q351 614 408 592.5Q465 571 505 531Q545 491 566.5 434Q588 377 588 307Q588 237 566.5 180Q545 123 505 83Q465 43 408 21.5Q351 0 278 0H46Z" glyph-name="D" horiz-adv-x="610" unicode="D" /><glyph d="M271 139Q308 139 337.5 151Q367 163 387.5 185Q408 207 418.5 238Q429 269 429 307Q429 346 418.5 377Q408 408 387.5 430Q367 452 337.5 464Q308 476 271 476H204V139ZM46 614H278Q351 614 408 592.5Q465 571 505 531Q545 491 566.5 434Q588 377 588 307Q588 237 566.5 180Q545 123 505 83Q465 43 408 21.5Q351 0 278 0H46ZM103 796H230L272 750L313 796H440L331 663H212Z" glyph-name="Dcaron" horiz-adv-x="610" unicode="&#270;" /><glyph d="M17 375H63V614H295Q367 614 424.5 592.5Q482 571 522 531Q562 491 583 434Q604 377 604 307Q604 237 583 180Q562 123 522 83Q482 43 424.5 21.5Q367 0 295 0H63V251H17ZM287 139Q325 139 354.5 151Q384 163 404 185Q424 207 434.5 238Q445 269 445 307Q445 346 434.5 377Q424 408 404 430Q384 452 354.5 464Q325 476 287 476H221V375H308V251H221V139Z" glyph-name="Dcroat" horiz-adv-x="626" unicode="&#272;" /><glyph d="M486 614V476H204V380H461V245H204V139H486V0H46V614Z" glyph-name="E" horiz-adv-x="520" unicode="E" /><glyph d="M486 614V476H204V380H461V245H204V139H486V0H46V614ZM190 666 272 796H432L344 666Z" glyph-name="Eacute" horiz-adv-x="520" unicode="&#201;" /><glyph d="M486 614V476H204V380H461V245H204V139H486V0H46V614ZM271 658Q240 658 213.5 667.5Q187 677 167.5 695.5Q148 714 137.5 741Q127 768 127 804H235Q235 783 245 772.5Q255 762 271 762Q289 762 298.5 772.5Q308 783 308 804H416Q416 768 405 741Q394 714 375 695.5Q356 677 329.5 667.5Q303 658 271 658Z" glyph-name="Ebreve" horiz-adv-x="520" unicode="&#276;" /><glyph d="M486 614V476H204V380H461V245H204V139H486V0H46V614ZM104 796H231L273 750L314 796H441L332 663H213Z" glyph-name="Ecaron" horiz-adv-x="520" unicode="&#282;" /><glyph d="M486 614V476H204V380H461V245H204V139H486V0H46V614ZM439 666H312L271 711L229 666H102L211 798H330Z" glyph-name="Ecircumflex" horiz-adv-x="520" unicode="&#202;" /><glyph d="M486 614V476H204V380H461V245H204V139H486V0H46V614ZM102 734Q102 767 124.5 790Q147 813 181 813Q214 813 237 790Q260 767 260 734Q260 701 237 678Q214 655 181 655Q147 655 124.5 678Q102 701 102 734ZM283 734Q283 767 306 790Q329 813 362 813Q394 813 417.5 790Q441 767 441 734Q441 701 417.5 678Q394 655 362 655Q329 655 306 678Q283 701 283 734Z" glyph-name="Edieresis" horiz-adv-x="520" unicode="&#203;" /><glyph d="M486 614V476H204V380H461V245H204V139H486V0H46V614ZM360 743Q360 703 334 680.5Q308 658 271 658Q235 658 208.5 680.5Q182 703 182 743Q182 782 208.5 804.5Q235 827 271 827Q308 827 334 804.5Q360 782 360 743Z" glyph-name="Edotaccent" horiz-adv-x="520" unicode="&#278;" /><glyph d="M486 614V476H204V380H461V245H204V139H486V0H46V614ZM201 666 112 796H272L354 666Z" glyph-name="Egrave" horiz-adv-x="520" unicode="&#200;" /><glyph d="M486 614V476H204V380H461V245H204V139H486V0H46V614ZM138 774H404V666H138Z" glyph-name="Emacron" horiz-adv-x="520" unicode="&#274;" /><glyph d="M281 -18Q296 -26 312.5 -30Q329 -34 348 -34Q386 -34 404.5 -15.5Q423 3 426 44L201 358V0H46V614H197L433 277V614H588V53Q588 -6 573 -49Q558 -92 530 -119.5Q502 -147 462 -160Q422 -173 372 -173Q346 -173 323.5 -168.5Q301 -164 281 -158Z" glyph-name="Eng" horiz-adv-x="634" unicode="&#330;" /><glyph d="M486 614V476H204V380H461V245H204V139H486V0H46V614ZM457 8Q440 -12 429 -25Q418 -38 411.5 -47Q405 -56 402.5 -62Q400 -68 400 -75Q400 -84 405 -88.5Q410 -93 419 -93Q428 -93 435 -90Q442 -87 454 -79V-166Q441 -174 425.5 -179.5Q410 -185 389 -185Q369 -185 352 -180Q335 -175 323 -165Q311 -155 304 -140Q297 -125 297 -106Q297 -91 302 -76.5Q307 -62 315.5 -48Q324 -34 335.5 -20.5Q347 -7 360 8Z" glyph-name="Eogonek" horiz-adv-x="520" unicode="&#280;" /><glyph d="M17 375H63V614H295Q367 614 424.5 592.5Q482 571 522 531Q562 491 583 434Q604 377 604 307Q604 237 583 180Q562 123 522 83Q482 43 424.5 21.5Q367 0 295 0H63V251H17ZM287 139Q325 139 354.5 151Q384 163 404 185Q424 207 434.5 238Q445 269 445 307Q445 346 434.5 377Q424 408 404 430Q384 452 354.5 464Q325 476 287 476H221V375H308V251H221V139Z" glyph-name="Eth" horiz-adv-x="626" unicode="&#208;" /><glyph d="M23 286H67Q67 296 67 307Q67 318 67 330H23V407H78Q81 421 86 435Q105 494 139.5 535.5Q174 577 221 600.5Q268 624 325 624Q373 624 410.5 609Q448 594 476.5 567Q505 540 522.5 502.5Q540 465 548 420H407Q399 448 379.5 466.5Q360 485 325 485Q297 485 277 471.5Q257 458 244 434Q237 422 232 407H366L351 330H219Q219 318 219 307Q219 296 219 286H343L328 209H231Q237 193 244 180Q257 156 277 142.5Q297 129 325 129Q360 129 379.5 147.5Q399 166 407 194H548Q540 149 522.5 111.5Q505 74 476.5 47Q448 20 410.5 5Q373 -10 325 -10Q268 -10 221 13.5Q174 37 139.5 78.5Q105 120 86 178Q81 193 77 209H23Z" glyph-name="Euro" horiz-adv-x="569" unicode="&#8364;" /><glyph d="M24 286H59Q59 296 59 307Q59 318 59 330H24V407H69Q72 421 76 435Q94 494 126 535.5Q158 577 202 600.5Q246 624 298 624Q343 624 378.5 609Q414 594 440 567Q466 540 482.5 502.5Q499 465 506 420H370Q365 448 347.5 466.5Q330 485 300 485Q277 485 260 471.5Q243 458 232 434Q226 422 222 407H337L323 330H210Q210 318 210 306V286H316L302 209H221Q225 192 232 178Q243 155 260 141.5Q277 128 300 128Q330 128 347.5 146.5Q365 165 370 192L506 194Q499 149 482.5 111.5Q466 74 440 47Q414 20 378.5 5Q343 -10 298 -10Q246 -10 202 13.5Q158 37 126 78.5Q94 120 76 178Q72 193 68 209H24Z" glyph-name="Euro.lt" horiz-adv-x="520" /><glyph d="M46 0V614H478V475H205V353H456V217H205V0Z" glyph-name="F" horiz-adv-x="509" unicode="F" /><glyph d="M347 208V328H602V267Q602 203 582 152Q562 101 525.5 64.5Q489 28 438 9Q387 -10 326 -10Q259 -10 203 13.5Q147 37 107 78.5Q67 120 44.5 178.5Q22 237 22 307Q22 377 44.5 435.5Q67 494 107 535.5Q147 577 202.5 600.5Q258 624 325 624Q384 624 430.5 608Q477 592 511 563Q545 534 566.5 494.5Q588 455 596 408H432Q420 443 394 463Q368 483 325 483Q291 483 265 469.5Q239 456 221 433Q203 410 193.5 377.5Q184 345 184 307Q184 268 193.5 235.5Q203 203 222 180Q241 157 267 144Q293 131 326 131Q372 131 401.5 152Q431 173 442 208Z" glyph-name="G" horiz-adv-x="624" unicode="G" /><glyph d="M347 208V328H602V267Q602 203 582 152Q562 101 525.5 64.5Q489 28 438 9Q387 -10 326 -10Q259 -10 203 13.5Q147 37 107 78.5Q67 120 44.5 178.5Q22 237 22 307Q22 377 44.5 435.5Q67 494 107 535.5Q147 577 202.5 600.5Q258 624 325 624Q384 624 430.5 608Q477 592 511 563Q545 534 566.5 494.5Q588 455 596 408H432Q420 443 394 463Q368 483 325 483Q291 483 265 469.5Q239 456 221 433Q203 410 193.5 377.5Q184 345 184 307Q184 268 193.5 235.5Q203 203 222 180Q241 157 267 144Q293 131 326 131Q372 131 401.5 152Q431 173 442 208ZM327 658Q296 658 269.5 667.5Q243 677 223.5 695.5Q204 714 193.5 741Q183 768 183 804H291Q291 783 301 772.5Q311 762 327 762Q345 762 354.5 772.5Q364 783 364 804H472Q472 768 461 741Q450 714 431 695.5Q412 677 385.5 667.5Q359 658 327 658Z" glyph-name="Gbreve" horiz-adv-x="624" unicode="&#286;" /><glyph d="M347 208V328H602V267Q602 203 582 152Q562 101 525.5 64.5Q489 28 438 9Q387 -10 326 -10Q259 -10 203 13.5Q147 37 107 78.5Q67 120 44.5 178.5Q22 237 22 307Q22 377 44.5 435.5Q67 494 107 535.5Q147 577 202.5 600.5Q258 624 325 624Q384 624 430.5 608Q477 592 511 563Q545 534 566.5 494.5Q588 455 596 408H432Q420 443 394 463Q368 483 325 483Q291 483 265 469.5Q239 456 221 433Q203 410 193.5 377.5Q184 345 184 307Q184 268 193.5 235.5Q203 203 222 180Q241 157 267 144Q293 131 326 131Q372 131 401.5 152Q431 173 442 208ZM494 666H367L326 711L284 666H157L266 798H385Z" glyph-name="Gcircumflex" horiz-adv-x="624" unicode="&#284;" /><glyph d="M347 208V328H602V267Q602 203 582 152Q562 101 525.5 64.5Q489 28 438 9Q387 -10 326 -10Q259 -10 203 13.5Q147 37 107 78.5Q67 120 44.5 178.5Q22 237 22 307Q22 377 44.5 435.5Q67 494 107 535.5Q147 577 202.5 600.5Q258 624 325 624Q384 624 430.5 608Q477 592 511 563Q545 534 566.5 494.5Q588 455 596 408H432Q420 443 394 463Q368 483 325 483Q291 483 265 469.5Q239 456 221 433Q203 410 193.5 377.5Q184 345 184 307Q184 268 193.5 235.5Q203 203 222 180Q241 157 267 144Q293 131 326 131Q372 131 401.5 152Q431 173 442 208ZM292 -172Q272 -166 257.5 -149Q243 -132 243 -105Q243 -73 266.5 -53Q290 -33 325 -33Q357 -33 381 -53.5Q405 -74 405 -111Q405 -137 394 -157.5Q383 -178 366 -199L337 -236H242Z" glyph-name="Gcommaaccent" horiz-adv-x="624" unicode="&#290;" /><glyph d="M347 208V328H602V267Q602 203 582 152Q562 101 525.5 64.5Q489 28 438 9Q387 -10 326 -10Q259 -10 203 13.5Q147 37 107 78.5Q67 120 44.5 178.5Q22 237 22 307Q22 377 44.5 435.5Q67 494 107 535.5Q147 577 202.5 600.5Q258 624 325 624Q384 624 430.5 608Q477 592 511 563Q545 534 566.5 494.5Q588 455 596 408H432Q420 443 394 463Q368 483 325 483Q291 483 265 469.5Q239 456 221 433Q203 410 193.5 377.5Q184 345 184 307Q184 268 193.5 235.5Q203 203 222 180Q241 157 267 144Q293 131 326 131Q372 131 401.5 152Q431 173 442 208ZM416 743Q416 703 390 680.5Q364 658 327 658Q291 658 264.5 680.5Q238 703 238 743Q238 782 264.5 804.5Q291 827 327 827Q364 827 390 804.5Q416 782 416 743Z" glyph-name="Gdotaccent" horiz-adv-x="624" unicode="&#288;" /><glyph d="M605 614V0H444V243H207V0H46V614H207V381H444V614Z" glyph-name="H" horiz-adv-x="651" unicode="H" /><glyph d="M17 534H62V614H223V534H460V614H621V534H665V411H621V0H460V198H223V0H62V411H17ZM460 321V411H223V321Z" glyph-name="Hbar" horiz-adv-x="683" unicode="&#294;" /><glyph d="M605 614V0H444V243H207V0H46V614H207V381H444V614ZM493 666H366L325 711L283 666H156L265 798H384Z" glyph-name="Hcircumflex" horiz-adv-x="651" unicode="&#292;" /><glyph d="M207 0H46V614H207Z" glyph-name="I" horiz-adv-x="253" unicode="I" /><glyph d="M207 0H46V614H207ZM47 666 129 796H289L201 666Z" glyph-name="Iacute" horiz-adv-x="253" unicode="&#205;" /><glyph d="M207 0H46V614H207ZM127 658Q96 658 69.5 667.5Q43 677 23.5 695.5Q4 714 -6.5 741Q-17 768 -17 804H91Q91 783 101 772.5Q111 762 127 762Q145 762 154.5 772.5Q164 783 164 804H272Q272 768 261 741Q250 714 231 695.5Q212 677 185.5 667.5Q159 658 127 658Z" glyph-name="Ibreve" horiz-adv-x="253" unicode="&#300;" /><glyph d="M207 0H46V614H207ZM296 666H169L128 711L86 666H-41L68 798H187Z" glyph-name="Icircumflex" horiz-adv-x="253" unicode="&#206;" /><glyph d="M207 0H46V614H207ZM-42 734Q-42 767 -19.5 790Q3 813 37 813Q70 813 93 790Q116 767 116 734Q116 701 93 678Q70 655 37 655Q3 655 -19.5 678Q-42 701 -42 734ZM139 734Q139 767 162 790Q185 813 218 813Q250 813 273.5 790Q297 767 297 734Q297 701 273.5 678Q250 655 218 655Q185 655 162 678Q139 701 139 734Z" glyph-name="Idieresis" horiz-adv-x="253" unicode="&#207;" /><glyph d="M207 0H46V614H207ZM216 743Q216 703 190 680.5Q164 658 127 658Q91 658 64.5 680.5Q38 703 38 743Q38 782 64.5 804.5Q91 827 127 827Q164 827 190 804.5Q216 782 216 743Z" glyph-name="Idotaccent" horiz-adv-x="253" unicode="&#304;" /><glyph d="M207 0H46V614H207ZM57 666 -32 796H128L210 666Z" glyph-name="Igrave" horiz-adv-x="253" unicode="&#204;" /><glyph d="M207 0H46V614H207ZM-5 774H261V666H-5Z" glyph-name="Imacron" horiz-adv-x="253" unicode="&#298;" /><glyph d="M207 0Q192 -19 181.5 -30Q171 -41 165.5 -49Q160 -57 157.5 -62.5Q155 -68 155 -75Q155 -84 160.5 -88.5Q166 -93 175 -93Q184 -93 191 -90Q198 -87 210 -79V-166Q197 -174 181.5 -179.5Q166 -185 145 -185Q125 -185 108 -180Q91 -175 79 -165Q67 -155 60 -140Q53 -125 53 -106Q53 -91 57 -78Q61 -65 68.5 -52Q76 -39 86.5 -26Q97 -13 108 0H46V614H207Z" glyph-name="Iogonek" horiz-adv-x="253" unicode="&#302;" /><glyph d="M207 0H46V614H207ZM284 809Q284 779 279.5 751.5Q275 724 265 703.5Q255 683 238 671Q221 659 196 659Q178 659 163 664.5Q148 670 134 676.5Q120 683 106.5 688.5Q93 694 81 694Q69 694 62.5 685.5Q56 677 55 663H-30Q-30 693 -25.5 720Q-21 747 -11 768Q-1 789 16 801Q33 813 58 813Q76 813 91 807.5Q106 802 120 795.5Q134 789 147 783.5Q160 778 173 778Q185 778 191.5 786Q198 794 199 809Z" glyph-name="Itilde" horiz-adv-x="253" unicode="&#296;" /><glyph d="M178 218Q181 177 201.5 155.5Q222 134 258 134Q280 134 296 140.5Q312 147 322 160Q332 173 336.5 192Q341 211 341 237V614H502V236Q502 172 484 125.5Q466 79 433 49Q400 19 355.5 4.5Q311 -10 259 -10Q203 -10 158.5 6.5Q114 23 82.5 53.5Q51 84 34 125.5Q17 167 15 218Z" glyph-name="J" horiz-adv-x="540" unicode="J" /><glyph d="M178 218Q181 177 201.5 155.5Q222 134 258 134Q280 134 296 140.5Q312 147 322 160Q332 173 336.5 192Q341 211 341 237V614H502V236Q502 172 484 125.5Q466 79 433 49Q400 19 355.5 4.5Q311 -10 259 -10Q203 -10 158.5 6.5Q114 23 82.5 53.5Q51 84 34 125.5Q17 167 15 218ZM591 666H464L422 711L381 666H254L362 798H482Z" glyph-name="Jcircumflex" horiz-adv-x="541" unicode="&#308;" /><glyph d="M207 362 405 614H594L379 345L603 0H413L259 236L207 171V0H46V614H207Z" glyph-name="K" horiz-adv-x="609" unicode="K" /><glyph d="M207 362 405 614H594L379 345L603 0H413L259 236L207 171V0H46V614H207ZM263 -172Q243 -166 228.5 -149Q214 -132 214 -105Q214 -73 237.5 -53Q261 -33 296 -33Q328 -33 352 -53.5Q376 -74 376 -111Q376 -137 365 -157.5Q354 -178 337 -199L308 -236H213Z" glyph-name="Kcommaaccent" horiz-adv-x="609" unicode="&#310;" /><glyph d="M46 614H207V139H482V0H46Z" glyph-name="L" horiz-adv-x="510" unicode="L" /><glyph d="M46 614H207V139H482V0H46ZM57 666 139 796H299L211 666Z" glyph-name="Lacute" horiz-adv-x="510" unicode="&#313;" /><glyph d="M46 614H207V139H482V0H46ZM265 448 308 615H430L386 448Z" glyph-name="Lcaron" horiz-adv-x="510" unicode="&#317;" /><glyph d="M46 614H207V139H482V0H46ZM235 -172Q215 -166 200.5 -149Q186 -132 186 -105Q186 -73 209.5 -53Q233 -33 268 -33Q300 -33 324 -53.5Q348 -74 348 -111Q348 -137 337 -157.5Q326 -178 309 -199L280 -236H185Z" glyph-name="Lcommaaccent" horiz-adv-x="510" unicode="&#315;" /><glyph d="M46 614H207V139H482V0H46ZM463 347Q463 308 437 285.5Q411 263 374 263Q338 263 311.5 285.5Q285 308 285 347Q285 387 311.5 409.5Q338 432 374 432Q411 432 437 409.5Q463 387 463 347Z" glyph-name="Ldot" horiz-adv-x="510" unicode="&#319;" /><glyph d="M11 318 60 339V614H221V397L342 446V321L221 273V139H496V0H60V213L11 194Z" glyph-name="Lslash" horiz-adv-x="524" unicode="&#321;" /><glyph d="M324 0 196 365V0H46V614H242L377 233L511 614H706V0H556V365L429 0Z" glyph-name="M" horiz-adv-x="752" unicode="M" /><glyph d="M588 0H458L201 358V0H46V614H197L433 277V614H588Z" glyph-name="N" horiz-adv-x="634" unicode="N" /><glyph glyph-name="NULL" horiz-adv-x="0" /><glyph d="M588 0H458L201 358V0H46V614H197L433 277V614H588ZM236 666 318 796H478L390 666Z" glyph-name="Nacute" horiz-adv-x="634" unicode="&#323;" /><glyph d="M588 0H458L201 358V0H46V614H197L433 277V614H588ZM148 796H275L317 750L358 796H485L376 663H257Z" glyph-name="Ncaron" horiz-adv-x="634" unicode="&#327;" /><glyph d="M588 0H458L201 358V0H46V614H197L433 277V614H588ZM284 -172Q264 -166 249.5 -149Q235 -132 235 -105Q235 -73 258.5 -53Q282 -33 317 -33Q349 -33 373 -53.5Q397 -74 397 -111Q397 -137 386 -157.5Q375 -178 358 -199L329 -236H234Z" glyph-name="Ncommaaccent" horiz-adv-x="634" unicode="&#325;" /><glyph d="M588 0H458L201 358V0H46V614H197L433 277V614H588ZM474 809Q474 779 469.5 751.5Q465 724 455 703.5Q445 683 428 671Q411 659 386 659Q368 659 353 664.5Q338 670 324 676.5Q310 683 296.5 688.5Q283 694 271 694Q259 694 252.5 685.5Q246 677 245 663H160Q160 693 164.5 720Q169 747 179 768Q189 789 206 801Q223 813 248 813Q266 813 281 807.5Q296 802 310 795.5Q324 789 337 783.5Q350 778 363 778Q375 778 381.5 786Q388 794 389 809Z" glyph-name="Ntilde" horiz-adv-x="634" unicode="&#209;" /><glyph d="M622 307Q622 238 600 180Q578 122 538.5 80Q499 38 443.5 14Q388 -10 321 -10Q255 -10 200 14Q145 38 105.5 80Q66 122 44 180Q22 238 22 307Q22 376 44 434Q66 492 105.5 534.5Q145 577 200 600.5Q255 624 321 624Q388 624 443.5 600.5Q499 577 538.5 534.5Q578 492 600 434Q622 376 622 307ZM460 307Q460 347 450 379Q440 411 422 434.5Q404 458 378 470.5Q352 483 321 483Q290 483 265 470.5Q240 458 221.5 434.5Q203 411 193.5 379Q184 347 184 307Q184 267 193.5 235Q203 203 221.5 179.5Q240 156 265 143.5Q290 131 321 131Q352 131 378 143.5Q404 156 422 179.5Q440 203 450 235Q460 267 460 307Z" glyph-name="O" horiz-adv-x="644" unicode="O" /><glyph d="M813 476H552V380H788V245H552V139H813V0H331Q259 0 202 21.5Q145 43 105 83Q65 123 43.5 180Q22 237 22 307Q22 377 43.5 434Q65 491 105 531Q145 571 202 592.5Q259 614 331 614H813ZM393 139V476H339Q301 476 271.5 464Q242 452 222 430Q202 408 191.5 377Q181 346 181 307Q181 269 191.5 238Q202 207 222 185Q242 163 271.5 151Q301 139 339 139Z" glyph-name="OE" horiz-adv-x="847" unicode="&#338;" /><glyph d="M622 307Q622 238 600 180Q578 122 538.5 80Q499 38 443.5 14Q388 -10 321 -10Q255 -10 200 14Q145 38 105.5 80Q66 122 44 180Q22 238 22 307Q22 376 44 434Q66 492 105.5 534.5Q145 577 200 600.5Q255 624 321 624Q388 624 443.5 600.5Q499 577 538.5 534.5Q578 492 600 434Q622 376 622 307ZM460 307Q460 347 450 379Q440 411 422 434.5Q404 458 378 470.5Q352 483 321 483Q290 483 265 470.5Q240 458 221.5 434.5Q203 411 193.5 379Q184 347 184 307Q184 267 193.5 235Q203 203 221.5 179.5Q240 156 265 143.5Q290 131 321 131Q352 131 378 143.5Q404 156 422 179.5Q440 203 450 235Q460 267 460 307ZM240 666 322 796H482L394 666Z" glyph-name="Oacute" horiz-adv-x="644" unicode="&#211;" /><glyph d="M622 307Q622 238 600 180Q578 122 538.5 80Q499 38 443.5 14Q388 -10 321 -10Q255 -10 200 14Q145 38 105.5 80Q66 122 44 180Q22 238 22 307Q22 376 44 434Q66 492 105.5 534.5Q145 577 200 600.5Q255 624 321 624Q388 624 443.5 600.5Q499 577 538.5 534.5Q578 492 600 434Q622 376 622 307ZM460 307Q460 347 450 379Q440 411 422 434.5Q404 458 378 470.5Q352 483 321 483Q290 483 265 470.5Q240 458 221.5 434.5Q203 411 193.5 379Q184 347 184 307Q184 267 193.5 235Q203 203 221.5 179.5Q240 156 265 143.5Q290 131 321 131Q352 131 378 143.5Q404 156 422 179.5Q440 203 450 235Q460 267 460 307ZM321 658Q290 658 263.5 667.5Q237 677 217.5 695.5Q198 714 187.5 741Q177 768 177 804H285Q285 783 295 772.5Q305 762 321 762Q339 762 348.5 772.5Q358 783 358 804H466Q466 768 455 741Q444 714 425 695.5Q406 677 379.5 667.5Q353 658 321 658Z" glyph-name="Obreve" horiz-adv-x="644" unicode="&#334;" /><glyph d="M622 307Q622 238 600 180Q578 122 538.5 80Q499 38 443.5 14Q388 -10 321 -10Q255 -10 200 14Q145 38 105.5 80Q66 122 44 180Q22 238 22 307Q22 376 44 434Q66 492 105.5 534.5Q145 577 200 600.5Q255 624 321 624Q388 624 443.5 600.5Q499 577 538.5 534.5Q578 492 600 434Q622 376 622 307ZM460 307Q460 347 450 379Q440 411 422 434.5Q404 458 378 470.5Q352 483 321 483Q290 483 265 470.5Q240 458 221.5 434.5Q203 411 193.5 379Q184 347 184 307Q184 267 193.5 235Q203 203 221.5 179.5Q240 156 265 143.5Q290 131 321 131Q352 131 378 143.5Q404 156 422 179.5Q440 203 450 235Q460 267 460 307ZM490 666H363L322 711L280 666H153L262 798H381Z" glyph-name="Ocircumflex" horiz-adv-x="644" unicode="&#212;" /><glyph d="M622 307Q622 238 600 180Q578 122 538.5 80Q499 38 443.5 14Q388 -10 321 -10Q255 -10 200 14Q145 38 105.5 80Q66 122 44 180Q22 238 22 307Q22 376 44 434Q66 492 105.5 534.5Q145 577 200 600.5Q255 624 321 624Q388 624 443.5 600.5Q499 577 538.5 534.5Q578 492 600 434Q622 376 622 307ZM460 307Q460 347 450 379Q440 411 422 434.5Q404 458 378 470.5Q352 483 321 483Q290 483 265 470.5Q240 458 221.5 434.5Q203 411 193.5 379Q184 347 184 307Q184 267 193.5 235Q203 203 221.5 179.5Q240 156 265 143.5Q290 131 321 131Q352 131 378 143.5Q404 156 422 179.5Q440 203 450 235Q460 267 460 307ZM152 734Q152 767 174.5 790Q197 813 231 813Q264 813 287 790Q310 767 310 734Q310 701 287 678Q264 655 231 655Q197 655 174.5 678Q152 701 152 734ZM333 734Q333 767 356 790Q379 813 412 813Q444 813 467.5 790Q491 767 491 734Q491 701 467.5 678Q444 655 412 655Q379 655 356 678Q333 701 333 734Z" glyph-name="Odieresis" horiz-adv-x="644" unicode="&#214;" /><glyph d="M622 307Q622 238 600 180Q578 122 538.5 80Q499 38 443.5 14Q388 -10 321 -10Q255 -10 200 14Q145 38 105.5 80Q66 122 44 180Q22 238 22 307Q22 376 44 434Q66 492 105.5 534.5Q145 577 200 600.5Q255 624 321 624Q388 624 443.5 600.5Q499 577 538.5 534.5Q578 492 600 434Q622 376 622 307ZM460 307Q460 347 450 379Q440 411 422 434.5Q404 458 378 470.5Q352 483 321 483Q290 483 265 470.5Q240 458 221.5 434.5Q203 411 193.5 379Q184 347 184 307Q184 267 193.5 235Q203 203 221.5 179.5Q240 156 265 143.5Q290 131 321 131Q352 131 378 143.5Q404 156 422 179.5Q440 203 450 235Q460 267 460 307ZM251 666 162 796H322L404 666Z" glyph-name="Ograve" horiz-adv-x="644" unicode="&#210;" /><glyph d="M622 307Q622 238 600 180Q578 122 538.5 80Q499 38 443.5 14Q388 -10 321 -10Q255 -10 200 14Q145 38 105.5 80Q66 122 44 180Q22 238 22 307Q22 376 44 434Q66 492 105.5 534.5Q145 577 200 600.5Q255 624 321 624Q388 624 443.5 600.5Q499 577 538.5 534.5Q578 492 600 434Q622 376 622 307ZM460 307Q460 347 450 379Q440 411 422 434.5Q404 458 378 470.5Q352 483 321 483Q290 483 265 470.5Q240 458 221.5 434.5Q203 411 193.5 379Q184 347 184 307Q184 267 193.5 235Q203 203 221.5 179.5Q240 156 265 143.5Q290 131 321 131Q352 131 378 143.5Q404 156 422 179.5Q440 203 450 235Q460 267 460 307ZM175 666 251 796H381L304 666ZM342 666 417 796H547L471 666Z" glyph-name="Ohungarumlaut" horiz-adv-x="644" unicode="&#336;" /><glyph d="M622 307Q622 238 600 180Q578 122 538.5 80Q499 38 443.5 14Q388 -10 321 -10Q255 -10 200 14Q145 38 105.5 80Q66 122 44 180Q22 238 22 307Q22 376 44 434Q66 492 105.5 534.5Q145 577 200 600.5Q255 624 321 624Q388 624 443.5 600.5Q499 577 538.5 534.5Q578 492 600 434Q622 376 622 307ZM460 307Q460 347 450 379Q440 411 422 434.5Q404 458 378 470.5Q352 483 321 483Q290 483 265 470.5Q240 458 221.5 434.5Q203 411 193.5 379Q184 347 184 307Q184 267 193.5 235Q203 203 221.5 179.5Q240 156 265 143.5Q290 131 321 131Q352 131 378 143.5Q404 156 422 179.5Q440 203 450 235Q460 267 460 307ZM189 774H455V666H189Z" glyph-name="Omacron" horiz-adv-x="644" unicode="&#332;" /><glyph d="M563 625 619 578 560 513Q587 478 604 434Q626 376 626 307Q626 238 604 180Q582 122 542.5 80Q503 38 447.5 14Q392 -10 325 -10Q259 -10 204 14Q171 28 144 49L90 -11L34 36L92 100Q65 135 48 180Q26 238 26 307Q26 376 48 434Q70 492 109.5 534.5Q149 577 204 600.5Q259 624 325 624Q392 624 447 600Q481 586 509 564ZM383 470Q357 483 325 483Q294 483 269 470.5Q244 458 225.5 434.5Q207 411 197.5 379Q188 347 188 307Q188 267 197 235L201 222L409 453Q397 463 383 470ZM464 307Q464 347 454 379Q453 385 451 390L243 159Q254 150 267 143Q293 131 325 131Q356 131 382 143.5Q408 156 426 179.5Q444 203 454 235Q464 267 464 307Z" glyph-name="Oslash" horiz-adv-x="652" unicode="&#216;" /><glyph d="M563 625 619 578 560 513Q587 478 604 434Q626 376 626 307Q626 238 604 180Q582 122 542.5 80Q503 38 447.5 14Q392 -10 325 -10Q259 -10 204 14Q171 28 144 49L90 -11L34 36L92 100Q65 135 48 180Q26 238 26 307Q26 376 48 434Q70 492 109.5 534.5Q149 577 204 600.5Q259 624 325 624Q392 624 447 600Q481 586 509 564ZM383 470Q357 483 325 483Q294 483 269 470.5Q244 458 225.5 434.5Q207 411 197.5 379Q188 347 188 307Q188 267 197 235L201 222L409 453Q397 463 383 470ZM464 307Q464 347 454 379Q453 385 451 390L243 159Q254 150 267 143Q293 131 325 131Q356 131 382 143.5Q408 156 426 179.5Q444 203 454 235Q464 267 464 307ZM245 666 327 796H487L399 666Z" glyph-name="Oslashacute" horiz-adv-x="652" unicode="&#510;" /><glyph d="M622 307Q622 238 600 180Q578 122 538.5 80Q499 38 443.5 14Q388 -10 321 -10Q255 -10 200 14Q145 38 105.5 80Q66 122 44 180Q22 238 22 307Q22 376 44 434Q66 492 105.5 534.5Q145 577 200 600.5Q255 624 321 624Q388 624 443.5 600.5Q499 577 538.5 534.5Q578 492 600 434Q622 376 622 307ZM460 307Q460 347 450 379Q440 411 422 434.5Q404 458 378 470.5Q352 483 321 483Q290 483 265 470.5Q240 458 221.5 434.5Q203 411 193.5 379Q184 347 184 307Q184 267 193.5 235Q203 203 221.5 179.5Q240 156 265 143.5Q290 131 321 131Q352 131 378 143.5Q404 156 422 179.5Q440 203 450 235Q460 267 460 307ZM478 809Q478 779 473.5 751.5Q469 724 459 703.5Q449 683 432 671Q415 659 390 659Q372 659 357 664.5Q342 670 328 676.5Q314 683 300.5 688.5Q287 694 275 694Q263 694 256.5 685.5Q250 677 249 663H164Q164 693 168.5 720Q173 747 183 768Q193 789 210 801Q227 813 252 813Q270 813 285 807.5Q300 802 314 795.5Q328 789 341 783.5Q354 778 367 778Q379 778 385.5 786Q392 794 393 809Z" glyph-name="Otilde" horiz-adv-x="644" unicode="&#213;" /><glyph d="M205 190V0H46V614H315Q365 614 406 600Q447 586 476.5 559.5Q506 533 522.5 493.5Q539 454 539 402Q539 351 522.5 311.5Q506 272 476.5 245Q447 218 406 204Q365 190 315 190ZM382 402Q382 437 362 458Q342 479 298 479H205V325H298Q342 325 362 346Q382 367 382 402Z" glyph-name="P" horiz-adv-x="562" unicode="P" /><glyph d="M622 307Q622 239 598 181Q577 128 541 88L586 33L490 -45L441 15L438 14Q384 -10 321 -10Q255 -10 200 14Q145 38 105.5 80Q66 122 44 180Q22 238 22 307Q22 376 44 434Q66 492 105.5 534.5Q145 577 200 600.5Q255 624 321 624Q388 624 443.5 600.5Q499 577 538.5 534.5Q578 492 600 434Q622 376 622 307ZM301 188 399 264 444 207Q448 216 451 226Q461 261 461 307Q461 347 450.5 379Q440 411 422 434.5Q404 458 378 470.5Q352 483 321 483Q290 483 265 470.5Q240 458 221.5 434.5Q203 411 193.5 379Q184 347 184 307Q184 267 193.5 233.5Q203 200 221.5 175.5Q240 151 265 137.5Q290 124 321 124Q336 124 351 126Z" glyph-name="Q" horiz-adv-x="643" unicode="Q" /><glyph d="M205 203V0H46V614H322Q372 614 413 600Q454 586 483.5 559.5Q513 533 529 494Q545 455 545 405Q545 356 529 318.5Q513 281 483 255Q457 233 423 220L567 0H389L261 203ZM205 331H305Q348 331 368 351Q388 371 388 405Q388 439 368 459Q348 479 305 479H205Z" glyph-name="R" horiz-adv-x="574" unicode="R" /><glyph d="M205 203V0H46V614H322Q372 614 413 600Q454 586 483.5 559.5Q513 533 529 494Q545 455 545 405Q545 356 529 318.5Q513 281 483 255Q457 233 423 220L567 0H389L261 203ZM205 331H305Q348 331 368 351Q388 371 388 405Q388 439 368 459Q348 479 305 479H205ZM203 666 285 796H445L357 666Z" glyph-name="Racute" horiz-adv-x="574" unicode="&#340;" /><glyph d="M205 203V0H46V614H322Q372 614 413 600Q454 586 483.5 559.5Q513 533 529 494Q545 455 545 405Q545 356 529 318.5Q513 281 483 255Q457 233 423 220L567 0H389L261 203ZM205 331H305Q348 331 368 351Q388 371 388 405Q388 439 368 459Q348 479 305 479H205ZM115 796H242L284 750L325 796H452L343 663H224Z" glyph-name="Rcaron" horiz-adv-x="574" unicode="&#344;" /><glyph d="M205 203V0H46V614H322Q372 614 413 600Q454 586 483.5 559.5Q513 533 529 494Q545 455 545 405Q545 356 529 318.5Q513 281 483 255Q457 233 423 220L567 0H389L261 203ZM205 331H305Q348 331 368 351Q388 371 388 405Q388 439 368 459Q348 479 305 479H205ZM250 -172Q230 -166 215.5 -149Q201 -132 201 -105Q201 -73 224.5 -53Q248 -33 283 -33Q315 -33 339 -53.5Q363 -74 363 -111Q363 -137 352 -157.5Q341 -178 324 -199L295 -236H200Z" glyph-name="Rcommaaccent" horiz-adv-x="574" unicode="&#342;" /><glyph d="M179 182Q189 150 214.5 134.5Q240 119 278 119Q296 119 311.5 123Q327 127 337.5 134.5Q348 142 354.5 153Q361 164 361 178Q361 200 346.5 211Q332 222 303 229L185 254Q151 261 121.5 274Q92 287 71 307.5Q50 328 38 357Q26 386 26 425Q26 470 44 507Q62 544 94 569.5Q126 595 169 609.5Q212 624 262 624Q319 624 363 609.5Q407 595 438.5 569.5Q470 544 489 510Q508 476 515 436H357Q348 462 325.5 478.5Q303 495 263 495Q246 495 232 492Q218 489 208 481.5Q198 474 192.5 464.5Q187 455 187 442Q187 432 190 424Q193 416 200 410Q207 404 216.5 400Q226 396 238 393L358 365Q437 346 479 302.5Q521 259 521 188Q521 141 502.5 104Q484 67 451.5 42Q419 17 375.5 3.5Q332 -10 281 -10Q170 -10 99 40.5Q28 91 12 182Z" glyph-name="S" horiz-adv-x="543" unicode="S" /><glyph d="M179 182Q189 150 214.5 134.5Q240 119 278 119Q296 119 311.5 123Q327 127 337.5 134.5Q348 142 354.5 153Q361 164 361 178Q361 200 346.5 211Q332 222 303 229L185 254Q151 261 121.5 274Q92 287 71 307.5Q50 328 38 357Q26 386 26 425Q26 470 44 507Q62 544 94 569.5Q126 595 169 609.5Q212 624 262 624Q319 624 363 609.5Q407 595 438.5 569.5Q470 544 489 510Q508 476 515 436H357Q348 462 325.5 478.5Q303 495 263 495Q246 495 232 492Q218 489 208 481.5Q198 474 192.5 464.5Q187 455 187 442Q187 432 190 424Q193 416 200 410Q207 404 216.5 400Q226 396 238 393L358 365Q437 346 479 302.5Q521 259 521 188Q521 141 502.5 104Q484 67 451.5 42Q419 17 375.5 3.5Q332 -10 281 -10Q170 -10 99 40.5Q28 91 12 182ZM189 666 271 796H431L343 666Z" glyph-name="Sacute" horiz-adv-x="543" unicode="&#346;" /><glyph d="M179 182Q189 150 214.5 134.5Q240 119 278 119Q296 119 311.5 123Q327 127 337.5 134.5Q348 142 354.5 153Q361 164 361 178Q361 200 346.5 211Q332 222 303 229L185 254Q151 261 121.5 274Q92 287 71 307.5Q50 328 38 357Q26 386 26 425Q26 470 44 507Q62 544 94 569.5Q126 595 169 609.5Q212 624 262 624Q319 624 363 609.5Q407 595 438.5 569.5Q470 544 489 510Q508 476 515 436H357Q348 462 325.5 478.5Q303 495 263 495Q246 495 232 492Q218 489 208 481.5Q198 474 192.5 464.5Q187 455 187 442Q187 432 190 424Q193 416 200 410Q207 404 216.5 400Q226 396 238 393L358 365Q437 346 479 302.5Q521 259 521 188Q521 141 502.5 104Q484 67 451.5 42Q419 17 375.5 3.5Q332 -10 281 -10Q170 -10 99 40.5Q28 91 12 182ZM104 796H231L273 750L314 796H441L332 663H213Z" glyph-name="Scaron" horiz-adv-x="543" unicode="&#352;" /><glyph d="M179 182Q189 150 214.5 134.5Q240 119 278 119Q296 119 311.5 123Q327 127 337.5 134.5Q348 142 354.5 153Q361 164 361 178Q361 200 346.5 211Q332 222 303 229L185 254Q151 261 121.5 274Q92 287 71 307.5Q50 328 38 357Q26 386 26 425Q26 470 44 507Q62 544 94 569.5Q126 595 169 609.5Q212 624 262 624Q319 624 363 609.5Q407 595 438.5 569.5Q470 544 489 510Q508 476 515 436H357Q348 462 325.5 478.5Q303 495 263 495Q246 495 232 492Q218 489 208 481.5Q198 474 192.5 464.5Q187 455 187 442Q187 432 190 424Q193 416 200 410Q207 404 216.5 400Q226 396 238 393L358 365Q437 346 479 302.5Q521 259 521 188Q521 141 502.5 104Q484 67 451.5 42Q419 17 375.5 3.5Q332 -10 281 -10Q170 -10 99 40.5Q28 91 12 182ZM138 -181 206 -40H342L271 -181Z" glyph-name="Scedilla" horiz-adv-x="543" unicode="&#350;" /><glyph d="M179 182Q189 150 214.5 134.5Q240 119 278 119Q296 119 311.5 123Q327 127 337.5 134.5Q348 142 354.5 153Q361 164 361 178Q361 200 346.5 211Q332 222 303 229L185 254Q151 261 121.5 274Q92 287 71 307.5Q50 328 38 357Q26 386 26 425Q26 470 44 507Q62 544 94 569.5Q126 595 169 609.5Q212 624 262 624Q319 624 363 609.5Q407 595 438.5 569.5Q470 544 489 510Q508 476 515 436H357Q348 462 325.5 478.5Q303 495 263 495Q246 495 232 492Q218 489 208 481.5Q198 474 192.5 464.5Q187 455 187 442Q187 432 190 424Q193 416 200 410Q207 404 216.5 400Q226 396 238 393L358 365Q437 346 479 302.5Q521 259 521 188Q521 141 502.5 104Q484 67 451.5 42Q419 17 375.5 3.5Q332 -10 281 -10Q170 -10 99 40.5Q28 91 12 182ZM443 666H316L275 711L233 666H106L215 798H334Z" glyph-name="Scircumflex" horiz-adv-x="543" unicode="&#348;" /><glyph d="M179 182Q189 150 214.5 134.5Q240 119 278 119Q296 119 311.5 123Q327 127 337.5 134.5Q348 142 354.5 153Q361 164 361 178Q361 200 346.5 211Q332 222 303 229L185 254Q151 261 121.5 274Q92 287 71 307.5Q50 328 38 357Q26 386 26 425Q26 470 44 507Q62 544 94 569.5Q126 595 169 609.5Q212 624 262 624Q319 624 363 609.5Q407 595 438.5 569.5Q470 544 489 510Q508 476 515 436H357Q348 462 325.5 478.5Q303 495 263 495Q246 495 232 492Q218 489 208 481.5Q198 474 192.5 464.5Q187 455 187 442Q187 432 190 424Q193 416 200 410Q207 404 216.5 400Q226 396 238 393L358 365Q437 346 479 302.5Q521 259 521 188Q521 141 502.5 104Q484 67 451.5 42Q419 17 375.5 3.5Q332 -10 281 -10Q170 -10 99 40.5Q28 91 12 182ZM237 -172Q217 -166 202.5 -149Q188 -132 188 -105Q188 -73 211.5 -53Q235 -33 270 -33Q302 -33 326 -53.5Q350 -74 350 -111Q350 -137 339 -157.5Q328 -178 311 -199L282 -236H187Z" glyph-name="Scommaaccent" horiz-adv-x="543" unicode="&#536;" /><glyph d="M20 614H560V476H370V0H209V476H20Z" glyph-name="T" horiz-adv-x="580" unicode="T" /><glyph d="M118 363H209V476H20V614H560V476H370V363H461V232H370V0H209V232H118Z" glyph-name="Tbar" horiz-adv-x="580" unicode="&#358;" /><glyph d="M20 614H560V476H370V0H209V476H20ZM121 796H248L290 750L331 796H458L349 663H230Z" glyph-name="Tcaron" horiz-adv-x="580" unicode="&#356;" /><glyph d="M20 614H560V476H370V0H209V476H20ZM256 -172Q236 -166 221.5 -149Q207 -132 207 -105Q207 -73 230.5 -53Q254 -33 289 -33Q321 -33 345 -53.5Q369 -74 369 -111Q369 -137 358 -157.5Q347 -178 330 -199L301 -236H206Z" glyph-name="Tcommaaccent" horiz-adv-x="580" unicode="&#354;" /><glyph d="M205 101V0H46V614H205V525H315Q365 525 406 511.5Q447 498 476.5 471Q506 444 522.5 404.5Q539 365 539 313Q539 262 522.5 222.5Q506 183 476.5 156Q447 129 406 115Q365 101 315 101ZM382 313Q382 348 362 369Q342 390 298 390H205V236H298Q342 236 362 257Q382 278 382 313Z" glyph-name="Thorn" horiz-adv-x="562" unicode="&#222;" /><glyph d="M307 -10Q246 -10 196.5 7Q147 24 112 57Q77 90 58 139Q39 188 39 251V614H199V266Q199 233 206.5 208.5Q214 184 227.5 167Q241 150 261 142Q281 134 307 134Q331 134 351 142Q371 150 385 167Q399 184 406.5 208.5Q414 233 414 266V614H574V250Q574 187 555 138.5Q536 90 501 57Q466 24 416.5 7Q367 -10 307 -10Z" glyph-name="U" horiz-adv-x="613" unicode="U" /><glyph d="M307 -10Q246 -10 196.5 7Q147 24 112 57Q77 90 58 139Q39 188 39 251V614H199V266Q199 233 206.5 208.5Q214 184 227.5 167Q241 150 261 142Q281 134 307 134Q331 134 351 142Q371 150 385 167Q399 184 406.5 208.5Q414 233 414 266V614H574V250Q574 187 555 138.5Q536 90 501 57Q466 24 416.5 7Q367 -10 307 -10ZM226 666 308 796H468L380 666Z" glyph-name="Uacute" horiz-adv-x="613" unicode="&#218;" /><glyph d="M307 -10Q246 -10 196.5 7Q147 24 112 57Q77 90 58 139Q39 188 39 251V614H199V266Q199 233 206.5 208.5Q214 184 227.5 167Q241 150 261 142Q281 134 307 134Q331 134 351 142Q371 150 385 167Q399 184 406.5 208.5Q414 233 414 266V614H574V250Q574 187 555 138.5Q536 90 501 57Q466 24 416.5 7Q367 -10 307 -10ZM306 658Q275 658 248.5 667.5Q222 677 202.5 695.5Q183 714 172.5 741Q162 768 162 804H270Q270 783 280 772.5Q290 762 306 762Q324 762 333.5 772.5Q343 783 343 804H451Q451 768 440 741Q429 714 410 695.5Q391 677 364.5 667.5Q338 658 306 658Z" glyph-name="Ubreve" horiz-adv-x="613" unicode="&#364;" /><glyph d="M307 -10Q246 -10 196.5 7Q147 24 112 57Q77 90 58 139Q39 188 39 251V614H199V266Q199 233 206.5 208.5Q214 184 227.5 167Q241 150 261 142Q281 134 307 134Q331 134 351 142Q371 150 385 167Q399 184 406.5 208.5Q414 233 414 266V614H574V250Q574 187 555 138.5Q536 90 501 57Q466 24 416.5 7Q367 -10 307 -10ZM475 666H348L307 711L265 666H138L247 798H366Z" glyph-name="Ucircumflex" horiz-adv-x="613" unicode="&#219;" /><glyph d="M307 -10Q246 -10 196.5 7Q147 24 112 57Q77 90 58 139Q39 188 39 251V614H199V266Q199 233 206.5 208.5Q214 184 227.5 167Q241 150 261 142Q281 134 307 134Q331 134 351 142Q371 150 385 167Q399 184 406.5 208.5Q414 233 414 266V614H574V250Q574 187 555 138.5Q536 90 501 57Q466 24 416.5 7Q367 -10 307 -10ZM137 734Q137 767 159.5 790Q182 813 216 813Q249 813 272 790Q295 767 295 734Q295 701 272 678Q249 655 216 655Q182 655 159.5 678Q137 701 137 734ZM318 734Q318 767 341 790Q364 813 397 813Q429 813 452.5 790Q476 767 476 734Q476 701 452.5 678Q429 655 397 655Q364 655 341 678Q318 701 318 734Z" glyph-name="Udieresis" horiz-adv-x="613" unicode="&#220;" /><glyph d="M307 -10Q246 -10 196.5 7Q147 24 112 57Q77 90 58 139Q39 188 39 251V614H199V266Q199 233 206.5 208.5Q214 184 227.5 167Q241 150 261 142Q281 134 307 134Q331 134 351 142Q371 150 385 167Q399 184 406.5 208.5Q414 233 414 266V614H574V250Q574 187 555 138.5Q536 90 501 57Q466 24 416.5 7Q367 -10 307 -10ZM236 666 147 796H307L389 666Z" glyph-name="Ugrave" horiz-adv-x="613" unicode="&#217;" /><glyph d="M307 -10Q246 -10 196.5 7Q147 24 112 57Q77 90 58 139Q39 188 39 251V614H199V266Q199 233 206.5 208.5Q214 184 227.5 167Q241 150 261 142Q281 134 307 134Q331 134 351 142Q371 150 385 167Q399 184 406.5 208.5Q414 233 414 266V614H574V250Q574 187 555 138.5Q536 90 501 57Q466 24 416.5 7Q367 -10 307 -10ZM160 666 236 796H366L289 666ZM327 666 402 796H532L456 666Z" glyph-name="Uhungarumlaut" horiz-adv-x="613" unicode="&#368;" /><glyph d="M307 -10Q246 -10 196.5 7Q147 24 112 57Q77 90 58 139Q39 188 39 251V614H199V266Q199 233 206.5 208.5Q214 184 227.5 167Q241 150 261 142Q281 134 307 134Q331 134 351 142Q371 150 385 167Q399 184 406.5 208.5Q414 233 414 266V614H574V250Q574 187 555 138.5Q536 90 501 57Q466 24 416.5 7Q367 -10 307 -10ZM174 774H440V666H174Z" glyph-name="Umacron" horiz-adv-x="613" unicode="&#362;" /><glyph d="M196 7Q147 24 112 57Q77 90 58 139Q39 188 39 251V614H199V266Q199 233 206.5 208.5Q214 184 227.5 167Q241 150 261 142Q281 134 307 134Q331 134 351 142Q371 150 385 167Q399 184 406.5 208.5Q414 233 414 266V614H574V250Q574 210 566.5 176.5Q559 143 544.5 115.5Q530 88 508.5 66Q487 44 459 25Q409 -8 389.5 -34Q370 -60 370 -75Q370 -84 375.5 -88.5Q381 -93 390 -93Q398 -93 405.5 -90Q413 -87 425 -79V-166Q412 -174 396.5 -179.5Q381 -185 360 -185Q340 -185 323 -180Q306 -175 294 -165Q282 -155 275 -140Q268 -125 268 -106Q268 -88 278 -64Q288 -40 318 -8Q256 -13 196 7Z" glyph-name="Uogonek" horiz-adv-x="613" unicode="&#370;" /><glyph d="M307 -10Q246 -10 196.5 7Q147 24 112 57Q77 90 58 139Q39 188 39 251V614H199V266Q199 233 206.5 208.5Q214 184 227.5 167Q241 150 261 142Q281 134 307 134Q331 134 351 142Q371 150 385 167Q399 184 406.5 208.5Q414 233 414 266V614H574V250Q574 187 555 138.5Q536 90 501 57Q466 24 416.5 7Q367 -10 307 -10ZM414 747Q414 724 406 705Q398 686 383 672.5Q368 659 348.5 650.5Q329 642 306 642Q283 642 263.5 650.5Q244 659 229.5 672.5Q215 686 206.5 705Q198 724 198 747Q198 769 206.5 788.5Q215 808 229.5 822Q244 836 263.5 844.5Q283 853 306 853Q329 853 348.5 844.5Q368 836 383 822Q398 808 406 788.5Q414 769 414 747ZM343 747Q343 762 332.5 772.5Q322 783 306 783Q291 783 281 772.5Q271 762 271 747Q271 732 281 721.5Q291 711 306 711Q322 711 332.5 721.5Q343 732 343 747Z" glyph-name="Uring" horiz-adv-x="613" unicode="&#366;" /><glyph d="M307 -10Q246 -10 196.5 7Q147 24 112 57Q77 90 58 139Q39 188 39 251V614H199V266Q199 233 206.5 208.5Q214 184 227.5 167Q241 150 261 142Q281 134 307 134Q331 134 351 142Q371 150 385 167Q399 184 406.5 208.5Q414 233 414 266V614H574V250Q574 187 555 138.5Q536 90 501 57Q466 24 416.5 7Q367 -10 307 -10ZM464 809Q464 779 459.5 751.5Q455 724 445 703.5Q435 683 418 671Q401 659 376 659Q358 659 343 664.5Q328 670 314 676.5Q300 683 286.5 688.5Q273 694 261 694Q249 694 242.5 685.5Q236 677 235 663H150Q150 693 154.5 720Q159 747 169 768Q179 789 196 801Q213 813 238 813Q256 813 271 807.5Q286 802 300 795.5Q314 789 327 783.5Q340 778 353 778Q365 778 371.5 786Q378 794 379 809Z" glyph-name="Utilde" horiz-adv-x="613" unicode="&#360;" /><glyph d="M236 0 7 614H179L317 217L456 614H622L393 0Z" glyph-name="V" horiz-adv-x="629" unicode="V" /><glyph d="M473 614 566 253 652 614H814L652 0H505L410 360L313 0H167L6 614H170L256 253L351 614Z" glyph-name="W" horiz-adv-x="820" unicode="W" /><glyph d="M473 614 566 253 652 614H814L652 0H505L410 360L313 0H167L6 614H170L256 253L351 614ZM332 666 414 796H574L486 666Z" glyph-name="Wacute" horiz-adv-x="820" unicode="&#7810;" /><glyph d="M473 614 566 253 652 614H814L652 0H505L410 360L313 0H167L6 614H170L256 253L351 614ZM578 666H451L410 711L368 666H241L350 798H469Z" glyph-name="Wcircumflex" horiz-adv-x="820" unicode="&#372;" /><glyph d="M473 614 566 253 652 614H814L652 0H505L410 360L313 0H167L6 614H170L256 253L351 614ZM241 734Q241 767 263.5 790Q286 813 320 813Q353 813 376 790Q399 767 399 734Q399 701 376 678Q353 655 320 655Q286 655 263.5 678Q241 701 241 734ZM422 734Q422 767 445 790Q468 813 501 813Q533 813 556.5 790Q580 767 580 734Q580 701 556.5 678Q533 655 501 655Q468 655 445 678Q422 701 422 734Z" glyph-name="Wdieresis" horiz-adv-x="820" unicode="&#7812;" /><glyph d="M473 614 566 253 652 614H814L652 0H505L410 360L313 0H167L6 614H170L256 253L351 614ZM338 666 249 796H409L491 666Z" glyph-name="Wgrave" horiz-adv-x="820" unicode="&#7808;" /><glyph d="M394 314 601 0H422L300 189L178 0H3L210 314L13 614H192L303 439L417 614H591Z" glyph-name="X" horiz-adv-x="604" unicode="X" /><glyph d="M438 614H606L385 218V0H224V218L5 614H179L309 374Z" glyph-name="Y" horiz-adv-x="612" unicode="Y" /><glyph d="M438 614H606L385 218V0H224V218L5 614H179L309 374ZM225 666 307 796H467L379 666Z" glyph-name="Yacute" horiz-adv-x="612" unicode="&#221;" /><glyph d="M438 614H606L385 218V0H224V218L5 614H179L309 374ZM475 666H348L307 711L265 666H138L247 798H366Z" glyph-name="Ycircumflex" horiz-adv-x="612" unicode="&#374;" /><glyph d="M438 614H606L385 218V0H224V218L5 614H179L309 374ZM137 734Q137 767 159.5 790Q182 813 216 813Q249 813 272 790Q295 767 295 734Q295 701 272 678Q249 655 216 655Q182 655 159.5 678Q137 701 137 734ZM318 734Q318 767 341 790Q364 813 397 813Q429 813 452.5 790Q476 767 476 734Q476 701 452.5 678Q429 655 397 655Q364 655 341 678Q318 701 318 734Z" glyph-name="Ydieresis" horiz-adv-x="612" unicode="&#376;" /><glyph d="M438 614H606L385 218V0H224V218L5 614H179L309 374ZM235 666 146 796H306L388 666Z" glyph-name="Ygrave" horiz-adv-x="612" unicode="&#7922;" /><glyph d="M528 0H34V119L319 476H38V614H524V496L243 139H528Z" glyph-name="Z" horiz-adv-x="562" unicode="Z" /><glyph d="M528 0H34V119L319 476H38V614H524V496L243 139H528ZM212 666 294 796H454L366 666Z" glyph-name="Zacute" horiz-adv-x="562" unicode="&#377;" /><glyph d="M528 0H34V119L319 476H38V614H524V496L243 139H528ZM125 796H252L294 750L335 796H462L353 663H234Z" glyph-name="Zcaron" horiz-adv-x="562" unicode="&#381;" /><glyph d="M528 0H34V119L319 476H38V614H524V496L243 139H528ZM382 743Q382 703 356 680.5Q330 658 293 658Q257 658 230.5 680.5Q204 703 204 743Q204 782 230.5 804.5Q257 827 293 827Q330 827 356 804.5Q382 782 382 743Z" glyph-name="Zdotaccent" horiz-adv-x="562" unicode="&#379;" /><glyph d="M292 0V23Q281 12 250.5 2Q220 -8 184 -8Q151 -8 121 1.5Q91 11 68.5 29Q46 47 33 74Q20 101 20 137Q20 169 33.5 195.5Q47 222 70 241Q93 260 125 270Q157 280 193 280Q221 280 249.5 272.5Q278 265 292 255V284Q292 305 279 321.5Q266 338 237 338Q215 338 202.5 329Q190 320 184 305H36Q41 338 57.5 366Q74 394 100.5 415.5Q127 437 163 449Q199 461 242 461Q339 461 391.5 412.5Q444 364 444 276V0ZM292 152Q289 159 282 165Q275 171 266.5 175Q258 179 247.5 181Q237 183 226 183Q215 183 203.5 180.5Q192 178 183.5 172.5Q175 167 169.5 158.5Q164 150 164 140Q164 128 169.5 120Q175 112 183.5 106.5Q192 101 203.5 98.5Q215 96 226 96Q237 96 247.5 98Q258 100 266.5 104Q275 108 282 113.5Q289 119 292 126Z" glyph-name="a" horiz-adv-x="479" unicode="a" /><glyph d="M292 0V23Q281 12 250.5 2Q220 -8 184 -8Q151 -8 121 1.5Q91 11 68.5 29Q46 47 33 74Q20 101 20 137Q20 169 33.5 195.5Q47 222 70 241Q93 260 125 270Q157 280 193 280Q221 280 249.5 272.5Q278 265 292 255V284Q292 305 279 321.5Q266 338 237 338Q215 338 202.5 329Q190 320 184 305H36Q41 338 57.5 366Q74 394 100.5 415.5Q127 437 163 449Q199 461 242 461Q339 461 391.5 412.5Q444 364 444 276V0ZM292 152Q289 159 282 165Q275 171 266.5 175Q258 179 247.5 181Q237 183 226 183Q215 183 203.5 180.5Q192 178 183.5 172.5Q175 167 169.5 158.5Q164 150 164 140Q164 128 169.5 120Q175 112 183.5 106.5Q192 101 203.5 98.5Q215 96 226 96Q237 96 247.5 98Q258 100 266.5 104Q275 108 282 113.5Q289 119 292 126ZM173 500 255 650H404L317 500Z" glyph-name="aacute" horiz-adv-x="479" unicode="&#225;" /><glyph d="M292 0V23Q281 12 250.5 2Q220 -8 184 -8Q151 -8 121 1.5Q91 11 68.5 29Q46 47 33 74Q20 101 20 137Q20 169 33.5 195.5Q47 222 70 241Q93 260 125 270Q157 280 193 280Q221 280 249.5 272.5Q278 265 292 255V284Q292 305 279 321.5Q266 338 237 338Q215 338 202.5 329Q190 320 184 305H36Q41 338 57.5 366Q74 394 100.5 415.5Q127 437 163 449Q199 461 242 461Q339 461 391.5 412.5Q444 364 444 276V0ZM292 152Q289 159 282 165Q275 171 266.5 175Q258 179 247.5 181Q237 183 226 183Q215 183 203.5 180.5Q192 178 183.5 172.5Q175 167 169.5 158.5Q164 150 164 140Q164 128 169.5 120Q175 112 183.5 106.5Q192 101 203.5 98.5Q215 96 226 96Q237 96 247.5 98Q258 100 266.5 104Q275 108 282 113.5Q289 119 292 126ZM248 488Q217 488 191 497.5Q165 507 145.5 526Q126 545 115.5 573Q105 601 105 638H213Q213 616 222 603.5Q231 591 248 591Q267 591 275.5 603.5Q284 616 284 638H392Q392 601 381.5 573Q371 545 351.5 526Q332 507 306 497.5Q280 488 248 488Z" glyph-name="abreve" horiz-adv-x="479" unicode="&#259;" /><glyph d="M292 0V23Q281 12 250.5 2Q220 -8 184 -8Q151 -8 121 1.5Q91 11 68.5 29Q46 47 33 74Q20 101 20 137Q20 169 33.5 195.5Q47 222 70 241Q93 260 125 270Q157 280 193 280Q221 280 249.5 272.5Q278 265 292 255V284Q292 305 279 321.5Q266 338 237 338Q215 338 202.5 329Q190 320 184 305H36Q41 338 57.5 366Q74 394 100.5 415.5Q127 437 163 449Q199 461 242 461Q339 461 391.5 412.5Q444 364 444 276V0ZM292 152Q289 159 282 165Q275 171 266.5 175Q258 179 247.5 181Q237 183 226 183Q215 183 203.5 180.5Q192 178 183.5 172.5Q175 167 169.5 158.5Q164 150 164 140Q164 128 169.5 120Q175 112 183.5 106.5Q192 101 203.5 98.5Q215 96 226 96Q237 96 247.5 98Q258 100 266.5 104Q275 108 282 113.5Q289 119 292 126ZM404 498H287L248 553L208 498H92L188 649H308Z" glyph-name="acircumflex" horiz-adv-x="479" unicode="&#226;" /><glyph d="M134 500 216 650H365L278 500Z" glyph-name="acute" horiz-adv-x="500" unicode="&#180;" /><glyph d="M128 666 210 796H370L282 666Z" glyph-name="acute.cap" horiz-adv-x="500" /><glyph d="M292 0V23Q281 12 250.5 2Q220 -8 184 -8Q151 -8 121 1.5Q91 11 68.5 29Q46 47 33 74Q20 101 20 137Q20 169 33.5 195.5Q47 222 70 241Q93 260 125 270Q157 280 193 280Q221 280 249.5 272.5Q278 265 292 255V284Q292 305 279 321.5Q266 338 237 338Q215 338 202.5 329Q190 320 184 305H36Q41 338 57.5 366Q74 394 100.5 415.5Q127 437 163 449Q199 461 242 461Q339 461 391.5 412.5Q444 364 444 276V0ZM292 152Q289 159 282 165Q275 171 266.5 175Q258 179 247.5 181Q237 183 226 183Q215 183 203.5 180.5Q192 178 183.5 172.5Q175 167 169.5 158.5Q164 150 164 140Q164 128 169.5 120Q175 112 183.5 106.5Q192 101 203.5 98.5Q215 96 226 96Q237 96 247.5 98Q258 100 266.5 104Q275 108 282 113.5Q289 119 292 126ZM84 567Q84 599 106.5 621.5Q129 644 161 644Q177 644 191 638Q205 632 215.5 621.5Q226 611 232 597Q238 583 238 567Q238 535 215 513Q192 491 161 491Q129 491 106.5 513Q84 535 84 567ZM261 567Q261 599 283.5 621.5Q306 644 337 644Q353 644 367 638Q381 632 391.5 621.5Q402 611 408.5 597Q415 583 415 567Q415 535 392 513Q369 491 337 491Q306 491 283.5 513Q261 535 261 567Z" glyph-name="adieresis" horiz-adv-x="479" unicode="&#228;" /><glyph d="M221 101Q232 101 242.5 103.5Q253 106 261.5 110.5Q270 115 277 122Q284 129 288 138V189H224Q212 189 201 186.5Q190 184 181.5 178.5Q173 173 168 164.5Q163 156 163 145Q163 122 180.5 111.5Q198 101 221 101ZM712 153Q698 77 641.5 33.5Q585 -10 498 -10Q450 -10 412 6Q374 22 346 46Q332 35 315.5 25Q299 15 279 7.5Q259 0 235.5 -4.5Q212 -9 185 -9Q152 -9 122 0Q92 9 69 27Q46 45 32.5 71Q19 97 19 130Q19 166 34 192.5Q49 219 74.5 237Q100 255 134.5 264Q169 273 209 273H288V286Q288 308 274 324.5Q260 341 230 341Q208 341 193.5 331Q179 321 174 305H35Q40 338 56 366.5Q72 395 97 416Q122 437 156.5 448.5Q191 460 233 460Q277 460 310.5 446.5Q344 433 367 411Q393 432 425.5 446Q458 460 500 460Q550 460 589.5 443.5Q629 427 656.5 397.5Q684 368 699 326.5Q714 285 714 234V190H423Q425 170 431 155.5Q437 141 447 131Q457 121 470.5 116.5Q484 112 500 112Q524 112 541 122Q558 132 564 153ZM498 338Q470 338 451.5 321Q433 304 426 273H562Q561 286 556.5 298Q552 310 544 319Q536 328 524.5 333Q513 338 498 338Z" glyph-name="ae" horiz-adv-x="732" unicode="&#230;" /><glyph d="M221 101Q232 101 242.5 103.5Q253 106 261.5 110.5Q270 115 277 122Q284 129 288 138V189H224Q212 189 201 186.5Q190 184 181.5 178.5Q173 173 168 164.5Q163 156 163 145Q163 122 180.5 111.5Q198 101 221 101ZM712 153Q698 77 641.5 33.5Q585 -10 498 -10Q450 -10 412 6Q374 22 346 46Q332 35 315.5 25Q299 15 279 7.5Q259 0 235.5 -4.5Q212 -9 185 -9Q152 -9 122 0Q92 9 69 27Q46 45 32.5 71Q19 97 19 130Q19 166 34 192.5Q49 219 74.5 237Q100 255 134.5 264Q169 273 209 273H288V286Q288 308 274 324.5Q260 341 230 341Q208 341 193.5 331Q179 321 174 305H35Q40 338 56 366.5Q72 395 97 416Q122 437 156.5 448.5Q191 460 233 460Q277 460 310.5 446.5Q344 433 367 411Q393 432 425.5 446Q458 460 500 460Q550 460 589.5 443.5Q629 427 656.5 397.5Q684 368 699 326.5Q714 285 714 234V190H423Q425 170 431 155.5Q437 141 447 131Q457 121 470.5 116.5Q484 112 500 112Q524 112 541 122Q558 132 564 153ZM498 338Q470 338 451.5 321Q433 304 426 273H562Q561 286 556.5 298Q552 310 544 319Q536 328 524.5 333Q513 338 498 338ZM301 500 383 650H532L445 500Z" glyph-name="aeacute" horiz-adv-x="732" unicode="&#509;" /><glyph d="M292 0V23Q281 12 250.5 2Q220 -8 184 -8Q151 -8 121 1.5Q91 11 68.5 29Q46 47 33 74Q20 101 20 137Q20 169 33.5 195.5Q47 222 70 241Q93 260 125 270Q157 280 193 280Q221 280 249.5 272.5Q278 265 292 255V284Q292 305 279 321.5Q266 338 237 338Q215 338 202.5 329Q190 320 184 305H36Q41 338 57.5 366Q74 394 100.5 415.5Q127 437 163 449Q199 461 242 461Q339 461 391.5 412.5Q444 364 444 276V0ZM292 152Q289 159 282 165Q275 171 266.5 175Q258 179 247.5 181Q237 183 226 183Q215 183 203.5 180.5Q192 178 183.5 172.5Q175 167 169.5 158.5Q164 150 164 140Q164 128 169.5 120Q175 112 183.5 106.5Q192 101 203.5 98.5Q215 96 226 96Q237 96 247.5 98Q258 100 266.5 104Q275 108 282 113.5Q289 119 292 126ZM183 500 96 650H245L327 500Z" glyph-name="agrave" horiz-adv-x="479" unicode="&#224;" /><glyph d="M292 0V23Q281 12 250.5 2Q220 -8 184 -8Q151 -8 121 1.5Q91 11 68.5 29Q46 47 33 74Q20 101 20 137Q20 169 33.5 195.5Q47 222 70 241Q93 260 125 270Q157 280 193 280Q221 280 249.5 272.5Q278 265 292 255V284Q292 305 279 321.5Q266 338 237 338Q215 338 202.5 329Q190 320 184 305H36Q41 338 57.5 366Q74 394 100.5 415.5Q127 437 163 449Q199 461 242 461Q339 461 391.5 412.5Q444 364 444 276V0ZM292 152Q289 159 282 165Q275 171 266.5 175Q258 179 247.5 181Q237 183 226 183Q215 183 203.5 180.5Q192 178 183.5 172.5Q175 167 169.5 158.5Q164 150 164 140Q164 128 169.5 120Q175 112 183.5 106.5Q192 101 203.5 98.5Q215 96 226 96Q237 96 247.5 98Q258 100 266.5 104Q275 108 282 113.5Q289 119 292 126ZM123 613H376V504H123Z" glyph-name="amacron" horiz-adv-x="479" unicode="&#257;" /><glyph d="M345 451Q344 470 332 485.5Q320 501 295 501Q270 501 255.5 486.5Q241 472 241 449Q241 427 254.5 408.5Q268 390 285 370L402 234L403 236Q418 276 419 325H556Q556 255 530 194Q515 158 494 128L605 0H428L397 34Q380 24 361 16Q305 -10 244 -10Q196 -10 155.5 3.5Q115 17 86.5 42.5Q58 68 42.5 103.5Q27 139 27 185Q27 215 37 243Q47 271 64.5 294Q82 317 106 334Q114 340 122 345Q114 358 107 370Q98 389 94 408Q90 427 90 449Q90 489 105 521Q120 553 147 576Q174 599 211.5 611.5Q249 624 295 624Q341 624 377.5 610.5Q414 597 439.5 574Q465 551 479.5 519Q494 487 497 451ZM190 238Q181 228 175.5 214.5Q170 201 170 185Q170 169 175.5 156Q181 143 190.5 133Q200 123 214.5 117Q229 111 247 111Q280 111 310 126Q312 126 313 127L203 250Q196 245 190 238Z" glyph-name="ampersand" horiz-adv-x="609" unicode="&amp;" /><glyph d="M292 152Q288 159 281.5 165Q275 171 266.5 175Q258 179 247.5 181Q237 183 226 183Q215 183 203.5 180.5Q192 178 183.5 172.5Q175 167 169.5 158.5Q164 150 164 140Q164 128 169.5 120Q175 112 183.5 106.5Q192 101 203.5 98.5Q215 96 226 96Q237 96 247.5 98Q258 100 266.5 104Q275 108 281.5 113.5Q288 119 292 126ZM292 0V23Q281 12 250.5 2Q220 -8 184 -8Q151 -8 121 1.5Q91 11 68.5 29Q46 47 33 74Q20 101 20 137Q20 169 33.5 195.5Q47 222 70 241Q93 260 125 270Q157 280 193 280Q221 280 249.5 272.5Q278 265 292 255V284Q292 305 279 321.5Q266 338 237 338Q215 338 202 329Q189 320 184 305H36Q41 338 57.5 366Q74 394 100.5 415.5Q127 437 163 449Q199 461 242 461Q339 461 391.5 412.5Q444 364 444 276V0Q428 -19 418 -30Q408 -41 402 -49Q396 -57 394 -62.5Q392 -68 392 -75Q392 -84 397 -88.5Q402 -93 412 -93Q420 -93 427.5 -90Q435 -87 447 -79V-166Q434 -174 418.5 -179.5Q403 -185 382 -185Q362 -185 345 -180Q328 -175 316 -165Q304 -155 296.5 -140Q289 -125 289 -106Q289 -91 293.5 -78Q298 -65 305.5 -52Q313 -39 323 -26Q333 -13 345 0Z" glyph-name="aogonek" horiz-adv-x="479" unicode="&#261;" /><glyph d="M78 245Q107 267 133.5 276.5Q160 286 184 286Q209 286 231 279.5Q253 273 274 265.5Q295 258 316.5 251Q338 244 363 244Q387 244 414.5 254Q442 264 472 287V227Q442 204 414.5 195Q387 186 363 186Q338 186 316 192Q294 198 273 206Q252 214 230.5 220.5Q209 227 184 227Q160 227 133.5 217Q107 207 78 185ZM78 369Q107 391 133.5 400.5Q160 410 184 410Q209 410 231 403.5Q253 397 274 389Q295 381 316.5 374.5Q338 368 363 368Q387 368 414.5 378Q442 388 472 411V351Q442 328 414.5 318.5Q387 309 363 309Q338 309 316 315.5Q294 322 273 330Q252 338 230.5 344.5Q209 351 184 351Q160 351 133.5 340.5Q107 330 78 308Z" glyph-name="approxequal" horiz-adv-x="549" unicode="&#8776;" /><glyph d="M63 245Q92 267 118 276.5Q144 286 169 286Q194 286 216 279.5Q238 273 259 265.5Q280 258 301.5 251Q323 244 348 244Q372 244 399.5 254Q427 264 456 287V227Q427 204 399.5 195Q372 186 348 186Q323 186 301 192Q279 198 258 206Q237 214 215 220.5Q193 227 169 227Q144 227 118 217Q92 207 63 185ZM63 369Q92 391 118 400.5Q144 410 169 410Q194 410 216 403.5Q238 397 259 389Q280 381 301.5 374.5Q323 368 348 368Q372 368 399.5 378Q427 388 456 411V351Q427 328 399.5 318.5Q372 309 348 309Q323 309 301 315.5Q279 322 258 330Q237 338 215 344.5Q193 351 169 351Q144 351 118 340.5Q92 330 63 308Z" glyph-name="approxequal.lt" horiz-adv-x="520" /><glyph d="M292 0V23Q281 12 250.5 2Q220 -8 184 -8Q151 -8 121 1.5Q91 11 68.5 29Q46 47 33 74Q20 101 20 137Q20 169 33.5 195.5Q47 222 70 241Q93 260 125 270Q157 280 193 280Q221 280 249.5 272.5Q278 265 292 255V284Q292 305 279 321.5Q266 338 237 338Q215 338 202.5 329Q190 320 184 305H36Q41 338 57.5 366Q74 394 100.5 415.5Q127 437 163 449Q199 461 242 461Q339 461 391.5 412.5Q444 364 444 276V0ZM292 152Q289 159 282 165Q275 171 266.5 175Q258 179 247.5 181Q237 183 226 183Q215 183 203.5 180.5Q192 178 183.5 172.5Q175 167 169.5 158.5Q164 150 164 140Q164 128 169.5 120Q175 112 183.5 106.5Q192 101 203.5 98.5Q215 96 226 96Q237 96 247.5 98Q258 100 266.5 104Q275 108 282 113.5Q289 119 292 126ZM358 590Q358 567 350 548Q342 529 327 515Q312 501 292.5 493Q273 485 250 485Q227 485 207.5 493Q188 501 173.5 515Q159 529 150.5 548Q142 567 142 590Q142 612 150.5 631Q159 650 173.5 664.5Q188 679 207.5 687Q227 695 250 695Q273 695 292.5 687Q312 679 327 664.5Q342 650 350 631Q358 612 358 590ZM287 590Q287 605 276.5 615.5Q266 626 250 626Q235 626 225 615.5Q215 605 215 590Q215 575 225 564.5Q235 554 250 554Q266 554 276.5 564.5Q287 575 287 590Z" glyph-name="aring" horiz-adv-x="478" unicode="&#229;" /><glyph d="M351 563Q351 528 320.5 502.5Q290 477 245 477Q200 477 169.5 502.5Q139 528 139 563Q139 581 147 597Q155 613 169.5 625Q184 637 203.5 643.5Q223 650 245 650Q267 650 286.5 643.5Q306 637 320.5 625Q335 613 343 597Q351 581 351 563ZM281 563Q281 576 271 584.5Q261 593 245 593Q229 593 219 584.5Q209 576 209 563Q209 551 219 542.5Q229 534 245 534Q261 534 271 542.5Q281 551 281 563ZM172 667 235 769H396L326 667ZM292 0V23Q281 12 250.5 2Q220 -8 184 -8Q151 -8 121 1.5Q91 11 68.5 29Q46 47 33 74Q20 101 20 137Q20 169 33.5 195.5Q47 222 70 241Q93 260 125 270Q157 280 193 280Q221 280 249.5 272.5Q278 265 292 255V284Q292 305 279 321.5Q266 338 237 338Q215 338 202.5 329Q190 320 184 305H36Q41 338 57.5 366Q74 394 100.5 415.5Q127 437 163 449Q199 461 242 461Q339 461 391.5 412.5Q444 364 444 276V0ZM292 152Q289 159 282 165Q275 171 266.5 175Q258 179 247.5 181Q237 183 226 183Q215 183 203.5 180.5Q192 178 183.5 172.5Q175 167 169.5 158.5Q164 150 164 140Q164 128 169.5 120Q175 112 183.5 106.5Q192 101 203.5 98.5Q215 96 226 96Q237 96 247.5 98Q258 100 266.5 104Q275 108 282 113.5Q289 119 292 126Z" glyph-name="aringacute" horiz-adv-x="479" unicode="&#507;" /><glyph d="M281 614 422 376H288L216 501L145 376H10L152 614Z" glyph-name="asciicircum" horiz-adv-x="432" unicode="^" /><glyph d="M396 355Q396 277 367.5 234.5Q339 192 287 192Q263 192 246 200.5Q229 209 215.5 220Q202 231 190 239.5Q178 248 164 248Q147 248 138 236Q129 224 129 197H31Q31 274 59.5 317Q88 360 142 360Q164 360 181 351.5Q198 343 212 332.5Q226 322 238 313.5Q250 305 264 305Q281 305 289.5 316.5Q298 328 298 355Z" glyph-name="asciitilde" horiz-adv-x="427" unicode="~" /><glyph d="M24 543 62 607 135 564V650H210V564L283 607L321 543L246 500L321 457L283 393L210 436V350H135V436L62 393L24 457L98 500Z" glyph-name="asterisk" horiz-adv-x="345" unicode="*" /><glyph d="M538 148Q534 127 540.5 117Q547 107 564 107Q586 107 603.5 118Q621 129 634 150.5Q647 172 654 203Q661 234 661 274Q661 327 641 368Q621 409 586.5 437.5Q552 466 505 481Q458 496 403 496Q337 496 281.5 473.5Q226 451 186.5 411Q147 371 125 314.5Q103 258 103 190Q103 112 131.5 59.5Q160 7 203.5 -23.5Q247 -54 300.5 -67Q354 -80 404 -80Q474 -80 527 -66.5Q580 -53 628 -32V-108Q590 -127 531.5 -141Q473 -155 404 -155Q330 -155 261 -134.5Q192 -114 138.5 -72Q85 -30 52.5 35Q20 100 20 190Q20 269 47.5 338Q75 407 125.5 459Q176 511 246.5 541Q317 571 403 571Q478 571 540 548.5Q602 526 646 486Q690 446 714.5 391.5Q739 337 739 274Q739 212 722.5 166.5Q706 121 677.5 90Q649 59 611 44Q573 29 530 29Q495 29 464 41.5Q433 54 415 79Q398 55 370.5 43Q343 31 315 31Q282 31 256.5 43Q231 55 213.5 75.5Q196 96 187 124Q178 152 178 185Q178 227 191.5 266Q205 305 229.5 334.5Q254 364 288 381.5Q322 399 364 399Q392 399 415.5 388.5Q439 378 449 363L455 391H580ZM430 259Q426 272 413 281Q400 290 382 290Q366 290 352.5 282.5Q339 275 329.5 262.5Q320 250 314 232.5Q308 215 308 196Q308 171 320.5 155.5Q333 140 359 140Q379 140 392.5 150Q406 160 415 173Z" glyph-name="at" horiz-adv-x="759" unicode="@" /><glyph d="M538 240Q534 219 540.5 209Q547 199 564 199Q586 199 603.5 210Q621 221 634 242.5Q647 264 654 295Q661 326 661 366Q661 419 641 460Q621 501 586.5 529.5Q552 558 505 573Q458 588 403 588Q337 588 281.5 565.5Q226 543 186.5 503Q147 463 125 406.5Q103 350 103 282Q103 204 131.5 151.5Q160 99 203.5 68.5Q247 38 300.5 25Q354 12 404 12Q474 12 527 25.5Q580 39 628 60V-15Q590 -34 531.5 -48Q473 -62 404 -62Q330 -62 261 -42Q192 -22 138.5 20Q85 62 52.5 127Q20 192 20 282Q20 361 47.5 430Q75 499 125.5 551Q176 603 246.5 633Q317 663 403 663Q478 663 540 640.5Q602 618 646 578Q690 538 714.5 483.5Q739 429 739 366Q739 304 722.5 258.5Q706 213 677.5 182Q649 151 611 136Q573 121 530 121Q495 121 464 133.5Q433 146 415 171Q398 147 370.5 135Q343 123 315 123Q282 123 256.5 135Q231 147 213.5 167.5Q196 188 187 216Q178 244 178 277Q178 319 191.5 358Q205 397 229.5 426.5Q254 456 288 473.5Q322 491 364 491Q392 491 415.5 480.5Q439 470 449 455L455 483H580ZM430 351Q426 364 413 373Q400 382 382 382Q366 382 352.5 374.5Q339 367 329.5 354.5Q320 342 314 324.5Q308 307 308 288Q308 263 320.5 247.5Q333 232 359 232Q379 232 392.5 242Q406 252 415 265Z" glyph-name="at.cap" horiz-adv-x="759" /><glyph d="M292 0V23Q281 12 250.5 2Q220 -8 184 -8Q151 -8 121 1.5Q91 11 68.5 29Q46 47 33 74Q20 101 20 137Q20 169 33.5 195.5Q47 222 70 241Q93 260 125 270Q157 280 193 280Q221 280 249.5 272.5Q278 265 292 255V284Q292 305 279 321.5Q266 338 237 338Q215 338 202.5 329Q190 320 184 305H36Q41 338 57.5 366Q74 394 100.5 415.5Q127 437 163 449Q199 461 242 461Q339 461 391.5 412.5Q444 364 444 276V0ZM292 152Q289 159 282 165Q275 171 266.5 175Q258 179 247.5 181Q237 183 226 183Q215 183 203.5 180.5Q192 178 183.5 172.5Q175 167 169.5 158.5Q164 150 164 140Q164 128 169.5 120Q175 112 183.5 106.5Q192 101 203.5 98.5Q215 96 226 96Q237 96 247.5 98Q258 100 266.5 104Q275 108 282 113.5Q289 119 292 126ZM399 647Q399 616 394.5 589Q390 562 379.5 541.5Q369 521 352 509Q335 497 310 497Q293 497 280 502.5Q267 508 256 515Q245 522 234.5 527.5Q224 533 212 533Q200 533 193.5 524Q187 515 186 500H101Q101 531 105.5 558Q110 585 120 605.5Q130 626 147 638Q164 650 189 650Q206 650 219 644.5Q232 639 243.5 632Q255 625 265.5 619.5Q276 614 288 614Q299 614 306 623Q313 632 313 647Z" glyph-name="atilde" horiz-adv-x="479" unicode="&#227;" /><glyph d="M199 0H42V650H199V414Q207 423 219 431.5Q231 440 245 446Q259 452 276 456Q293 460 310 460Q358 460 395.5 441.5Q433 423 458.5 391Q484 359 497 316.5Q510 274 510 225Q510 177 497 134Q484 91 458.5 59Q433 27 395.5 8.5Q358 -10 310 -10Q293 -10 276 -6Q259 -2 245 4Q231 10 219 18.5Q207 27 199 36ZM199 166Q208 147 226 135.5Q244 124 268 124Q288 124 304 132Q320 140 330.5 153Q341 166 347 184.5Q353 203 353 225Q353 247 347 265.5Q341 284 330.5 297.5Q320 311 304 318.5Q288 326 268 326Q245 326 226.5 314.5Q208 303 199 284Z" glyph-name="b" horiz-adv-x="528" unicode="b" /><glyph d="M389 -84H253L5 650H141Z" glyph-name="backslash" horiz-adv-x="394" unicode="\" /><glyph d="M389 -64H253L5 670H141Z" glyph-name="backslash.cap" horiz-adv-x="394" /><glyph d="M46 650H177V-84H46Z" glyph-name="bar" horiz-adv-x="223" unicode="|" /><glyph d="M46 670H177V-64H46Z" glyph-name="bar.cap" horiz-adv-x="223" /><glyph d="M236 75Q236 46 265 46H346V-84H222Q165 -84 129 -48Q93 -12 93 46V189Q93 218 64 218H20V348H64Q93 348 93 377V520Q93 578 129 614Q165 650 222 650H346V520H265Q236 520 236 491V366Q236 334 222.5 314.5Q209 295 189 283Q209 271 222.5 251.5Q236 232 236 200Z" glyph-name="braceleft" horiz-adv-x="366" unicode="{" /><glyph d="M236 95Q236 66 265 66H346V-64H222Q165 -64 129 -28Q93 8 93 66V209Q93 238 64 238H20V368H64Q93 368 93 397V540Q93 598 129 634Q165 670 222 670H346V540H265Q236 540 236 511V386Q236 354 222.5 334.5Q209 315 189 303Q209 291 222.5 271.5Q236 252 236 220Z" glyph-name="braceleft.cap" horiz-adv-x="366" /><glyph d="M131 200Q131 232 144.5 251.5Q158 271 178 283Q158 295 144.5 314.5Q131 334 131 366V491Q131 520 102 520H20V650H145Q202 650 238 614Q274 578 274 520V377Q274 348 303 348H346V218H303Q274 218 274 189V46Q274 -12 238 -48Q202 -84 145 -84H20V46H102Q131 46 131 75Z" glyph-name="braceright" horiz-adv-x="366" unicode="}" /><glyph d="M131 220Q131 252 144.5 271.5Q158 291 178 303Q158 315 144.5 334.5Q131 354 131 386V511Q131 540 102 540H20V670H145Q202 670 238 634Q274 598 274 540V397Q274 368 303 368H346V238H303Q274 238 274 209V66Q274 8 238 -28Q202 -64 145 -64H20V66H102Q131 66 131 95Z" glyph-name="braceright.cap" horiz-adv-x="366" /><glyph d="M193 46H312V-84H46V650H312V520H193Z" glyph-name="bracketleft" horiz-adv-x="332" unicode="[" /><glyph d="M193 66H312V-64H46V670H312V540H193Z" glyph-name="bracketleft.cap" horiz-adv-x="332" /><glyph d="M139 520H20V650H286V-84H20V46H139Z" glyph-name="bracketright" horiz-adv-x="332" unicode="]" /><glyph d="M139 540H20V670H286V-64H20V66H139Z" glyph-name="bracketright.cap" horiz-adv-x="332" /><glyph d="M250 488Q219 488 193 497.5Q167 507 147.5 526Q128 545 117.5 573Q107 601 107 638H215Q215 616 224 603.5Q233 591 250 591Q269 591 277.5 603.5Q286 616 286 638H394Q394 601 383.5 573Q373 545 353.5 526Q334 507 308 497.5Q282 488 250 488Z" glyph-name="breve" horiz-adv-x="500" unicode="&#728;" /><glyph d="M250 658Q219 658 192.5 667.5Q166 677 146.5 695.5Q127 714 116.5 741Q106 768 106 804H214Q214 783 224 772.5Q234 762 250 762Q268 762 277.5 772.5Q287 783 287 804H395Q395 768 384 741Q373 714 354 695.5Q335 677 308.5 667.5Q282 658 250 658Z" glyph-name="breve.cap" horiz-adv-x="500" /><glyph d="M356 261Q356 225 343 195Q330 165 307.5 143Q285 121 255 109Q225 97 191 97Q156 97 125.5 109Q95 121 72.5 143Q50 165 37 195Q24 225 24 261Q24 298 37 329Q50 360 72.5 382Q95 404 125.5 416Q156 428 191 428Q225 428 255 416Q285 404 307.5 382Q330 360 343 329Q356 298 356 261Z" glyph-name="bullet" horiz-adv-x="380" unicode="&#8226;" /><glyph d="M356 295Q356 259 343 228.5Q330 198 307.5 176.5Q285 155 255 143Q225 131 191 131Q156 131 125.5 143Q95 155 72.5 176.5Q50 198 37 228.5Q24 259 24 295Q24 332 37 362.5Q50 393 72.5 415.5Q95 438 125.5 450Q156 462 191 462Q225 462 255 450Q285 438 307.5 415.5Q330 393 343 362.5Q356 332 356 295Z" glyph-name="bullet.cap" horiz-adv-x="380" /><glyph d="M18 225Q18 277 34.5 320.5Q51 364 80.5 395Q110 426 152 443Q194 460 245 460Q290 460 326.5 447Q363 434 390 410.5Q417 387 432.5 354.5Q448 322 453 283H302Q298 303 283.5 316.5Q269 330 244 330Q228 330 215 322.5Q202 315 192.5 301.5Q183 288 178 268.5Q173 249 173 225Q173 201 178 181.5Q183 162 192.5 149Q202 136 215 128.5Q228 121 244 121Q269 121 283.5 134Q298 147 302 168H453Q448 128 432.5 95.5Q417 63 390 39.5Q363 16 326.5 3Q290 -10 245 -10Q194 -10 152 7.5Q110 25 80.5 55.5Q51 86 34.5 129.5Q18 173 18 225Z" glyph-name="c" horiz-adv-x="470" unicode="c" /><glyph d="M18 225Q18 277 34.5 320.5Q51 364 80.5 395Q110 426 152 443Q194 460 245 460Q290 460 326.5 447Q363 434 390 410.5Q417 387 432.5 354.5Q448 322 453 283H302Q298 303 283.5 316.5Q269 330 244 330Q228 330 215 322.5Q202 315 192.5 301.5Q183 288 178 268.5Q173 249 173 225Q173 201 178 181.5Q183 162 192.5 149Q202 136 215 128.5Q228 121 244 121Q269 121 283.5 134Q298 147 302 168H453Q448 128 432.5 95.5Q417 63 390 39.5Q363 16 326.5 3Q290 -10 245 -10Q194 -10 152 7.5Q110 25 80.5 55.5Q51 86 34.5 129.5Q18 173 18 225ZM170 500 252 650H401L314 500Z" glyph-name="cacute" horiz-adv-x="470" unicode="&#263;" /><glyph d="M310 498H190L94 649H210L250 594L289 649H406Z" glyph-name="caron" horiz-adv-x="500" unicode="&#711;" /><glyph d="M161 483 204 650H326L282 483Z" glyph-name="caron.Slovak" horiz-adv-x="500" /><glyph d="M82 796H209L251 750L292 796H419L310 663H191Z" glyph-name="caron.cap" horiz-adv-x="500" /><glyph d="M18 225Q18 277 34.5 320.5Q51 364 80.5 395Q110 426 152 443Q194 460 245 460Q290 460 326.5 447Q363 434 390 410.5Q417 387 432.5 354.5Q448 322 453 283H302Q298 303 283.5 316.5Q269 330 244 330Q228 330 215 322.5Q202 315 192.5 301.5Q183 288 178 268.5Q173 249 173 225Q173 201 178 181.5Q183 162 192.5 149Q202 136 215 128.5Q228 121 244 121Q269 121 283.5 134Q298 147 302 168H453Q448 128 432.5 95.5Q417 63 390 39.5Q363 16 326.5 3Q290 -10 245 -10Q194 -10 152 7.5Q110 25 80.5 55.5Q51 86 34.5 129.5Q18 173 18 225ZM308 498H188L92 649H208L248 594L287 649H404Z" glyph-name="ccaron" horiz-adv-x="470" unicode="&#269;" /><glyph d="M18 225Q18 277 34.5 320.5Q51 364 80.5 395Q110 426 152 443Q194 460 245 460Q290 460 326.5 447Q363 434 390 410.5Q417 387 432.5 354.5Q448 322 453 283H302Q298 303 283.5 316.5Q269 330 244 330Q228 330 215 322.5Q202 315 192.5 301.5Q183 288 178 268.5Q173 249 173 225Q173 201 178 181.5Q183 162 192.5 149Q202 136 215 128.5Q228 121 244 121Q269 121 283.5 134Q298 147 302 168H453Q448 128 432.5 95.5Q417 63 390 39.5Q363 16 326.5 3Q290 -10 245 -10Q194 -10 152 7.5Q110 25 80.5 55.5Q51 86 34.5 129.5Q18 173 18 225ZM111 -181 179 -40H315L244 -181Z" glyph-name="ccedilla" horiz-adv-x="470" unicode="&#231;" /><glyph d="M18 225Q18 277 34.5 320.5Q51 364 80.5 395Q110 426 152 443Q194 460 245 460Q290 460 326.5 447Q363 434 390 410.5Q417 387 432.5 354.5Q448 322 453 283H302Q298 303 283.5 316.5Q269 330 244 330Q228 330 215 322.5Q202 315 192.5 301.5Q183 288 178 268.5Q173 249 173 225Q173 201 178 181.5Q183 162 192.5 149Q202 136 215 128.5Q228 121 244 121Q269 121 283.5 134Q298 147 302 168H453Q448 128 432.5 95.5Q417 63 390 39.5Q363 16 326.5 3Q290 -10 245 -10Q194 -10 152 7.5Q110 25 80.5 55.5Q51 86 34.5 129.5Q18 173 18 225ZM404 498H287L248 553L208 498H92L188 649H308Z" glyph-name="ccircumflex" horiz-adv-x="470" unicode="&#265;" /><glyph d="M18 225Q18 277 34.5 320.5Q51 364 80.5 395Q110 426 152 443Q194 460 245 460Q290 460 326.5 447Q363 434 390 410.5Q417 387 432.5 354.5Q448 322 453 283H302Q298 303 283.5 316.5Q269 330 244 330Q228 330 215 322.5Q202 315 192.5 301.5Q183 288 178 268.5Q173 249 173 225Q173 201 178 181.5Q183 162 192.5 149Q202 136 215 128.5Q228 121 244 121Q269 121 283.5 134Q298 147 302 168H453Q448 128 432.5 95.5Q417 63 390 39.5Q363 16 326.5 3Q290 -10 245 -10Q194 -10 152 7.5Q110 25 80.5 55.5Q51 86 34.5 129.5Q18 173 18 225ZM337 579Q337 540 311 517.5Q285 495 248 495Q212 495 185.5 517.5Q159 540 159 579Q159 619 185.5 641.5Q212 664 248 664Q285 664 311 641.5Q337 619 337 579Z" glyph-name="cdotaccent" horiz-adv-x="470" unicode="&#267;" /><glyph d="M141 -181 209 -40H345L274 -181Z" glyph-name="cedilla" horiz-adv-x="500" unicode="&#184;" /><glyph d="M141 -181 209 -40H345L274 -181Z" glyph-name="cedilla.alt" horiz-adv-x="500" /><glyph d="M18 235Q18 287 34.5 330.5Q51 374 80.5 405Q110 436 152 453Q166 458 181 462V558H309V462Q318 460 327 457Q364 444 390.5 420Q417 396 432.5 363Q448 330 453 290H302Q299 312 284.5 326Q270 340 244 340Q228 340 214.5 332.5Q201 325 192 311.5Q183 298 178 278.5Q173 259 173 235Q173 211 178 191.5Q183 172 192 159Q201 146 214.5 138.5Q228 131 244 131Q270 131 284.5 144.5Q299 158 302 180H453Q448 140 432.5 107Q417 74 390.5 50.5Q364 27 327 13Q318 10 309 7V-85H181V7Q166 11 152 17Q110 35 80.5 65.5Q51 96 34.5 139.5Q18 183 18 235Z" glyph-name="cent" horiz-adv-x="470" unicode="&#162;" /><glyph d="M42 235Q42 287 58.5 330.5Q75 374 104.5 405Q134 436 176 453Q190 458 205 462V558H333V462Q342 460 351 457Q388 444 414.5 420Q441 396 456.5 363Q472 330 477 290H326Q323 312 308.5 326Q294 340 268 340Q252 340 238.5 332.5Q225 325 216 311.5Q207 298 202 278.5Q197 259 197 235Q197 211 202 191.5Q207 172 216 159Q225 146 238.5 138.5Q252 131 268 131Q294 131 308.5 144.5Q323 158 326 180H477Q472 140 456.5 107Q441 74 414.5 50.5Q388 27 351 13Q342 10 333 7V-85H205V7Q190 11 176 17Q134 35 104.5 65.5Q75 96 58.5 139.5Q42 183 42 235Z" glyph-name="cent.lt" horiz-adv-x="520" /><glyph d="M406 498H289L250 553L210 498H94L190 649H310Z" glyph-name="circumflex" horiz-adv-x="500" unicode="&#710;" /><glyph d="M419 666H292L251 711L209 666H82L191 798H310Z" glyph-name="circumflex.cap" horiz-adv-x="500" /><glyph d="M19 352Q19 392 45.5 419Q72 446 111 446Q130 446 147.5 438.5Q165 431 177 418.5Q189 406 196.5 389Q204 372 204 352Q204 332 196.5 315Q189 298 177 285.5Q165 273 147.5 265.5Q130 258 111 258Q92 258 75 265.5Q58 273 46 285.5Q34 298 26.5 315Q19 332 19 352ZM19 87Q19 127 45.5 153.5Q72 180 111 180Q130 180 147.5 173Q165 166 177 153.5Q189 141 196.5 124Q204 107 204 87Q204 67 196.5 50Q189 33 177 20.5Q165 8 147.5 0.5Q130 -7 111 -7Q92 -7 75 0.5Q58 8 46 20.5Q34 33 26.5 50Q19 67 19 87Z" glyph-name="colon" horiz-adv-x="223" unicode=":" /><glyph d="M37 352Q37 392 63.5 419Q90 446 129 446Q148 446 165.5 438.5Q183 431 195 418.5Q207 406 214.5 389Q222 372 222 352Q222 332 214.5 315Q207 298 195 285.5Q183 273 165.5 265.5Q148 258 129 258Q110 258 93 265.5Q76 273 64 285.5Q52 298 44.5 315Q37 332 37 352ZM37 87Q37 127 63.5 153.5Q90 180 129 180Q148 180 165.5 173Q183 166 195 153.5Q207 141 214.5 124Q222 107 222 87Q222 67 214.5 50Q207 33 195 20.5Q183 8 165.5 0.5Q148 -7 129 -7Q110 -7 93 0.5Q76 8 64 20.5Q52 33 44.5 50Q37 67 37 87Z" glyph-name="colon.tab" horiz-adv-x="260" /><glyph d="M87 10Q59 15 39 36Q19 57 19 92Q19 130 45.5 155Q72 180 112 180Q149 180 176.5 155Q204 130 204 82Q204 54 193 28Q182 2 166 -22L111 -105H12Z" glyph-name="comma" horiz-adv-x="223" unicode="," /><glyph d="M105 10Q77 15 57 36Q37 57 37 92Q37 130 63.5 155Q90 180 130 180Q167 180 194.5 155Q222 130 222 82Q222 54 211 28Q200 2 184 -22L129 -105H30Z" glyph-name="comma.tab" horiz-adv-x="260" /><glyph d="M220 -172Q200 -166 185.5 -149Q171 -132 171 -105Q171 -73 194.5 -53Q218 -33 253 -33Q285 -33 309 -53.5Q333 -74 333 -111Q333 -137 322 -157.5Q311 -178 294 -199L265 -236H170Z" glyph-name="commaaccent" horiz-adv-x="500" /><glyph d="M279 629Q299 623 313 605.5Q327 588 327 561Q327 529 304 508.5Q281 488 245 488Q213 488 188.5 509Q164 530 164 567Q164 593 175 614Q186 635 203 656L235 696H331Z" glyph-name="commaturn" horiz-adv-x="500" /><glyph d="M669 307Q669 238 644 180Q619 122 576 79.5Q533 37 475 13.5Q417 -10 352 -10Q287 -10 229 13.5Q171 37 128 79.5Q85 122 60 180Q35 238 35 307Q35 376 60 434Q85 492 128 534.5Q171 577 229 600.5Q287 624 352 624Q417 624 475 600.5Q533 577 576 534.5Q619 492 644 434Q669 376 669 307ZM622 307Q622 366 600.5 415.5Q579 465 542.5 501Q506 537 456.5 557.5Q407 578 352 578Q296 578 247 557.5Q198 537 161.5 501Q125 465 103.5 415.5Q82 366 82 307Q82 248 103.5 198.5Q125 149 161.5 113Q198 77 247 56.5Q296 36 352 36Q407 36 456.5 56.5Q506 77 542.5 113Q579 149 600.5 198.5Q622 248 622 307ZM165 308Q165 352 179 389Q193 426 218 452.5Q243 479 278 493.5Q313 508 355 508Q393 508 422.5 497.5Q452 487 473 468Q494 449 507.5 424Q521 399 526 367H412Q406 388 391.5 398Q377 408 355 408Q317 408 297.5 380Q278 352 278 308Q278 266 297.5 237.5Q317 209 355 209Q377 209 391.5 219Q406 229 412 249H526Q521 219 507.5 193.5Q494 168 473 149.5Q452 131 422.5 120Q393 109 355 109Q313 109 278 123.5Q243 138 218 164.5Q193 191 179 227.5Q165 264 165 308Z" glyph-name="copyright" horiz-adv-x="704" unicode="&#169;" /><glyph d="M329 36Q321 27 309.5 18.5Q298 10 283.5 4Q269 -2 252.5 -6Q236 -10 218 -10Q170 -10 132.5 8.5Q95 27 69.5 59Q44 91 31 134Q18 177 18 225Q18 274 31 316.5Q44 359 69.5 391Q95 423 132.5 441.5Q170 460 218 460Q236 460 252.5 456Q269 452 283.5 446Q298 440 309.5 431.5Q321 423 329 414V650H486V0H329ZM329 284Q321 303 302 314.5Q283 326 261 326Q241 326 224.5 318.5Q208 311 197.5 297.5Q187 284 181 265.5Q175 247 175 225Q175 203 181 184.5Q187 166 197.5 153Q208 140 224.5 132Q241 124 261 124Q285 124 303 135.5Q321 147 329 166Z" glyph-name="d" horiz-adv-x="528" unicode="d" /><glyph d="M24 558H123V650H222V558H321V461H222V276H123V461H24Z" glyph-name="dagger" horiz-adv-x="345" unicode="&#8224;" /><glyph d="M26 429H127V496H26V583H127V650H223V583H324V496H223V429H324V343H223V276H127V343H26Z" glyph-name="daggerdbl" horiz-adv-x="350" unicode="&#8225;" /><glyph d="M329 36Q321 27 309.5 18.5Q298 10 283.5 4Q269 -2 252.5 -6Q236 -10 218 -10Q170 -10 132.5 8.5Q95 27 69.5 59Q44 91 31 134Q18 177 18 225Q18 274 31 316.5Q44 359 69.5 391Q95 423 132.5 441.5Q170 460 218 460Q236 460 252.5 456Q269 452 283.5 446Q298 440 309.5 431.5Q321 423 329 414V650H486V0H329ZM329 284Q321 303 302 314.5Q283 326 261 326Q241 326 224.5 318.5Q208 311 197.5 297.5Q187 284 181 265.5Q175 247 175 225Q175 203 181 184.5Q187 166 197.5 153Q208 140 224.5 132Q241 124 261 124Q285 124 303 135.5Q321 147 329 166ZM517 483 560 650H682L638 483Z" glyph-name="dcaron" horiz-adv-x="528" unicode="&#271;" /><glyph d="M329 36Q321 27 309.5 18.5Q298 10 283.5 4Q269 -2 252.5 -6Q236 -10 218 -10Q170 -10 132.5 8.5Q95 27 69.5 59Q44 91 31 134Q18 177 18 225Q18 274 31 316.5Q44 359 69.5 391Q95 423 132.5 441.5Q170 460 218 460Q236 460 252.5 456Q269 452 283.5 446Q298 440 309.5 431.5Q321 423 329 414V490H247V592H329V650H486V592H534V490H486V0H329ZM329 284Q321 303 302 314.5Q283 326 261 326Q241 326 224.5 318.5Q208 311 197.5 297.5Q187 284 181 265.5Q175 247 175 225Q175 203 181 184.5Q187 166 197.5 153Q208 140 224.5 132Q241 124 261 124Q285 124 303 135.5Q321 147 329 166Z" glyph-name="dcroat" horiz-adv-x="529" unicode="&#273;" /><glyph d="M125 483Q125 459 141.5 441.5Q158 424 181 424Q204 424 220.5 441.5Q237 459 237 483Q237 507 220.5 524Q204 541 181 541Q158 541 141.5 524Q125 507 125 483ZM320 483Q320 454 309 428Q298 402 279 383Q260 364 234.5 353Q209 342 181 342Q153 342 127.5 353Q102 364 83 383Q64 402 53 428Q42 454 42 483Q42 512 53 538Q64 564 83 583Q102 602 127.5 613Q153 624 181 624Q209 624 234.5 613Q260 602 279 583Q298 564 309 538Q320 512 320 483Z" glyph-name="degree" horiz-adv-x="362" unicode="&#176;" /><glyph d="M84 567Q84 599 106.5 621.5Q129 644 161 644Q177 644 191 638Q205 632 215.5 621.5Q226 611 232 597Q238 583 238 567Q238 535 215 513Q192 491 161 491Q129 491 106.5 513Q84 535 84 567ZM261 567Q261 599 283.5 621.5Q306 644 337 644Q353 644 367 638Q381 632 391.5 621.5Q402 611 408.5 597Q415 583 415 567Q415 535 392 513Q369 491 337 491Q306 491 283.5 513Q261 535 261 567Z" glyph-name="dieresis" horiz-adv-x="500" unicode="&#168;" /><glyph d="M80 734Q80 767 102.5 790Q125 813 159 813Q192 813 215 790Q238 767 238 734Q238 701 215 678Q192 655 159 655Q125 655 102.5 678Q80 701 80 734ZM261 734Q261 767 284 790Q307 813 340 813Q372 813 395.5 790Q419 767 419 734Q419 701 395.5 678Q372 655 340 655Q307 655 284 678Q261 701 261 734Z" glyph-name="dieresis.cap" horiz-adv-x="500" /><glyph d="M51 357H504V241H51ZM197 479Q197 512 220.5 535Q244 558 278 558Q312 558 335.5 535Q359 512 359 479Q359 446 335.5 423Q312 400 278 400Q244 400 220.5 423Q197 446 197 479ZM197 119Q197 152 220.5 175Q244 198 278 198Q312 198 335.5 175Q359 152 359 119Q359 86 335.5 63Q312 40 278 40Q244 40 220.5 63Q197 86 197 119Z" glyph-name="divide" horiz-adv-x="555" unicode="&#247;" /><glyph d="M33 357H486V241H33ZM179 479Q179 512 202.5 535Q226 558 260 558Q294 558 317.5 535Q341 512 341 479Q341 446 317.5 423Q294 400 260 400Q226 400 202.5 423Q179 446 179 479ZM179 119Q179 152 202.5 175Q226 198 260 198Q294 198 317.5 175Q341 152 341 119Q341 86 317.5 63Q294 40 260 40Q226 40 202.5 63Q179 86 179 119Z" glyph-name="divide.lt" horiz-adv-x="520" /><glyph d="M337 435Q328 458 307 472.5Q286 487 253 487Q237 487 224 483Q211 479 202.5 472.5Q194 466 189 457Q184 448 184 437Q184 427 187.5 419.5Q191 412 197 406Q203 400 212 396.5Q221 393 232 390L341 362Q415 344 454 302Q493 260 493 190Q493 146 475.5 111Q458 76 428 52.5Q398 29 356 16Q342 11 327 8V-86H199V9Q143 20 101 50Q35 97 20 184H176Q186 155 209.5 141Q233 127 267 127Q283 127 296 131Q309 135 318.5 141.5Q328 148 333 158Q338 168 338 180Q338 203 323.5 214Q309 225 278 232L180 256Q148 263 121 275.5Q94 288 74 308Q54 328 42.5 356Q31 384 31 423Q31 465 47.5 499.5Q64 534 93.5 558.5Q123 583 163 596Q180 602 199 605V696H327V601Q336 599 344 597Q384 584 413 561.5Q442 539 460 506.5Q478 474 486 435Z" glyph-name="dollar" horiz-adv-x="518" unicode="$" /><glyph d="M341 435Q332 458 311 472.5Q290 487 257 487Q241 487 228 483Q215 479 206.5 472.5Q198 466 193 457Q188 448 188 437Q188 427 191.5 419.5Q195 412 201 406Q207 400 216 396.5Q225 393 236 390L345 362Q419 344 458 302Q497 260 497 190Q497 146 479.5 111Q462 76 432 52.5Q402 29 360 16Q346 11 331 8V-86H203V9Q147 20 105 50Q39 97 24 184H180Q190 155 213.5 141Q237 127 271 127Q287 127 300 131Q313 135 322.5 141.5Q332 148 337 158Q342 168 342 180Q342 203 327.5 214Q313 225 282 232L184 256Q152 263 125 275.5Q98 288 78 308Q58 328 46.5 356Q35 384 35 423Q35 465 51.5 499.5Q68 534 97.5 558.5Q127 583 167 596Q184 602 203 605V696H331V601Q340 599 348 597Q388 584 417 561.5Q446 539 464 506.5Q482 474 490 435Z" glyph-name="dollar.lt" horiz-adv-x="520" /><glyph d="M339 579Q339 540 313 517.5Q287 495 250 495Q214 495 187.5 517.5Q161 540 161 579Q161 619 187.5 641.5Q214 664 250 664Q287 664 313 641.5Q339 619 339 579Z" glyph-name="dotaccent" horiz-adv-x="500" unicode="&#729;" /><glyph d="M339 743Q339 703 313 680.5Q287 658 250 658Q214 658 187.5 680.5Q161 703 161 743Q161 782 187.5 804.5Q214 827 250 827Q287 827 313 804.5Q339 782 339 743Z" glyph-name="dotaccent.cap" horiz-adv-x="500" /><glyph d="M336 -115Q336 -153 310.5 -175Q285 -197 250 -197Q214 -197 188.5 -175Q163 -153 163 -115Q163 -76 188.5 -54.5Q214 -33 250 -33Q285 -33 310.5 -54.5Q336 -76 336 -115Z" glyph-name="dotbelow" horiz-adv-x="500" /><glyph d="M199 0H42V450H199Z" glyph-name="dotlessi" horiz-adv-x="241" unicode="&#305;" /><glyph d="M200 11Q200 -75 156.5 -122Q113 -169 28 -169Q11 -169 -3.5 -167.5Q-18 -166 -29 -162V-43Q-24 -45 -18.5 -45.5Q-13 -46 -6 -46Q6 -46 15.5 -43.5Q25 -41 30.5 -35Q36 -29 39.5 -19.5Q43 -10 43 4V450H200Z" glyph-name="dotlessj" horiz-adv-x="242" unicode="&#567;" /><glyph d="M458 157Q446 79 391 34.5Q336 -10 246 -10Q194 -10 152 7Q110 24 80.5 55Q51 86 34.5 129.5Q18 173 18 225Q18 277 35 320.5Q52 364 82 395Q112 426 153.5 443Q195 460 244 460Q296 460 336 443.5Q376 427 403.5 397.5Q431 368 445.5 326.5Q460 285 460 234V195H169Q171 174 177 159Q183 144 193 133.5Q203 123 216.5 117.5Q230 112 246 112Q270 112 288 123Q306 134 312 157ZM244 338Q230 338 218.5 333.5Q207 329 198 321Q189 313 182.5 300.5Q176 288 172 273H308Q307 286 302.5 298Q298 310 289.5 319Q281 328 270 333Q259 338 244 338Z" glyph-name="e" horiz-adv-x="478" unicode="e" /><glyph d="M458 157Q446 79 391 34.5Q336 -10 246 -10Q194 -10 152 7Q110 24 80.5 55Q51 86 34.5 129.5Q18 173 18 225Q18 277 35 320.5Q52 364 82 395Q112 426 153.5 443Q195 460 244 460Q296 460 336 443.5Q376 427 403.5 397.5Q431 368 445.5 326.5Q460 285 460 234V195H169Q171 174 177 159Q183 144 193 133.5Q203 123 216.5 117.5Q230 112 246 112Q270 112 288 123Q306 134 312 157ZM244 338Q230 338 218.5 333.5Q207 329 198 321Q189 313 182.5 300.5Q176 288 172 273H308Q307 286 302.5 298Q298 310 289.5 319Q281 328 270 333Q259 338 244 338ZM172 500 254 650H403L316 500Z" glyph-name="eacute" horiz-adv-x="478" unicode="&#233;" /><glyph d="M458 157Q446 79 391 34.5Q336 -10 246 -10Q194 -10 152 7Q110 24 80.5 55Q51 86 34.5 129.5Q18 173 18 225Q18 277 35 320.5Q52 364 82 395Q112 426 153.5 443Q195 460 244 460Q296 460 336 443.5Q376 427 403.5 397.5Q431 368 445.5 326.5Q460 285 460 234V195H169Q171 174 177 159Q183 144 193 133.5Q203 123 216.5 117.5Q230 112 246 112Q270 112 288 123Q306 134 312 157ZM244 338Q230 338 218.5 333.5Q207 329 198 321Q189 313 182.5 300.5Q176 288 172 273H308Q307 286 302.5 298Q298 310 289.5 319Q281 328 270 333Q259 338 244 338ZM250 488Q219 488 193 497.5Q167 507 147.5 526Q128 545 117.5 573Q107 601 107 638H215Q215 616 224 603.5Q233 591 250 591Q269 591 277.5 603.5Q286 616 286 638H394Q394 601 383.5 573Q373 545 353.5 526Q334 507 308 497.5Q282 488 250 488Z" glyph-name="ebreve" horiz-adv-x="478" unicode="&#277;" /><glyph d="M458 157Q446 79 391 34.5Q336 -10 246 -10Q194 -10 152 7Q110 24 80.5 55Q51 86 34.5 129.5Q18 173 18 225Q18 277 35 320.5Q52 364 82 395Q112 426 153.5 443Q195 460 244 460Q296 460 336 443.5Q376 427 403.5 397.5Q431 368 445.5 326.5Q460 285 460 234V195H169Q171 174 177 159Q183 144 193 133.5Q203 123 216.5 117.5Q230 112 246 112Q270 112 288 123Q306 134 312 157ZM244 338Q230 338 218.5 333.5Q207 329 198 321Q189 313 182.5 300.5Q176 288 172 273H308Q307 286 302.5 298Q298 310 289.5 319Q281 328 270 333Q259 338 244 338ZM310 498H190L94 649H210L250 594L289 649H406Z" glyph-name="ecaron" horiz-adv-x="478" unicode="&#283;" /><glyph d="M458 157Q446 79 391 34.5Q336 -10 246 -10Q194 -10 152 7Q110 24 80.5 55Q51 86 34.5 129.5Q18 173 18 225Q18 277 35 320.5Q52 364 82 395Q112 426 153.5 443Q195 460 244 460Q296 460 336 443.5Q376 427 403.5 397.5Q431 368 445.5 326.5Q460 285 460 234V195H169Q171 174 177 159Q183 144 193 133.5Q203 123 216.5 117.5Q230 112 246 112Q270 112 288 123Q306 134 312 157ZM244 338Q230 338 218.5 333.5Q207 329 198 321Q189 313 182.5 300.5Q176 288 172 273H308Q307 286 302.5 298Q298 310 289.5 319Q281 328 270 333Q259 338 244 338ZM406 498H289L250 553L210 498H94L190 649H310Z" glyph-name="ecircumflex" horiz-adv-x="478" unicode="&#234;" /><glyph d="M458 157Q446 79 391 34.5Q336 -10 246 -10Q194 -10 152 7Q110 24 80.5 55Q51 86 34.5 129.5Q18 173 18 225Q18 277 35 320.5Q52 364 82 395Q112 426 153.5 443Q195 460 244 460Q296 460 336 443.5Q376 427 403.5 397.5Q431 368 445.5 326.5Q460 285 460 234V195H169Q171 174 177 159Q183 144 193 133.5Q203 123 216.5 117.5Q230 112 246 112Q270 112 288 123Q306 134 312 157ZM244 338Q230 338 218.5 333.5Q207 329 198 321Q189 313 182.5 300.5Q176 288 172 273H308Q307 286 302.5 298Q298 310 289.5 319Q281 328 270 333Q259 338 244 338ZM84 567Q84 599 106.5 621.5Q129 644 161 644Q177 644 191 638Q205 632 215.5 621.5Q226 611 232 597Q238 583 238 567Q238 535 215 513Q192 491 161 491Q129 491 106.5 513Q84 535 84 567ZM261 567Q261 599 283.5 621.5Q306 644 337 644Q353 644 367 638Q381 632 391.5 621.5Q402 611 408.5 597Q415 583 415 567Q415 535 392 513Q369 491 337 491Q306 491 283.5 513Q261 535 261 567Z" glyph-name="edieresis" horiz-adv-x="478" unicode="&#235;" /><glyph d="M458 157Q446 79 391 34.5Q336 -10 246 -10Q194 -10 152 7Q110 24 80.5 55Q51 86 34.5 129.5Q18 173 18 225Q18 277 35 320.5Q52 364 82 395Q112 426 153.5 443Q195 460 244 460Q296 460 336 443.5Q376 427 403.5 397.5Q431 368 445.5 326.5Q460 285 460 234V195H169Q171 174 177 159Q183 144 193 133.5Q203 123 216.5 117.5Q230 112 246 112Q270 112 288 123Q306 134 312 157ZM244 338Q230 338 218.5 333.5Q207 329 198 321Q189 313 182.5 300.5Q176 288 172 273H308Q307 286 302.5 298Q298 310 289.5 319Q281 328 270 333Q259 338 244 338ZM339 579Q339 540 313 517.5Q287 495 250 495Q214 495 187.5 517.5Q161 540 161 579Q161 619 187.5 641.5Q214 664 250 664Q287 664 313 641.5Q339 619 339 579Z" glyph-name="edotaccent" horiz-adv-x="478" unicode="&#279;" /><glyph d="M458 157Q446 79 391 34.5Q336 -10 246 -10Q194 -10 152 7Q110 24 80.5 55Q51 86 34.5 129.5Q18 173 18 225Q18 277 35 320.5Q52 364 82 395Q112 426 153.5 443Q195 460 244 460Q296 460 336 443.5Q376 427 403.5 397.5Q431 368 445.5 326.5Q460 285 460 234V195H169Q171 174 177 159Q183 144 193 133.5Q203 123 216.5 117.5Q230 112 246 112Q270 112 288 123Q306 134 312 157ZM244 338Q230 338 218.5 333.5Q207 329 198 321Q189 313 182.5 300.5Q176 288 172 273H308Q307 286 302.5 298Q298 310 289.5 319Q281 328 270 333Q259 338 244 338ZM182 500 95 650H244L326 500Z" glyph-name="egrave" horiz-adv-x="478" unicode="&#232;" /><glyph d="M255 114Q271 114 285 118.5Q299 123 309.5 132.5Q320 142 326 154Q332 166 332 182Q332 198 326 210.5Q320 223 309.5 231.5Q299 240 285 245Q271 250 255 250Q238 250 224 245Q210 240 199.5 231.5Q189 223 183 210.5Q177 198 177 182Q177 166 183 154Q189 142 199.5 132.5Q210 123 224 118.5Q238 114 255 114ZM255 378Q269 378 281.5 382Q294 386 303.5 394.5Q313 403 318 414.5Q323 426 323 440Q323 455 318 466.5Q313 478 303.5 486.5Q294 495 281.5 499.5Q269 504 255 504Q240 504 227.5 499.5Q215 495 206 486.5Q197 478 191.5 466.5Q186 455 186 440Q186 426 191.5 414.5Q197 403 206 394.5Q215 386 227.5 382Q240 378 255 378ZM255 -10Q207 -10 164.5 2Q122 14 90.5 37.5Q59 61 41 94Q23 127 23 170Q23 197 30.5 219.5Q38 242 51.5 260.5Q65 279 83 291.5Q101 304 122 312Q85 330 64 365Q43 400 43 445Q43 488 60 521.5Q77 555 106.5 578Q136 601 174 612.5Q212 624 255 624Q297 624 335.5 612.5Q374 601 403 578Q432 555 449.5 521.5Q467 488 467 445Q467 400 445.5 365Q424 330 387 312Q408 304 426 291.5Q444 279 457.5 260.5Q471 242 478.5 219.5Q486 197 486 170Q486 127 468 94Q450 61 418.5 37.5Q387 14 344.5 2Q302 -10 255 -10Z" glyph-name="eight" horiz-adv-x="509" unicode="8" /><glyph d="M260 114Q277 114 291.5 118.5Q306 123 316.5 132.5Q327 142 333 154Q339 166 339 182Q339 198 333 210.5Q327 223 316.5 231.5Q306 240 291.5 245Q277 250 260 250Q244 250 229.5 245Q215 240 204.5 231.5Q194 223 188 210.5Q182 198 182 182Q182 166 188 154Q194 142 204.5 132.5Q215 123 229.5 118.5Q244 114 260 114ZM260 378Q275 378 288 382Q301 386 310.5 394.5Q320 403 325.5 414.5Q331 426 331 440Q331 455 325.5 466.5Q320 478 310.5 486.5Q301 495 288 499.5Q275 504 260 504Q246 504 233 499.5Q220 495 211 486.5Q202 478 196.5 466.5Q191 455 191 440Q191 426 196.5 414.5Q202 403 211 394.5Q220 386 233 382Q246 378 260 378ZM260 -10Q212 -10 169.5 2Q127 14 95.5 37.5Q64 61 46 94Q28 127 28 170Q28 197 36 219.5Q44 242 57 260.5Q70 279 88 291.5Q106 304 127 312Q90 330 69 365Q48 400 48 445Q48 488 65 521.5Q82 555 111.5 578Q141 601 179.5 612.5Q218 624 260 624Q303 624 341.5 612.5Q380 601 409 578Q438 555 455.5 521.5Q473 488 473 445Q473 400 452 365Q431 330 394 312Q414 304 432.5 291.5Q451 279 464 260.5Q477 242 485 219.5Q493 197 493 170Q493 127 475 94Q457 61 425.5 37.5Q394 14 351.5 2Q309 -10 260 -10Z" glyph-name="eight.lt" horiz-adv-x="520" /><glyph d="M19 87Q19 127 45.5 153.5Q72 180 111 180Q130 180 147.5 173Q165 166 177 153.5Q189 141 196.5 124Q204 107 204 87Q204 67 196.5 50Q189 33 177 20.5Q165 8 147.5 0.5Q130 -7 111 -7Q92 -7 75 0.5Q58 8 46 20.5Q34 33 26.5 50Q19 67 19 87ZM262 87Q262 127 288.5 153.5Q315 180 355 180Q374 180 391 173Q408 166 420 153.5Q432 141 439.5 124Q447 107 447 87Q447 67 439.5 50Q432 33 420 20.5Q408 8 391 0.5Q374 -7 355 -7Q335 -7 318.5 0.5Q302 8 289.5 20.5Q277 33 269.5 50Q262 67 262 87ZM506 87Q506 127 532.5 153.5Q559 180 598 180Q617 180 634.5 173Q652 166 664 153.5Q676 141 683.5 124Q691 107 691 87Q691 67 683.5 50Q676 33 664 20.5Q652 8 634.5 0.5Q617 -7 598 -7Q579 -7 562 0.5Q545 8 533 20.5Q521 33 513.5 50Q506 67 506 87Z" glyph-name="ellipsis" horiz-adv-x="710" unicode="&#8230;" /><glyph d="M458 157Q446 79 391 34.5Q336 -10 246 -10Q194 -10 152 7Q110 24 80.5 55Q51 86 34.5 129.5Q18 173 18 225Q18 277 35 320.5Q52 364 82 395Q112 426 153.5 443Q195 460 244 460Q296 460 336 443.5Q376 427 403.5 397.5Q431 368 445.5 326.5Q460 285 460 234V195H169Q171 174 177 159Q183 144 193 133.5Q203 123 216.5 117.5Q230 112 246 112Q270 112 288 123Q306 134 312 157ZM244 338Q230 338 218.5 333.5Q207 329 198 321Q189 313 182.5 300.5Q176 288 172 273H308Q307 286 302.5 298Q298 310 289.5 319Q281 328 270 333Q259 338 244 338ZM123 613H376V504H123Z" glyph-name="emacron" horiz-adv-x="478" unicode="&#275;" /><glyph d="M36 315H802V208H36Z" glyph-name="emdash" horiz-adv-x="838" unicode="&#8212;" /><glyph d="M36 348H802V242H36Z" glyph-name="emdash.cap" horiz-adv-x="838" /><glyph d="M36 315H431V208H36Z" glyph-name="endash" horiz-adv-x="467" unicode="&#8211;" /><glyph d="M36 348H431V242H36Z" glyph-name="endash.cap" horiz-adv-x="467" /><glyph d="M322 257Q322 285 307.5 303Q293 321 264 321Q252 321 241.5 317.5Q231 314 222.5 307.5Q214 301 208 292Q202 283 199 272V0H42V450H199V412Q218 433 249.5 446.5Q281 460 320 460Q395 460 437 415.5Q479 371 479 295V11Q479 -75 435.5 -122Q392 -169 308 -169Q290 -169 276 -167.5Q262 -166 250 -162V-43Q255 -45 261 -45.5Q267 -46 274 -46Q286 -46 295 -43.5Q304 -41 310 -35Q316 -29 319 -19.5Q322 -10 322 4Z" glyph-name="eng" horiz-adv-x="519" unicode="&#331;" /><glyph d="M334 -29Q317 -54 317 -74Q317 -83 322.5 -88Q328 -93 338 -93Q346 -93 353.5 -90Q361 -87 373 -79V-166Q360 -174 344.5 -179.5Q329 -185 308 -185Q288 -185 271 -179.5Q254 -174 241.5 -164Q229 -154 222 -139.5Q215 -125 215 -105Q215 -79 228 -56Q234 -44 264 -9L246 -10Q194 -10 152 7Q110 24 80.5 55Q51 86 34.5 129.5Q18 173 18 225Q18 277 35 320.5Q52 364 82 395Q112 426 153.5 443Q195 460 244 460Q296 460 336 443.5Q376 427 403.5 397.5Q431 368 445.5 326.5Q460 285 460 234V195H169Q171 174 177 159Q183 144 193 133.5Q203 123 216.5 117.5Q230 112 246 112Q270 112 288 123Q306 134 312 157H458Q453 118 435.5 87.5Q418 57 391 33Q365 9 349 -10Q337 -24 334 -29ZM244 338Q230 338 218.5 333.5Q207 329 198 321Q189 313 182.5 300.5Q176 288 172 273H308Q307 286 302.5 298Q298 310 289.5 319Q281 328 270 333Q259 338 244 338Z" glyph-name="eogonek" horiz-adv-x="478" unicode="&#281;" /><glyph d="M60 261H513V158H60ZM60 445H513V340H60Z" glyph-name="equal" horiz-adv-x="573" unicode="=" /><glyph d="M33 261H486V158H33ZM33 445H486V340H33Z" glyph-name="equal.lt" horiz-adv-x="520" /><glyph d="M107 542 168 561Q151 575 132 590Q96 619 58 646V650H251Q281 627 306 604L386 629L410 563L362 548Q397 507 421 463Q449 412 463.5 357Q478 302 478 242Q478 183 461 136.5Q444 90 414 57.5Q384 25 341.5 7.5Q299 -10 248 -10Q197 -10 154.5 7Q112 24 82 55Q52 86 35 129Q18 172 18 224Q18 276 34.5 318.5Q51 361 80.5 391Q110 421 150.5 437.5Q191 454 239 454Q253 454 264.5 450Q276 446 284 440H287Q276 459 253 483Q242 495 230 506L133 476ZM324 223Q324 246 319 265.5Q314 285 304 298.5Q294 312 280 319.5Q266 327 248 327Q230 327 216 319.5Q202 312 192.5 298.5Q183 285 178 265.5Q173 246 173 223Q173 201 178 181.5Q183 162 192.5 148.5Q202 135 216 127.5Q230 120 248 120Q266 120 280 127.5Q294 135 304 148.5Q314 162 319 181.5Q324 201 324 223Z" glyph-name="eth" horiz-adv-x="496" unicode="&#240;" /><glyph d="M26 82Q26 100 33.5 116.5Q41 133 53.5 145Q66 157 83 163.5Q100 170 119 170Q139 170 156 163.5Q173 157 185.5 145Q198 133 205.5 116.5Q213 100 213 82Q213 63 205.5 46.5Q198 30 185.5 18.5Q173 7 156 0Q139 -7 119 -7Q100 -7 83 0Q66 7 53.5 18.5Q41 30 33.5 46.5Q26 63 26 82ZM24 614H215L180 206H59Z" glyph-name="exclam" horiz-adv-x="239" unicode="!" /><glyph d="M59 312H180L215 -96H24ZM26 436Q26 455 33.5 471.5Q41 488 53.5 499.5Q66 511 83 518Q100 525 119 525Q139 525 156 518Q173 511 185.5 499.5Q198 488 205.5 471.5Q213 455 213 436Q213 418 205.5 401.5Q198 385 185.5 373Q173 361 156 354.5Q139 348 119 348Q100 348 83 354.5Q66 361 53.5 373Q41 385 33.5 401.5Q26 418 26 436Z" glyph-name="exclamdown" horiz-adv-x="243" unicode="&#161;" /><glyph d="M59 408H180L215 0H24ZM26 532Q26 551 33.5 567.5Q41 584 53.5 595.5Q66 607 83 614Q100 621 119 621Q139 621 156 614Q173 607 185.5 595.5Q198 584 205.5 567.5Q213 551 213 532Q213 514 205.5 497.5Q198 481 185.5 469Q173 457 156 450.5Q139 444 119 444Q100 444 83 450.5Q66 457 53.5 469Q41 481 33.5 497.5Q26 514 26 532Z" glyph-name="exclamdown.cap" horiz-adv-x="239" /><glyph d="M329 519Q320 524 311 526Q302 528 291 528Q265 528 250.5 514.5Q236 501 236 474V450H322V327H236V0H80V327H13V450H80V483Q80 524 92 556Q104 588 126 611Q148 634 181 646.5Q214 659 255 659Q278 659 296 655.5Q314 652 329 647Z" glyph-name="f" horiz-adv-x="339" unicode="f" /><glyph d="M630 519Q621 524 612 526Q603 528 592 528Q567 528 552 514.5Q537 501 537 474V450H623V327H537V0H381V327H236V0H80V327H13V450H80V477Q80 518 92 550Q104 582 126 605Q148 628 181 640.5Q214 653 255 653Q278 653 296 649.5Q314 646 329 641V513Q320 518 311 520Q302 522 291 522Q267 522 251.5 509.5Q236 497 236 472V450H381V483Q381 524 393 556Q405 588 427.5 611Q450 634 482.5 646.5Q515 659 556 659Q579 659 597 655.5Q615 652 630 647Z" glyph-name="f_f" horiz-adv-x="640" unicode="&#64256;" /><glyph d="M252 279Q229 279 212 270Q195 261 182 247H52V614H430V477H181V385Q195 393 219.5 400Q244 407 274 407Q321 407 358 392Q395 377 421 350Q447 323 461 285.5Q475 248 475 202Q475 155 459 115.5Q443 76 414.5 48Q386 20 345 5Q304 -10 254 -10Q202 -10 160 5Q118 20 88.5 47Q59 74 41 112.5Q23 151 20 197H177Q180 164 200 144.5Q220 125 255 125Q271 125 284.5 130.5Q298 136 307 146Q316 156 321 170.5Q326 185 326 202Q326 218 321.5 232Q317 246 307 256.5Q297 267 283 273Q269 279 252 279Z" glyph-name="five" horiz-adv-x="497" unicode="5" /><glyph d="M266 278Q244 278 225 269Q206 260 193 247H59V614H444V477H190V385Q204 393 229.5 400Q255 407 282 407Q330 407 368.5 392Q407 377 434 350Q461 323 475 285.5Q489 248 489 202Q489 155 473 115.5Q457 76 428 48Q399 20 357.5 5Q316 -10 266 -10Q213 -10 170.5 5Q128 20 98 47Q68 74 50 112.5Q32 151 29 197H189Q192 167 213 146.5Q234 126 268 126Q284 126 297 131.5Q310 137 319.5 147.5Q329 158 334.5 171.5Q340 185 340 202Q340 218 335 231.5Q330 245 320.5 256Q311 267 297 272.5Q283 278 266 278Z" glyph-name="five.lt" horiz-adv-x="520" /><glyph d="M47 356H127L143 449Q159 536 205 580Q251 624 331 624Q352 624 371 620.5Q390 617 404 612V484Q395 489 384.5 491Q374 493 361 493Q336 493 321 479.5Q306 466 302 440L287 356H365V234H265L226 13Q219 -28 206.5 -60.5Q194 -93 173 -116Q152 -139 121.5 -151Q91 -163 48 -163Q25 -163 5.5 -159.5Q-14 -156 -28 -151V-37Q-19 -41 -7.5 -43.5Q4 -46 14 -46Q38 -46 49.5 -32.5Q61 -19 66 8L105 234H47Z" glyph-name="florin" horiz-adv-x="420" unicode="&#402;" /><glyph d="M119 356H199L215 449Q231 536 277 580Q323 624 403 624Q424 624 443 620.5Q462 617 476 612V484Q467 489 456.5 491Q446 493 433 493Q408 493 393 479.5Q378 466 374 440L359 356H437V234H337L298 13Q291 -28 278.5 -60.5Q266 -93 245 -116Q224 -139 193.5 -151Q163 -163 120 -163Q97 -163 77.5 -159.5Q58 -156 44 -151V-37Q53 -41 64.5 -43.5Q76 -46 86 -46Q110 -46 121.5 -32.5Q133 -19 138 8L177 234H119Z" glyph-name="florin.lt" horiz-adv-x="520" /><glyph d="M188 244H285V348H423V244H507V114H423V0H285V114H18V232L204 614H357Z" glyph-name="four" horiz-adv-x="524" unicode="4" /><glyph d="M183 244H280V348H421V244H501V114H421V0H283V114H16V232L202 614H352Z" glyph-name="four.lt" horiz-adv-x="520" /><glyph d="M-33 0H-120L249 614H336Z" glyph-name="fraction" horiz-adv-x="216" unicode="&#8260;" /><glyph d="M323 63Q316 54 305.5 46.5Q295 39 281.5 33Q268 27 251.5 23Q235 19 217 19Q169 19 132 36Q95 53 70 83Q45 113 31.5 153Q18 193 18 240Q18 286 31.5 326.5Q45 367 70 397Q95 427 132 443.5Q169 460 217 460Q235 460 251.5 456.5Q268 453 281.5 447Q295 441 305.5 433Q316 425 323 416V450H479V65Q479 6 461.5 -38Q444 -82 413 -111Q382 -140 339 -154.5Q296 -169 245 -169Q200 -169 162 -158.5Q124 -148 95 -126.5Q66 -105 47.5 -75Q29 -45 23 -6H174Q180 -30 198 -42Q216 -54 245 -54Q282 -54 302.5 -33.5Q323 -13 323 31ZM323 298Q315 313 297 324.5Q279 336 256 336Q236 336 221 329Q206 322 195 309Q184 296 178.5 278.5Q173 261 173 240Q173 219 178.5 201Q184 183 195 170.5Q206 158 221 151Q236 144 256 144Q279 144 297 155Q315 166 323 182Z" glyph-name="g" horiz-adv-x="521" unicode="g" /><glyph d="M323 63Q316 54 305.5 46.5Q295 39 281.5 33Q268 27 251.5 23Q235 19 217 19Q169 19 132 36Q95 53 70 83Q45 113 31.5 153Q18 193 18 240Q18 286 31.5 326.5Q45 367 70 397Q95 427 132 443.5Q169 460 217 460Q235 460 251.5 456.5Q268 453 281.5 447Q295 441 305.5 433Q316 425 323 416V450H479V65Q479 6 461.5 -38Q444 -82 413 -111Q382 -140 339 -154.5Q296 -169 245 -169Q200 -169 162 -158.5Q124 -148 95 -126.5Q66 -105 47.5 -75Q29 -45 23 -6H174Q180 -30 198 -42Q216 -54 245 -54Q282 -54 302.5 -33.5Q323 -13 323 31ZM323 298Q315 313 297 324.5Q279 336 256 336Q236 336 221 329Q206 322 195 309Q184 296 178.5 278.5Q173 261 173 240Q173 219 178.5 201Q184 183 195 170.5Q206 158 221 151Q236 144 256 144Q279 144 297 155Q315 166 323 182ZM278 488Q247 488 221 497.5Q195 507 175.5 526Q156 545 145.5 573Q135 601 135 638H243Q243 616 252 603.5Q261 591 278 591Q297 591 305.5 603.5Q314 616 314 638H422Q422 601 411.5 573Q401 545 381.5 526Q362 507 336 497.5Q310 488 278 488Z" glyph-name="gbreve" horiz-adv-x="521" unicode="&#287;" /><glyph d="M323 63Q316 54 305.5 46.5Q295 39 281.5 33Q268 27 251.5 23Q235 19 217 19Q169 19 132 36Q95 53 70 83Q45 113 31.5 153Q18 193 18 240Q18 286 31.5 326.5Q45 367 70 397Q95 427 132 443.5Q169 460 217 460Q235 460 251.5 456.5Q268 453 281.5 447Q295 441 305.5 433Q316 425 323 416V450H479V65Q479 6 461.5 -38Q444 -82 413 -111Q382 -140 339 -154.5Q296 -169 245 -169Q200 -169 162 -158.5Q124 -148 95 -126.5Q66 -105 47.5 -75Q29 -45 23 -6H174Q180 -30 198 -42Q216 -54 245 -54Q282 -54 302.5 -33.5Q323 -13 323 31ZM323 298Q315 313 297 324.5Q279 336 256 336Q236 336 221 329Q206 322 195 309Q184 296 178.5 278.5Q173 261 173 240Q173 219 178.5 201Q184 183 195 170.5Q206 158 221 151Q236 144 256 144Q279 144 297 155Q315 166 323 182ZM435 498H318L279 553L239 498H123L219 649H339Z" glyph-name="gcircumflex" horiz-adv-x="521" unicode="&#285;" /><glyph d="M323 63Q316 54 305.5 46.5Q295 39 281.5 33Q268 27 251.5 23Q235 19 217 19Q169 19 132 36Q95 53 70 83Q45 113 31.5 153Q18 193 18 240Q18 286 31.5 326.5Q45 367 70 397Q95 427 132 443.5Q169 460 217 460Q235 460 251.5 456.5Q268 453 281.5 447Q295 441 305.5 433Q316 425 323 416V450H479V65Q479 6 461.5 -38Q444 -82 413 -111Q382 -140 339 -154.5Q296 -169 245 -169Q200 -169 162 -158.5Q124 -148 95 -126.5Q66 -105 47.5 -75Q29 -45 23 -6H174Q180 -30 198 -42Q216 -54 245 -54Q282 -54 302.5 -33.5Q323 -13 323 31ZM323 298Q315 313 297 324.5Q279 336 256 336Q236 336 221 329Q206 322 195 309Q184 296 178.5 278.5Q173 261 173 240Q173 219 178.5 201Q184 183 195 170.5Q206 158 221 151Q236 144 256 144Q279 144 297 155Q315 166 323 182ZM309 629Q329 623 343 605.5Q357 588 357 561Q357 529 334 508.5Q311 488 275 488Q243 488 218.5 509Q194 530 194 567Q194 593 205 614Q216 635 233 656L265 696H361Z" glyph-name="gcommaaccent" horiz-adv-x="521" unicode="&#291;" /><glyph d="M323 63Q316 54 305.5 46.5Q295 39 281.5 33Q268 27 251.5 23Q235 19 217 19Q169 19 132 36Q95 53 70 83Q45 113 31.5 153Q18 193 18 240Q18 286 31.5 326.5Q45 367 70 397Q95 427 132 443.5Q169 460 217 460Q235 460 251.5 456.5Q268 453 281.5 447Q295 441 305.5 433Q316 425 323 416V450H479V65Q479 6 461.5 -38Q444 -82 413 -111Q382 -140 339 -154.5Q296 -169 245 -169Q200 -169 162 -158.5Q124 -148 95 -126.5Q66 -105 47.5 -75Q29 -45 23 -6H174Q180 -30 198 -42Q216 -54 245 -54Q282 -54 302.5 -33.5Q323 -13 323 31ZM323 298Q315 313 297 324.5Q279 336 256 336Q236 336 221 329Q206 322 195 309Q184 296 178.5 278.5Q173 261 173 240Q173 219 178.5 201Q184 183 195 170.5Q206 158 221 151Q236 144 256 144Q279 144 297 155Q315 166 323 182ZM368 579Q368 540 342 517.5Q316 495 279 495Q243 495 216.5 517.5Q190 540 190 579Q190 619 216.5 641.5Q243 664 279 664Q316 664 342 641.5Q368 619 368 579Z" glyph-name="gdotaccent" horiz-adv-x="521" unicode="&#289;" /><glyph d="M414 355Q437 347 457 331.5Q477 316 492 295Q507 274 515.5 247Q524 220 524 188Q524 142 509 106Q494 70 468 45.5Q442 21 405.5 8Q369 -5 326 -5Q303 -5 285 -3Q267 -1 247 6V130Q255 127 268 125Q281 123 296 123Q333 123 354 143Q375 163 375 202Q375 221 368.5 235.5Q362 250 349.5 260Q337 270 319.5 275Q302 280 279 280H251V402H268Q282 402 294 406Q306 410 314.5 418Q323 426 327.5 437.5Q332 449 332 465Q332 492 315 509Q298 526 267 526Q232 526 215 502Q198 478 198 442V0H42V432Q42 484 57.5 526Q73 568 102.5 597.5Q132 627 173.5 643Q215 659 267 659Q319 659 358.5 645.5Q398 632 425 609Q452 586 465.5 553.5Q479 521 479 484Q479 460 473.5 439.5Q468 419 459 402.5Q450 386 438.5 374Q427 362 414 355Z" glyph-name="germandbls" horiz-adv-x="542" unicode="&#223;" /><glyph d="M221 500 134 650H283L365 500Z" glyph-name="grave" horiz-adv-x="500" unicode="`" /><glyph d="M217 666 128 796H288L370 666Z" glyph-name="grave.cap" horiz-adv-x="500" /><glyph d="M393 225 47 72V202L283 297L47 393V522L393 369Z" glyph-name="greater" horiz-adv-x="434" unicode="&gt;" /><glyph d="M433 225 87 72V202L323 297L87 393V522L433 369Z" glyph-name="greater.lt" horiz-adv-x="520" /><glyph d="M394 298 48 177V299L281 368L48 436V559L394 437ZM394 42H48V154H394Z" glyph-name="greaterequal" horiz-adv-x="442" unicode="&#8805;" /><glyph d="M433 298 87 177V299L320 368L87 436V559L433 437ZM433 42H87V154H433Z" glyph-name="greaterequal.lt" horiz-adv-x="520" /><glyph d="M426 386 334 222 426 58H298L206 222L298 386ZM245 386 153 222 245 58H117L25 222L117 386Z" glyph-name="guillemotleft" horiz-adv-x="451" unicode="&#171;" /><glyph d="M298 138 206 302 298 466H426L334 302L426 138ZM117 138 25 302 117 466H245L153 302L245 138Z" glyph-name="guillemotleft.cap" horiz-adv-x="451" /><glyph d="M25 58 117 222 25 386H153L245 222L153 58ZM206 58 298 222 206 386H334L426 222L334 58Z" glyph-name="guillemotright" horiz-adv-x="451" unicode="&#187;" /><glyph d="M25 138 117 302 25 466H153L245 302L153 138ZM206 138 298 302 206 466H334L426 302L334 138Z" glyph-name="guillemotright.cap" horiz-adv-x="451" /><glyph d="M117 58 25 222 117 386H253L161 222L253 58Z" glyph-name="guilsinglleft" horiz-adv-x="278" unicode="&#8249;" /><glyph d="M117 138 25 302 117 466H253L161 302L253 138Z" glyph-name="guilsinglleft.cap" horiz-adv-x="278" /><glyph d="M25 58 117 222 25 386H161L253 222L161 58Z" glyph-name="guilsinglright" horiz-adv-x="278" unicode="&#8250;" /><glyph d="M25 138 117 302 25 466H161L253 302L161 138Z" glyph-name="guilsinglright.cap" horiz-adv-x="278" /><glyph d="M42 650H199V412Q218 433 249.5 446.5Q281 460 320 460Q395 460 437 415.5Q479 371 479 295V0H322V257Q322 285 307.5 303Q293 321 264 321Q252 321 241.5 317.5Q231 314 222.5 307.5Q214 301 208 292Q202 283 199 272V0H42Z" glyph-name="h" horiz-adv-x="519" unicode="h" /><glyph d="M-5 592H42V650H199V592H281V490H199V412Q218 433 250 446.5Q282 460 320 460Q395 460 437.5 415.5Q480 371 480 295V0H322V257Q322 285 308 303Q294 321 264 321Q252 321 242 317.5Q232 314 223 307.5Q214 301 208 292Q202 283 199 272V0H42V490H-5Z" glyph-name="hbar" horiz-adv-x="520" unicode="&#295;" /><glyph d="M42 650H199V412Q218 433 249.5 446.5Q281 460 320 460Q395 460 437 415.5Q479 371 479 295V0H322V257Q322 285 307.5 303Q293 321 264 321Q252 321 241.5 317.5Q231 314 222.5 307.5Q214 301 208 292Q202 283 199 272V0H42ZM425 680H298L257 725L215 680H88L197 812H316Z" glyph-name="hcircumflex" horiz-adv-x="519" unicode="&#293;" /><glyph d="M71 500 147 650H269L193 500ZM229 500 305 650H428L351 500Z" glyph-name="hungarumlaut" horiz-adv-x="500" unicode="&#733;" /><glyph d="M63 666 139 796H269L192 666ZM230 666 305 796H435L359 666Z" glyph-name="hungarumlaut.cap" horiz-adv-x="500" /><glyph d="M36 328H277V196H36Z" glyph-name="hyphen" horiz-adv-x="313" unicode="-" /><glyph d="M36 361H277V230H36Z" glyph-name="hyphen.cap" horiz-adv-x="313" /><glyph d="M200 0H43V450H200ZM210 572Q210 533 184 510.5Q158 488 121 488Q85 488 58.5 510.5Q32 533 32 572Q32 612 58.5 634.5Q85 657 121 657Q158 657 184 634.5Q210 612 210 572Z" glyph-name="i" horiz-adv-x="242" unicode="i" /><glyph d="M45 500 127 650H276L189 500ZM199 0H42V450H199Z" glyph-name="iacute" horiz-adv-x="241" unicode="&#237;" /><glyph d="M120 488Q64 488 28.5 525.5Q-7 563 -7 638H91Q91 616 98 603.5Q105 591 121 591Q137 591 143.5 603.5Q150 616 150 638H249Q249 564 212.5 526Q176 488 120 488ZM199 0H42V450H199Z" glyph-name="ibreve" horiz-adv-x="242" unicode="&#301;" /><glyph d="M260 498H148L121 558L94 498H-18L61 649H181ZM200 0H43V450H200Z" glyph-name="icircumflex" horiz-adv-x="242" unicode="&#238;" /><glyph d="M-41 567Q-41 599 -18.5 621.5Q4 644 36 644Q52 644 66 638Q80 632 90.5 621.5Q101 611 107 597Q113 583 113 567Q113 535 90 513Q67 491 36 491Q4 491 -18.5 513Q-41 535 -41 567ZM131 567Q131 599 153 621.5Q175 644 207 644Q223 644 237 638Q251 632 261.5 621.5Q272 611 278 597Q284 583 284 567Q284 535 261.5 513Q239 491 207 491Q175 491 153 513Q131 535 131 567ZM200 0H43V450H200Z" glyph-name="idieresis" horiz-adv-x="242" unicode="&#239;" /><glyph d="M199 0H42V450H199ZM211 579Q211 540 185 517.5Q159 495 122 495Q86 495 59.5 517.5Q33 540 33 579Q33 619 59.5 641.5Q86 664 122 664Q159 664 185 641.5Q211 619 211 579Z" glyph-name="idotaccent" horiz-adv-x="241" /><glyph d="M54 500 -33 650H116L198 500ZM199 0H42V450H199Z" glyph-name="igrave" horiz-adv-x="241" unicode="&#236;" /><glyph d="M28 613H216V504H28ZM199 0H42V450H199Z" glyph-name="imacron" horiz-adv-x="241" unicode="&#299;" /><glyph d="M200 0Q184 -19 174 -30Q164 -41 158.5 -49Q153 -57 150.5 -62.5Q148 -68 148 -75Q148 -84 153.5 -88.5Q159 -93 168 -93Q176 -93 183.5 -90Q191 -87 203 -79V-166Q190 -174 174.5 -179.5Q159 -185 138 -185Q118 -185 101 -180Q84 -175 72 -165Q60 -155 53 -140Q46 -125 46 -106Q46 -91 50 -78Q54 -65 61.5 -52Q69 -39 79 -26Q89 -13 101 0H43V450H200ZM210 572Q210 533 184 510.5Q158 488 121 488Q85 488 58.5 510.5Q32 533 32 572Q32 612 58.5 634.5Q85 657 121 657Q158 657 184 634.5Q210 612 210 572Z" glyph-name="iogonek" horiz-adv-x="242" unicode="&#303;" /><glyph d="M249 647Q249 616 245 589Q241 562 232.5 541.5Q224 521 209 509Q194 497 173 497Q158 497 147.5 502Q137 507 128 514Q119 521 111 526.5Q103 532 93 532Q82 532 77 523.5Q72 515 71 500H-9Q-9 531 -5 558Q-1 585 7.5 605.5Q16 626 31 638Q46 650 68 650Q82 650 93 645Q104 640 112.5 633Q121 626 129 620.5Q137 615 147 615Q158 615 163.5 623.5Q169 632 169 647ZM199 0H42V450H199Z" glyph-name="itilde" horiz-adv-x="241" unicode="&#297;" /><glyph d="M200 11Q200 -75 156.5 -122Q113 -169 28 -169Q11 -169 -3.5 -167.5Q-18 -166 -29 -162V-43Q-24 -45 -18.5 -45.5Q-13 -46 -6 -46Q6 -46 15.5 -43.5Q25 -41 30.5 -35Q36 -29 39.5 -19.5Q43 -10 43 4V450H200ZM210 572Q210 533 184 510.5Q158 488 121 488Q85 488 58.5 510.5Q32 533 32 572Q32 612 58.5 634.5Q85 657 121 657Q158 657 184 634.5Q210 612 210 572Z" glyph-name="j" horiz-adv-x="241" unicode="j" /><glyph d="M260 498H149L121 558L94 498H-18L61 649H181ZM200 11Q200 -75 156.5 -122Q113 -169 28 -169Q11 -169 -3.5 -167.5Q-18 -166 -29 -162V-43Q-24 -45 -18.5 -45.5Q-13 -46 -6 -46Q6 -46 15.5 -43.5Q25 -41 30.5 -35Q36 -29 39.5 -19.5Q43 -10 43 4V450H200Z" glyph-name="jcircumflex" horiz-adv-x="241" unicode="&#309;" /><glyph d="M229 167 199 132V0H42V650H199V306L325 450H514L343 263L519 0H338Z" glyph-name="k" horiz-adv-x="523" unicode="k" /><glyph d="M229 167 199 132V0H42V650H199V306L325 450H514L343 263L519 0H338ZM220 -172Q200 -166 185.5 -149Q171 -132 171 -105Q171 -73 194.5 -53Q218 -33 253 -33Q285 -33 309 -53.5Q333 -74 333 -111Q333 -137 322 -157.5Q311 -178 294 -199L265 -236H170Z" glyph-name="kcommaaccent" horiz-adv-x="523" unicode="&#311;" /><glyph d="M229 167 199 132V0H42V450H199V306L325 450H514L343 263L519 0H338Z" glyph-name="kgreenlandic" horiz-adv-x="523" unicode="&#312;" /><glyph d="M199 0H42V650H199Z" glyph-name="l" horiz-adv-x="241" unicode="l" /><glyph d="M199 0H42V650H199ZM43 684 125 814H285L197 684Z" glyph-name="lacute" horiz-adv-x="241" unicode="&#314;" /><glyph d="M199 0H42V650H199ZM230 483 273 650H395L351 483Z" glyph-name="lcaron" horiz-adv-x="241" unicode="&#318;" /><glyph d="M199 0H42V650H199ZM88 -172Q68 -166 53.5 -149Q39 -132 39 -105Q39 -73 62.5 -53Q86 -33 121 -33Q153 -33 177 -53.5Q201 -74 201 -111Q201 -137 190 -157.5Q179 -178 162 -199L133 -236H38Z" glyph-name="lcommaaccent" horiz-adv-x="241" unicode="&#316;" /><glyph d="M199 0H42V650H199ZM422 333Q422 294 396 271.5Q370 249 333 249Q297 249 270.5 271.5Q244 294 244 333Q244 373 270.5 395.5Q297 418 333 418Q370 418 396 395.5Q422 373 422 333Z" glyph-name="ldot" horiz-adv-x="426" unicode="&#320;" /><glyph d="M42 369 387 522V393L151 297L387 202V72L42 225Z" glyph-name="less" horiz-adv-x="434" unicode="&lt;" /><glyph d="M87 369 432 522V393L196 297L432 202V72L87 225Z" glyph-name="less.lt" horiz-adv-x="520" /><glyph d="M48 437 394 559V436L160 368L394 299V177L48 298ZM48 154H394V42H48Z" glyph-name="lessequal" horiz-adv-x="442" unicode="&#8804;" /><glyph d="M87 437 433 559V436L199 368L433 299V177L87 298ZM87 154H433V42H87Z" glyph-name="lessequal.lt" horiz-adv-x="520" /><glyph d="M224 0H67V236L17 206V321L67 350V650H224V428L276 459V344L224 314Z" glyph-name="lslash" horiz-adv-x="292" unicode="&#322;" /><glyph d="M438 406Q449 417 462.5 426.5Q476 436 493.5 444Q511 452 531.5 456Q552 460 577 460Q648 460 689 415.5Q730 371 730 295V0H573V257Q573 285 560.5 303.5Q548 322 522 322Q502 322 486 309.5Q470 297 464 274V0H307V257Q307 285 295 303.5Q283 322 256 322Q236 322 220.5 309.5Q205 297 199 274V0H42V450H199V413Q216 434 246.5 447Q277 460 315 460Q358 460 388 445.5Q418 431 438 406Z" glyph-name="m" horiz-adv-x="770" unicode="m" /><glyph d="M123 613H376V504H123Z" glyph-name="macron" horiz-adv-x="500" unicode="&#175;" /><glyph d="M117 774H383V666H117Z" glyph-name="macron.cap" horiz-adv-x="500" /><glyph d="M51 357H504V241H51Z" glyph-name="minus" horiz-adv-x="555" unicode="&#8722;" /><glyph d="M33 357H486V241H33Z" glyph-name="minus.lt" horiz-adv-x="520" /><glyph d="M45 418 127 500 247 380 367 500 449 418 329 298 449 178 367 97 247 217 127 97 45 178 166 298Z" glyph-name="multiply" horiz-adv-x="494" unicode="&#215;" /><glyph d="M58 418 140 500 260 380 380 500 462 418 342 298 462 178 380 97 260 217 140 97 58 178 179 298Z" glyph-name="multiply.lt" horiz-adv-x="520" /><glyph d="M42 450H199V412Q218 433 249.5 446.5Q281 460 320 460Q395 460 437 415.5Q479 371 479 295V0H322V257Q322 285 307.5 303Q293 321 264 321Q252 321 241.5 317.5Q231 314 222.5 307.5Q214 301 208 292Q202 283 199 272V0H42Z" glyph-name="n" horiz-adv-x="519" unicode="n" /><glyph d="M42 450H199V412Q218 433 249.5 446.5Q281 460 320 460Q395 460 437 415.5Q479 371 479 295V0H322V257Q322 285 307.5 303Q293 321 264 321Q252 321 241.5 317.5Q231 314 222.5 307.5Q214 301 208 292Q202 283 199 272V0H42ZM191 500 273 650H422L335 500Z" glyph-name="nacute" horiz-adv-x="519" unicode="&#324;" /><glyph d="M42 450H199V412Q218 433 249.5 446.5Q281 460 320 460Q395 460 437 415.5Q479 371 479 295V0H322V257Q322 285 307.5 303Q293 321 264 321Q252 321 241.5 317.5Q231 314 222.5 307.5Q214 301 208 292Q202 283 199 272V0H42ZM328 498H208L112 649H228L268 594L307 649H424Z" glyph-name="ncaron" horiz-adv-x="519" unicode="&#328;" /><glyph d="M42 450H199V412Q218 433 249.5 446.5Q281 460 320 460Q395 460 437 415.5Q479 371 479 295V0H322V257Q322 285 307.5 303Q293 321 264 321Q252 321 241.5 317.5Q231 314 222.5 307.5Q214 301 208 292Q202 283 199 272V0H42ZM231 -172Q211 -166 196.5 -149Q182 -132 182 -105Q182 -73 205.5 -53Q229 -33 264 -33Q296 -33 320 -53.5Q344 -74 344 -111Q344 -137 333 -157.5Q322 -178 305 -199L276 -236H181Z" glyph-name="ncommaaccent" horiz-adv-x="519" unicode="&#326;" /><glyph d="M337 412Q337 431 330.5 446Q324 461 313 472Q302 483 286.5 489Q271 495 253 495Q235 495 220 489Q205 483 193.5 472Q182 461 176 446Q170 431 170 412Q170 394 176 378Q182 362 193.5 351Q205 340 220 334Q235 328 253 328Q271 328 286.5 334Q302 340 313 351Q324 362 330.5 377.5Q337 393 337 412ZM183 168Q190 147 205 134Q220 121 247 121Q268 121 284.5 131Q301 141 312.5 156.5Q324 172 331.5 193.5Q339 215 341 243Q342 250 342 250Q342 250 342 255Q335 245 324 237Q313 229 298.5 222.5Q284 216 266.5 212.5Q249 209 229 209Q182 209 144.5 225Q107 241 80.5 267.5Q54 294 40 330.5Q26 367 26 408Q26 454 42 493.5Q58 533 87.5 562Q117 591 159 607.5Q201 624 254 624Q314 624 362.5 598Q411 572 442 522Q470 481 481.5 431.5Q493 382 493 321Q493 249 476.5 188.5Q460 128 429 83.5Q398 39 352 14.5Q306 -10 248 -10Q156 -10 101 38Q46 86 31 168Z" glyph-name="nine" horiz-adv-x="518" unicode="9" /><glyph d="M181 168Q188 147 203 134Q218 121 245 121Q267 121 286.5 133Q306 145 322 173.5Q338 202 341 255Q316 223 264 212Q247 209 227 209Q180 209 142.5 225Q105 241 78.5 267.5Q52 294 38 330.5Q24 367 24 408Q24 454 40 493.5Q56 533 85.5 562Q115 591 157 607.5Q199 624 252 624Q312 624 360.5 598Q409 572 440 522Q468 481 479.5 431.5Q491 382 491 321Q491 249 474.5 188.5Q458 128 426.5 83.5Q395 39 349.5 14.5Q304 -10 246 -10Q154 -10 99 38Q44 86 29 168ZM334 412Q334 430 328 445.5Q322 461 311 472Q300 483 284.5 489Q269 495 251 495Q232 495 217 489Q202 483 191 472Q180 461 174 445.5Q168 430 168 412Q168 394 174 378Q180 362 191 351Q198 343 208 338Q204 343 210 339Q216 335 225 331Q237 328 251 328Q269 328 284.5 334Q300 340 311 351Q322 362 328 377.5Q334 393 334 412Z" glyph-name="nine.lt" horiz-adv-x="520" /><glyph glyph-name="nonmarkingreturn" horiz-adv-x="199" unicode="" /><glyph d="M60 261H212L263 340H60V444H329L389 537H485L425 444H513V340H359L308 261H513V158H242L183 65H87L146 158H60Z" glyph-name="notequal" horiz-adv-x="573" unicode="&#8800;" /><glyph d="M33 261H185L236 340H33V444H302L362 537H458L398 444H486V340H332L281 261H486V158H215L156 65H60L119 158H33Z" glyph-name="notequal.lt" horiz-adv-x="520" /><glyph d="M42 450H199V412Q218 433 249.5 446.5Q281 460 320 460Q395 460 437 415.5Q479 371 479 295V0H322V257Q322 285 307.5 303Q293 321 264 321Q252 321 241.5 317.5Q231 314 222.5 307.5Q214 301 208 292Q202 283 199 272V0H42ZM415 647Q415 616 410.5 589Q406 562 395.5 541.5Q385 521 368 509Q351 497 326 497Q309 497 296 502.5Q283 508 272 515Q261 522 250.5 527.5Q240 533 228 533Q216 533 209.5 524Q203 515 202 500H117Q117 531 121.5 558Q126 585 136 605.5Q146 626 163 638Q180 650 205 650Q222 650 235 644.5Q248 639 259.5 632Q271 625 281.5 619.5Q292 614 304 614Q315 614 322 623Q329 632 329 647Z" glyph-name="ntilde" horiz-adv-x="519" unicode="&#241;" /><glyph d="M548 156H446L409 0H296L333 156H229L192 0H80L117 156H20L43 255H140L165 359H65L87 458H189L226 614H339L301 458H405L443 614H555L518 458H615L592 359H494L469 255H570ZM253 255H357L382 359H278Z" glyph-name="numbersign" horiz-adv-x="635" unicode="#" /><glyph d="M478 225Q478 173 461 130Q444 87 414 55.5Q384 24 341.5 7Q299 -10 248 -10Q197 -10 154.5 7Q112 24 82 55.5Q52 87 35 130Q18 173 18 225Q18 277 35 320.5Q52 364 82 395Q112 426 154.5 443Q197 460 248 460Q299 460 341.5 443Q384 426 414 395Q444 364 461 320.5Q478 277 478 225ZM324 225Q324 248 319 267.5Q314 287 304 301Q294 315 280 323Q266 331 248 331Q230 331 216 323Q202 315 192.5 301Q183 287 178 267.5Q173 248 173 225Q173 202 178 182.5Q183 163 192.5 149Q202 135 216 127.5Q230 120 248 120Q266 120 280 127.5Q294 135 304 149Q314 163 319 182.5Q324 202 324 225Z" glyph-name="o" horiz-adv-x="496" unicode="o" /><glyph d="M478 225Q478 173 461 130Q444 87 414 55.5Q384 24 341.5 7Q299 -10 248 -10Q197 -10 154.5 7Q112 24 82 55.5Q52 87 35 130Q18 173 18 225Q18 277 35 320.5Q52 364 82 395Q112 426 154.5 443Q197 460 248 460Q299 460 341.5 443Q384 426 414 395Q444 364 461 320.5Q478 277 478 225ZM324 225Q324 248 319 267.5Q314 287 304 301Q294 315 280 323Q266 331 248 331Q230 331 216 323Q202 315 192.5 301Q183 287 178 267.5Q173 248 173 225Q173 202 178 182.5Q183 163 192.5 149Q202 135 216 127.5Q230 120 248 120Q266 120 280 127.5Q294 135 304 149Q314 163 319 182.5Q324 202 324 225ZM172 500 254 650H403L316 500Z" glyph-name="oacute" horiz-adv-x="496" unicode="&#243;" /><glyph d="M478 225Q478 173 461 130Q444 87 414 55.5Q384 24 341.5 7Q299 -10 248 -10Q197 -10 154.5 7Q112 24 82 55.5Q52 87 35 130Q18 173 18 225Q18 277 35 320.5Q52 364 82 395Q112 426 154.5 443Q197 460 248 460Q299 460 341.5 443Q384 426 414 395Q444 364 461 320.5Q478 277 478 225ZM324 225Q324 248 319 267.5Q314 287 304 301Q294 315 280 323Q266 331 248 331Q230 331 216 323Q202 315 192.5 301Q183 287 178 267.5Q173 248 173 225Q173 202 178 182.5Q183 163 192.5 149Q202 135 216 127.5Q230 120 248 120Q266 120 280 127.5Q294 135 304 149Q314 163 319 182.5Q324 202 324 225ZM250 488Q219 488 193 497.5Q167 507 147.5 526Q128 545 117.5 573Q107 601 107 638H215Q215 616 224 603.5Q233 591 250 591Q269 591 277.5 603.5Q286 616 286 638H394Q394 601 383.5 573Q373 545 353.5 526Q334 507 308 497.5Q282 488 250 488Z" glyph-name="obreve" horiz-adv-x="497" unicode="&#335;" /><glyph d="M478 225Q478 173 461 130Q444 87 414 55.5Q384 24 341.5 7Q299 -10 248 -10Q197 -10 154.5 7Q112 24 82 55.5Q52 87 35 130Q18 173 18 225Q18 277 35 320.5Q52 364 82 395Q112 426 154.5 443Q197 460 248 460Q299 460 341.5 443Q384 426 414 395Q444 364 461 320.5Q478 277 478 225ZM324 225Q324 248 319 267.5Q314 287 304 301Q294 315 280 323Q266 331 248 331Q230 331 216 323Q202 315 192.5 301Q183 287 178 267.5Q173 248 173 225Q173 202 178 182.5Q183 163 192.5 149Q202 135 216 127.5Q230 120 248 120Q266 120 280 127.5Q294 135 304 149Q314 163 319 182.5Q324 202 324 225ZM406 498H289L250 553L210 498H94L190 649H310Z" glyph-name="ocircumflex" horiz-adv-x="498" unicode="&#244;" /><glyph d="M478 225Q478 173 461 130Q444 87 414 55.5Q384 24 341.5 7Q299 -10 248 -10Q197 -10 154.5 7Q112 24 82 55.5Q52 87 35 130Q18 173 18 225Q18 277 35 320.5Q52 364 82 395Q112 426 154.5 443Q197 460 248 460Q299 460 341.5 443Q384 426 414 395Q444 364 461 320.5Q478 277 478 225ZM324 225Q324 248 319 267.5Q314 287 304 301Q294 315 280 323Q266 331 248 331Q230 331 216 323Q202 315 192.5 301Q183 287 178 267.5Q173 248 173 225Q173 202 178 182.5Q183 163 192.5 149Q202 135 216 127.5Q230 120 248 120Q266 120 280 127.5Q294 135 304 149Q314 163 319 182.5Q324 202 324 225ZM84 567Q84 599 106.5 621.5Q129 644 161 644Q177 644 191 638Q205 632 215.5 621.5Q226 611 232 597Q238 583 238 567Q238 535 215 513Q192 491 161 491Q129 491 106.5 513Q84 535 84 567ZM261 567Q261 599 283.5 621.5Q306 644 337 644Q353 644 367 638Q381 632 391.5 621.5Q402 611 408.5 597Q415 583 415 567Q415 535 392 513Q369 491 337 491Q306 491 283.5 513Q261 535 261 567Z" glyph-name="odieresis" horiz-adv-x="498" unicode="&#246;" /><glyph d="M542 -10Q497 -10 460 4.5Q423 19 395 45Q366 19 329.5 4.5Q293 -10 248 -10Q197 -10 154.5 7Q112 24 82 55.5Q52 87 35 130Q18 173 18 225Q18 277 35 320.5Q52 364 82 395Q112 426 154.5 443Q197 460 248 460Q293 460 330 445.5Q367 431 396 405Q424 431 459.5 445.5Q495 460 540 460Q592 460 632 443.5Q672 427 699.5 397.5Q727 368 741 326.5Q755 285 755 234V195H465Q467 174 473 159Q479 144 489 133.5Q499 123 512.5 117.5Q526 112 542 112Q566 112 584 123Q602 134 608 157H754Q742 79 687 34.5Q632 -10 542 -10ZM324 225Q324 248 319 267.5Q314 287 304 301Q294 315 280 323Q266 331 248 331Q230 331 216 323Q202 315 192.5 301Q183 287 178 267.5Q173 248 173 225Q173 202 178 182.5Q183 163 192.5 149Q202 135 216 127.5Q230 120 248 120Q266 120 280 127.5Q294 135 304 149Q314 163 319 182.5Q324 202 324 225ZM540 338Q512 338 493.5 321Q475 304 468 273H604Q603 286 598.5 298Q594 310 585.5 319Q577 328 566 333Q555 338 540 338Z" glyph-name="oe" horiz-adv-x="773" unicode="&#339;" /><glyph d="M326 8Q309 -12 298 -25Q287 -38 280.5 -47Q274 -56 271.5 -62Q269 -68 269 -75Q269 -84 274 -88.5Q279 -93 288 -93Q297 -93 304 -90Q311 -87 323 -79V-166Q310 -174 294.5 -179.5Q279 -185 258 -185Q238 -185 221 -180Q204 -175 192 -165Q180 -155 173 -140Q166 -125 166 -106Q166 -91 171 -76.5Q176 -62 184.5 -48Q193 -34 204.5 -20.5Q216 -7 229 8Z" glyph-name="ogonek" horiz-adv-x="500" unicode="&#731;" /><glyph d="M478 225Q478 173 461 130Q444 87 414 55.5Q384 24 341.5 7Q299 -10 248 -10Q197 -10 154.5 7Q112 24 82 55.5Q52 87 35 130Q18 173 18 225Q18 277 35 320.5Q52 364 82 395Q112 426 154.5 443Q197 460 248 460Q299 460 341.5 443Q384 426 414 395Q444 364 461 320.5Q478 277 478 225ZM324 225Q324 248 319 267.5Q314 287 304 301Q294 315 280 323Q266 331 248 331Q230 331 216 323Q202 315 192.5 301Q183 287 178 267.5Q173 248 173 225Q173 202 178 182.5Q183 163 192.5 149Q202 135 216 127.5Q230 120 248 120Q266 120 280 127.5Q294 135 304 149Q314 163 319 182.5Q324 202 324 225ZM181 500 94 650H243L325 500Z" glyph-name="ograve" horiz-adv-x="496" unicode="&#242;" /><glyph d="M478 225Q478 173 461 130Q444 87 414 55.5Q384 24 341.5 7Q299 -10 248 -10Q197 -10 154.5 7Q112 24 82 55.5Q52 87 35 130Q18 173 18 225Q18 277 35 320.5Q52 364 82 395Q112 426 154.5 443Q197 460 248 460Q299 460 341.5 443Q384 426 414 395Q444 364 461 320.5Q478 277 478 225ZM324 225Q324 248 319 267.5Q314 287 304 301Q294 315 280 323Q266 331 248 331Q230 331 216 323Q202 315 192.5 301Q183 287 178 267.5Q173 248 173 225Q173 202 178 182.5Q183 163 192.5 149Q202 135 216 127.5Q230 120 248 120Q266 120 280 127.5Q294 135 304 149Q314 163 319 182.5Q324 202 324 225ZM105 500 181 650H303L227 500ZM263 500 339 650H462L385 500Z" glyph-name="ohungarumlaut" horiz-adv-x="496" unicode="&#337;" /><glyph d="M478 225Q478 173 461 130Q444 87 414 55.5Q384 24 341.5 7Q299 -10 248 -10Q197 -10 154.5 7Q112 24 82 55.5Q52 87 35 130Q18 173 18 225Q18 277 35 320.5Q52 364 82 395Q112 426 154.5 443Q197 460 248 460Q299 460 341.5 443Q384 426 414 395Q444 364 461 320.5Q478 277 478 225ZM324 225Q324 248 319 267.5Q314 287 304 301Q294 315 280 323Q266 331 248 331Q230 331 216 323Q202 315 192.5 301Q183 287 178 267.5Q173 248 173 225Q173 202 178 182.5Q183 163 192.5 149Q202 135 216 127.5Q230 120 248 120Q266 120 280 127.5Q294 135 304 149Q314 163 319 182.5Q324 202 324 225ZM123 613H376V504H123Z" glyph-name="omacron" horiz-adv-x="496" unicode="&#333;" /><glyph d="M312 0H156V440L13 370V523L204 614H312Z" glyph-name="one" horiz-adv-x="368" unicode="1" /><glyph d="M60 139H208V440L65 369V522L257 614H365V139H490V0H60Z" glyph-name="one.lt" horiz-adv-x="520" /><glyph d="M182 0H90L510 614H602ZM215 264H111V497L25 455V560L140 614H215ZM583 238Q583 248 576 255.5Q569 263 557 263Q544 263 536.5 254.5Q529 246 529 235H419Q422 260 432 281.5Q442 303 459.5 319.5Q477 336 501 345.5Q525 355 555 355Q615 355 651 324.5Q687 294 687 243Q687 208 668 184Q649 160 623 136L572 89H686V0H422V68L550 188Q566 203 574.5 213.5Q583 224 583 238Z" glyph-name="onehalf" horiz-adv-x="725" unicode="&#189;" /><glyph d="M182 0H90L510 614H602ZM215 264H111V497L25 455V560L140 614H215ZM507 144H553V195H644V144H691V57H644V0H553V57H395V138L500 350H602Z" glyph-name="onequarter" horiz-adv-x="720" unicode="&#188;" /><glyph d="M204 264H100V497L14 455V560L129 614H204Z" glyph-name="onesuperior" horiz-adv-x="241" unicode="&#185;" /><glyph d="M193 311V326Q185 318 164.5 311.5Q144 305 119 305Q97 305 76.5 311.5Q56 318 41 330Q26 342 17 361Q8 380 8 404Q8 449 42 475Q76 501 126 501Q145 501 164.5 496Q184 491 193 484V503Q193 516 185 526Q177 536 159 536Q132 536 126 514H22Q29 561 65 592.5Q101 624 163 624Q230 624 266.5 591Q303 558 303 497V311ZM193 414Q188 422 177 427Q166 432 153 432Q139 432 128 425.5Q117 419 117 406Q117 392 128 386Q139 380 153 380Q166 380 177 385Q188 390 193 399Z" glyph-name="ordfeminine" horiz-adv-x="320" unicode="&#170;" /><glyph d="M328 464Q328 429 316.5 399.5Q305 370 284 349Q263 328 233.5 316Q204 304 168 304Q133 304 103 316Q73 328 52 349Q31 370 19.5 399.5Q8 429 8 464Q8 500 19.5 529Q31 558 52 579.5Q73 601 103 612.5Q133 624 168 624Q204 624 233.5 612.5Q263 601 284 579.5Q305 558 316.5 529Q328 500 328 464ZM212 464Q212 492 200.5 510Q189 528 168 528Q147 528 136 510Q125 492 125 464Q125 436 136 418.5Q147 401 168 401Q189 401 200.5 418.5Q212 436 212 464Z" glyph-name="ordmasculine" horiz-adv-x="335" unicode="&#186;" /><glyph d="M430 468 475 431 431 381Q452 355 466 320Q483 277 483 225Q483 173 466 130Q449 87 419 55.5Q389 24 346.5 7Q304 -10 253 -10Q202 -10 159 7Q136 16 117 29L75 -19L30 18L75 68Q53 96 40 130Q23 173 23 225Q23 277 40 320.5Q57 364 87 395Q117 426 159.5 443Q202 460 253 460Q304 460 346 443Q369 434 388 421ZM286 326Q272 334 253 334Q235 334 220.5 326Q206 318 196 303Q186 288 180.5 268Q175 248 175 225Q175 204 179 186L297 318Q292 323 286 326ZM332 225Q332 246 327 265L209 132Q214 128 220 125Q235 117 253 117Q271 117 285.5 125Q300 133 310.5 147.5Q321 162 326.5 182Q332 202 332 225Z" glyph-name="oslash" horiz-adv-x="506" unicode="&#248;" /><glyph d="M176 500 258 650H407L320 500ZM430 468 475 431 431 381Q452 355 466 320Q483 277 483 225Q483 173 466 130Q449 87 419 55.5Q389 24 346.5 7Q304 -10 253 -10Q202 -10 159 7Q136 16 117 29L75 -19L30 18L75 68Q53 96 40 130Q23 173 23 225Q23 277 40 320.5Q57 364 87 395Q117 426 159.5 443Q202 460 253 460Q304 460 346 443Q369 434 388 421ZM286 326Q272 334 253 334Q235 334 220.5 326Q206 318 196 303Q186 288 180.5 268Q175 248 175 225Q175 204 179 186L297 318Q292 323 286 326ZM332 225Q332 246 327 265L209 132Q214 128 220 125Q235 117 253 117Q271 117 285.5 125Q300 133 310.5 147.5Q321 162 326.5 182Q332 202 332 225Z" glyph-name="oslashacute" horiz-adv-x="506" unicode="&#511;" /><glyph d="M478 225Q478 173 461 130Q444 87 414 55.5Q384 24 341.5 7Q299 -10 248 -10Q197 -10 154.5 7Q112 24 82 55.5Q52 87 35 130Q18 173 18 225Q18 277 35 320.5Q52 364 82 395Q112 426 154.5 443Q197 460 248 460Q299 460 341.5 443Q384 426 414 395Q444 364 461 320.5Q478 277 478 225ZM324 225Q324 248 319 267.5Q314 287 304 301Q294 315 280 323Q266 331 248 331Q230 331 216 323Q202 315 192.5 301Q183 287 178 267.5Q173 248 173 225Q173 202 178 182.5Q183 163 192.5 149Q202 135 216 127.5Q230 120 248 120Q266 120 280 127.5Q294 135 304 149Q314 163 319 182.5Q324 202 324 225ZM399 647Q399 616 394.5 589Q390 562 379.5 541.5Q369 521 352 509Q335 497 310 497Q293 497 280 502.5Q267 508 256 515Q245 522 234.5 527.5Q224 533 212 533Q200 533 193.5 524Q187 515 186 500H101Q101 531 105.5 558Q110 585 120 605.5Q130 626 147 638Q164 650 189 650Q206 650 219 644.5Q232 639 243.5 632Q255 625 265.5 619.5Q276 614 288 614Q299 614 306 623Q313 632 313 647Z" glyph-name="otilde" horiz-adv-x="498" unicode="&#245;" /><glyph d="M199 -159H42V450H199V414Q207 423 219 431.5Q231 440 245 446Q259 452 276 456Q293 460 310 460Q358 460 395.5 441.5Q433 423 458.5 391Q484 359 497 316Q510 273 510 225Q510 177 497 134.5Q484 92 458.5 59.5Q433 27 395.5 8.5Q358 -10 310 -10Q293 -10 276 -6Q259 -2 245 4Q231 10 219 18.5Q207 27 199 36ZM199 166Q208 147 226.5 135.5Q245 124 268 124Q288 124 304 132Q320 140 330.5 153Q341 166 347 184.5Q353 203 353 225Q353 247 347 265.5Q341 284 330.5 297.5Q320 311 304 318.5Q288 326 268 326Q244 326 226 314.5Q208 303 199 284Z" glyph-name="p" horiz-adv-x="528" unicode="p" /><glyph d="M400 614H505V-90H400ZM242 247Q201 247 160.5 258Q120 269 87.5 291Q55 313 34.5 347.5Q14 382 14 431Q14 479 34.5 513.5Q55 548 87.5 570.5Q120 593 160.5 603.5Q201 614 242 614H347V-90H242Z" glyph-name="paragraph" horiz-adv-x="551" unicode="&#182;" /><glyph d="M30 283Q30 354 50 414.5Q70 475 106.5 522.5Q143 570 195.5 602.5Q248 635 314 650V503Q283 492 257.5 473.5Q232 455 213 428Q194 401 183.5 365Q173 329 173 283Q173 237 183.5 201Q194 165 213 138Q232 111 257.5 92.5Q283 74 314 63V-84Q248 -69 195.5 -36.5Q143 -4 106.5 43.5Q70 91 50 151.5Q30 212 30 283Z" glyph-name="parenleft" horiz-adv-x="334" unicode="(" /><glyph d="M30 303Q30 374 50 434.5Q70 495 106.5 542.5Q143 590 195.5 622.5Q248 655 314 670V523Q283 512 257.5 493.5Q232 475 213 448Q194 421 183.5 385Q173 349 173 303Q173 257 183.5 221Q194 185 213 158Q232 131 257.5 112.5Q283 94 314 83V-64Q248 -49 195.5 -16.5Q143 16 106.5 63.5Q70 111 50 171.5Q30 232 30 303Z" glyph-name="parenleft.cap" horiz-adv-x="334" /><glyph d="M304 283Q304 212 284 151.5Q264 91 227.5 43.5Q191 -4 138 -36.5Q85 -69 20 -84V63Q51 74 76.5 92.5Q102 111 121 138Q140 165 150.5 201Q161 237 161 283Q161 329 150.5 365Q140 401 121 428Q102 455 76.5 473.5Q51 492 20 503V650Q85 635 138 602.5Q191 570 227.5 522.5Q264 475 284 414.5Q304 354 304 283Z" glyph-name="parenright" horiz-adv-x="334" unicode=")" /><glyph d="M304 303Q304 232 284 171.5Q264 111 227.5 63.5Q191 16 138 -16.5Q85 -49 20 -64V83Q51 94 76.5 112.5Q102 131 121 158Q140 185 150.5 221Q161 257 161 303Q161 349 150.5 385Q140 421 121 448Q102 475 76.5 493.5Q51 512 20 523V670Q85 655 138 622.5Q191 590 227.5 542.5Q264 495 284 434.5Q304 374 304 303Z" glyph-name="parenright.cap" horiz-adv-x="334" /><glyph d="M493 614H583L188 0H98ZM117 476Q117 466 121 456Q125 446 132.5 439Q140 432 149.5 428Q159 424 170 424Q181 424 191 428Q201 432 208 439Q215 446 219.5 456Q224 466 224 476Q224 498 208 514.5Q192 531 170 531Q159 531 149.5 526.5Q140 522 132.5 514.5Q125 507 121 497Q117 487 117 476ZM657 138Q657 107 645.5 80Q634 53 614.5 33Q595 13 568.5 1.5Q542 -10 511 -10Q481 -10 453.5 1.5Q426 13 406.5 33Q387 53 375.5 80Q364 107 364 138Q364 168 375.5 194.5Q387 221 406.5 241Q426 261 453.5 272Q481 283 511 283Q542 283 568.5 272Q595 261 614.5 241Q634 221 645.5 194.5Q657 168 657 138ZM317 476Q317 446 305.5 419.5Q294 393 274.5 373Q255 353 228 342Q201 331 170 331Q139 331 112.5 342Q86 353 66.5 373Q47 393 35.5 419.5Q24 446 24 476Q24 507 35.5 534Q47 561 66.5 581Q86 601 112.5 612.5Q139 624 170 624Q201 624 228 612.5Q255 601 274.5 581Q294 561 305.5 534Q317 507 317 476ZM564 138Q564 148 560 158Q556 168 548.5 175Q541 182 531.5 186Q522 190 511 190Q500 190 490.5 186Q481 182 473.5 175Q466 168 461.5 158Q457 148 457 138Q457 116 473 99.5Q489 83 511 83Q522 83 531.5 87.5Q541 92 548.5 99.5Q556 107 560 117Q564 127 564 138Z" glyph-name="percent" horiz-adv-x="681" unicode="%" /><glyph d="M19 500Q19 526 28.5 548.5Q38 571 55 587.5Q72 604 94 614Q116 624 141 624Q167 624 189.5 614Q212 604 229 587.5Q246 571 255.5 548.5Q265 526 265 500Q265 474 255.5 452Q246 430 229 413.5Q212 397 189.5 387.5Q167 378 141 378Q116 378 94 387.5Q72 397 55 413.5Q38 430 28.5 452Q19 474 19 500ZM97 500Q97 491 100.5 482.5Q104 474 110 468.5Q116 463 124 459.5Q132 456 141 456Q151 456 159.5 459.5Q168 463 174 468.5Q180 474 183.5 482.5Q187 491 187 500Q187 519 173.5 532.5Q160 546 141 546Q132 546 124 542.5Q116 539 110 532.5Q104 526 100.5 518Q97 510 97 500ZM500 114Q500 88 490.5 65.5Q481 43 464.5 26.5Q448 10 425.5 0Q403 -10 378 -10Q352 -10 329.5 0Q307 10 290.5 26.5Q274 43 264 65.5Q254 88 254 114Q254 139 264 161.5Q274 184 290.5 200.5Q307 217 329.5 226.5Q352 236 378 236Q403 236 425.5 226.5Q448 217 464.5 200.5Q481 184 490.5 161.5Q500 139 500 114ZM422 114Q422 123 419 131.5Q416 140 410 145.5Q404 151 395.5 154.5Q387 158 378 158Q369 158 360.5 154.5Q352 151 345.5 145.5Q339 140 335.5 131.5Q332 123 332 114Q332 95 345.5 81.5Q359 68 378 68Q387 68 395.5 71.5Q404 75 410 81.5Q416 88 419 96Q422 104 422 114ZM407 614H494L113 0H25Z" glyph-name="percent.lt" horiz-adv-x="520" /><glyph d="M19 87Q19 127 45.5 153.5Q72 180 111 180Q130 180 147.5 173Q165 166 177 153.5Q189 141 196.5 124Q204 107 204 87Q204 67 196.5 50Q189 33 177 20.5Q165 8 147.5 0.5Q130 -7 111 -7Q92 -7 75 0.5Q58 8 46 20.5Q34 33 26.5 50Q19 67 19 87Z" glyph-name="period" horiz-adv-x="223" unicode="." /><glyph d="M37 87Q37 127 63.5 153.5Q90 180 129 180Q148 180 165.5 173Q183 166 195 153.5Q207 141 214.5 124Q222 107 222 87Q222 67 214.5 50Q207 33 195 20.5Q183 8 165.5 0.5Q148 -7 129 -7Q110 -7 93 0.5Q76 8 64 20.5Q52 33 44.5 50Q37 67 37 87Z" glyph-name="period.tab" horiz-adv-x="260" /><glyph d="M24 261Q24 302 50.5 328.5Q77 355 116 355Q135 355 152.5 348Q170 341 182 328.5Q194 316 201.5 298.5Q209 281 209 261Q209 241 201.5 224Q194 207 182 194.5Q170 182 152.5 174.5Q135 167 116 167Q97 167 80 174.5Q63 182 51 194.5Q39 207 31.5 224Q24 241 24 261Z" glyph-name="periodcentered" horiz-adv-x="233" unicode="&#183;" /><glyph d="M24 295Q24 335 50.5 361.5Q77 388 116 388Q135 388 152.5 381Q170 374 182 361.5Q194 349 201.5 332Q209 315 209 295Q209 275 201.5 258Q194 241 182 228.5Q170 216 152.5 208.5Q135 201 116 201Q97 201 80 208.5Q63 216 51 228.5Q39 241 31.5 258Q24 275 24 295Z" glyph-name="periodcentered.cap" horiz-adv-x="233" /><glyph d="M978 138Q978 107 966.5 80Q955 53 935.5 33Q916 13 889 1.5Q862 -10 832 -10Q801 -10 774 1.5Q747 13 727.5 33Q708 53 696 80Q684 107 684 138Q684 168 696 194.5Q708 221 727.5 241Q747 261 774 272Q801 283 832 283Q862 283 889 272Q916 261 935.5 241Q955 221 966.5 194.5Q978 168 978 138ZM24 476Q24 507 35.5 534Q47 561 66.5 581Q86 601 112.5 612.5Q139 624 170 624Q201 624 228 612.5Q255 601 274.5 581Q294 561 305.5 534Q317 507 317 476Q317 446 305.5 419.5Q294 393 274.5 373Q255 353 228 342Q201 331 170 331Q139 331 112.5 342Q86 353 66.5 373Q47 393 35.5 419.5Q24 446 24 476ZM657 138Q657 107 645.5 80Q634 53 614.5 33Q595 13 568.5 1.5Q542 -10 511 -10Q481 -10 453.5 1.5Q426 13 406.5 33Q387 53 375.5 80Q364 107 364 138Q364 168 375.5 194.5Q387 221 406.5 241Q426 261 453.5 272Q481 283 511 283Q542 283 568.5 272Q595 261 614.5 241Q634 221 645.5 194.5Q657 168 657 138ZM493 614H583L188 0H98ZM117 476Q117 466 121 456Q125 446 132.5 439Q140 432 149.5 428Q159 424 170 424Q181 424 191 428Q201 432 208 439Q215 446 219.5 456Q224 466 224 476Q224 498 208 514.5Q192 531 170 531Q159 531 149.5 526.5Q140 522 132.5 514.5Q125 507 121 497Q117 487 117 476ZM564 138Q564 148 560 158Q556 168 548.5 175Q541 182 531.5 186Q522 190 511 190Q500 190 490.5 186Q481 182 473.5 175Q466 168 461.5 158Q457 148 457 138Q457 116 473 99.5Q489 83 511 83Q522 83 531.5 87.5Q541 92 548.5 99.5Q556 107 560 117Q564 127 564 138ZM884 138Q884 148 880 158Q876 168 869 175Q862 182 852.5 186Q843 190 832 190Q821 190 811 186Q801 182 793.5 175Q786 168 782 158Q778 148 778 138Q778 116 794 99.5Q810 83 832 83Q843 83 852.5 87.5Q862 92 869 99.5Q876 107 880 117Q884 127 884 138Z" glyph-name="perthousand" horiz-adv-x="1002" unicode="&#8240;" /><glyph d="M433 614H521L114 0H26ZM111 500Q111 491 114.5 482.5Q118 474 123.5 468.5Q129 463 137.5 459.5Q146 456 155 456Q165 456 173 459.5Q181 463 187.5 468.5Q194 474 197.5 482.5Q201 491 201 500Q201 519 187.5 532.5Q174 546 155 546Q146 546 137.5 542.5Q129 539 123.5 532.5Q118 526 114.5 518Q111 510 111 500ZM514 114Q514 88 504.5 65.5Q495 43 478 26.5Q461 10 439 0Q417 -10 392 -10Q366 -10 343.5 0Q321 10 304.5 26.5Q288 43 278 65.5Q268 88 268 114Q268 139 278 161.5Q288 184 304.5 200.5Q321 217 343.5 226.5Q366 236 392 236Q417 236 439 226.5Q461 217 478 200.5Q495 184 504.5 161.5Q514 139 514 114ZM436 114Q436 123 432.5 131.5Q429 140 423 145.5Q417 151 409 154.5Q401 158 392 158Q382 158 374 154.5Q366 151 359.5 145.5Q353 140 349.5 131.5Q346 123 346 114Q346 95 359.5 81.5Q373 68 392 68Q401 68 409 71.5Q417 75 423 81.5Q429 88 432.5 96Q436 104 436 114ZM33 500Q33 526 42.5 548.5Q52 571 68.5 587.5Q85 604 107 614Q129 624 155 624Q181 624 203.5 614Q226 604 242.5 587.5Q259 571 269 548.5Q279 526 279 500Q279 474 269 452Q259 430 242.5 413.5Q226 397 203.5 387.5Q181 378 155 378Q129 378 107 387.5Q85 397 68.5 413.5Q52 430 42.5 452Q33 474 33 500ZM779 114Q779 88 769.5 65.5Q760 43 743.5 26.5Q727 10 704.5 0Q682 -10 657 -10Q631 -10 608.5 0Q586 10 569.5 26.5Q553 43 543 65.5Q533 88 533 114Q533 139 543 161.5Q553 184 569.5 200.5Q586 217 608.5 226.5Q631 236 657 236Q682 236 704.5 226.5Q727 217 743.5 200.5Q760 184 769.5 161.5Q779 139 779 114ZM701 114Q701 123 697.5 131.5Q694 140 688 145.5Q682 151 674 154.5Q666 158 657 158Q647 158 639 154.5Q631 151 624.5 145.5Q618 140 614.5 131.5Q611 123 611 114Q611 95 624.5 81.5Q638 68 657 68Q666 68 674 71.5Q682 75 688 81.5Q694 88 697.5 96Q701 104 701 114Z" glyph-name="perthousand.lt" horiz-adv-x="800" /><glyph d="M51 357H220V526H336V357H504V241H336V73H220V241H51Z" glyph-name="plus" horiz-adv-x="555" unicode="+" /><glyph d="M33 357H202V526H318V357H486V241H318V73H202V241H33Z" glyph-name="plus.lt" horiz-adv-x="520" /><glyph d="M66 434H231V561H336V434H502V329H336V201H231V329H66ZM66 153H502V48H66Z" glyph-name="plusminus" horiz-adv-x="568" unicode="&#177;" /><glyph d="M42 434H207V561H312V434H478V329H312V201H207V329H42ZM42 153H478V48H42Z" glyph-name="plusminus.lt" horiz-adv-x="520" /><glyph d="M669 307Q669 238 644 180Q619 122 576 79.5Q533 37 475 13.5Q417 -10 352 -10Q287 -10 229 13.5Q171 37 128 79.5Q85 122 60 180Q35 238 35 307Q35 376 60 434Q85 492 128 534.5Q171 577 229 600.5Q287 624 352 624Q417 624 475 600.5Q533 577 576 534.5Q619 492 644 434Q669 376 669 307ZM622 307Q622 366 600.5 415.5Q579 465 542.5 501Q506 537 456.5 557.5Q407 578 352 578Q296 578 247 557.5Q198 537 161.5 501Q125 465 103.5 415.5Q82 366 82 307Q82 248 103.5 198.5Q125 149 161.5 113Q198 77 247 56.5Q296 36 352 36Q407 36 456.5 56.5Q506 77 542.5 113Q579 149 600.5 198.5Q622 248 622 307ZM327 230V124H221V493H391Q452 493 490 459Q528 425 528 362Q528 297 490 263.5Q452 230 391 230ZM424 362Q424 380 413.5 391.5Q403 403 379 403H327V320H379Q403 320 413.5 331.5Q424 343 424 362Z" glyph-name="published" horiz-adv-x="704" /><glyph d="M329 36Q321 27 309.5 18.5Q298 10 283.5 4Q269 -2 252.5 -6Q236 -10 218 -10Q170 -10 132.5 8.5Q95 27 69.5 59.5Q44 92 31 134.5Q18 177 18 225Q18 273 31 316Q44 359 69.5 391Q95 423 132.5 441.5Q170 460 218 460Q236 460 252.5 456Q269 452 283.5 446Q298 440 309.5 431.5Q321 423 329 414V450H486V-159H329ZM329 284Q321 303 303 314.5Q285 326 261 326Q241 326 224.5 318.5Q208 311 197.5 297.5Q187 284 181 265.5Q175 247 175 225Q175 203 181 184.5Q187 166 197.5 153Q208 140 224.5 132Q241 124 261 124Q283 124 302 135.5Q321 147 329 166Z" glyph-name="q" horiz-adv-x="528" unicode="q" /><glyph d="M154 82Q154 101 161.5 117Q169 133 181.5 145Q194 157 211 163.5Q228 170 248 170Q288 170 315 145.5Q342 121 342 82Q342 44 315 18.5Q288 -7 248 -7Q228 -7 211 0Q194 7 181.5 18.5Q169 30 161.5 46.5Q154 63 154 82ZM456 440Q456 412 446.5 388Q437 364 422.5 343Q408 322 390.5 303Q373 284 357 264Q340 244 334.5 230.5Q329 217 329 206H173Q173 220 175.5 231.5Q178 243 183.5 255Q189 267 198.5 281Q208 295 223 312Q236 328 248.5 342.5Q261 357 270.5 370Q280 383 286 396Q292 409 292 424Q292 449 276.5 464Q261 479 236 479Q208 479 193 461.5Q178 444 176 419H14Q18 462 35 499Q52 536 81 564Q110 592 150.5 608Q191 624 243 624Q291 624 330 611Q369 598 397 574.5Q425 551 440.5 517Q456 483 456 440Z" glyph-name="question" horiz-adv-x="476" unicode="?" /><glyph d="M321 436Q321 417 313.5 401Q306 385 293.5 373Q281 361 264 354.5Q247 348 227 348Q187 348 160 372.5Q133 397 133 436Q133 474 160 499.5Q187 525 227 525Q247 525 264 518Q281 511 293.5 499.5Q306 488 313.5 471.5Q321 455 321 436ZM19 78Q19 106 28.5 130Q38 154 52.5 175Q67 196 84.5 215Q102 234 118 254Q135 274 140.5 287.5Q146 301 146 312H302Q302 298 299.5 286.5Q297 275 291.5 263Q286 251 276.5 237Q267 223 252 206Q239 190 226.5 175.5Q214 161 204.5 148Q195 135 189 122Q183 109 183 94Q183 69 198.5 54Q214 39 239 39Q267 39 282 56.5Q297 74 299 99H461Q457 56 440 19Q423 -18 394 -46Q365 -74 324.5 -90Q284 -106 232 -106Q184 -106 145 -93Q106 -80 78 -56.5Q50 -33 34.5 1Q19 35 19 78Z" glyph-name="questiondown" horiz-adv-x="475" unicode="&#191;" /><glyph d="M321 532Q321 513 313.5 497Q306 481 293.5 469Q281 457 264 450Q247 443 228 443Q187 443 160 468Q133 493 133 532Q133 570 160 595.5Q187 621 228 621Q247 621 264 614Q281 607 293.5 595Q306 583 313.5 567Q321 551 321 532ZM20 174Q20 202 29.5 225.5Q39 249 53 270Q67 291 84.5 310.5Q102 330 118 349Q135 370 140.5 383Q146 396 147 408H303Q302 394 299.5 382.5Q297 371 291.5 358.5Q286 346 276.5 332.5Q267 319 253 302Q239 285 226.5 271Q214 257 204.5 244Q195 231 189 217.5Q183 204 183 190Q183 165 198.5 149.5Q214 134 239 134Q268 134 282.5 152Q297 170 299 194H462Q457 151 440 114Q423 77 394 49.5Q365 22 325 6Q285 -10 233 -10Q185 -10 145.5 2.5Q106 15 78 39Q50 63 35 97Q20 131 20 174Z" glyph-name="questiondown.cap" horiz-adv-x="476" /><glyph d="M36 614H157V355H36ZM200 614H321V355H200Z" glyph-name="quotedbl" horiz-adv-x="357" unicode="&quot;" /><glyph d="M88 1Q61 6 41 27Q21 48 21 82Q21 121 47.5 145.5Q74 170 114 170Q151 170 178.5 145Q206 120 206 72Q206 45 195 19Q184 -7 168 -31L114 -113H15ZM301 1Q274 6 254 27Q234 48 234 82Q234 121 260.5 145.5Q287 170 326 170Q364 170 391 145Q418 120 418 72Q418 45 407 19Q396 -7 381 -31L327 -113H228Z" glyph-name="quotedblbase" horiz-adv-x="435" unicode="&#8222;" /><glyph d="M134 500Q162 495 182 474Q202 453 202 419Q202 380 175.5 355.5Q149 331 109 331Q72 331 44.5 356Q17 381 17 428Q17 456 28 482Q39 508 55 532L109 614H208ZM347 500Q374 495 394 474Q414 453 414 419Q414 380 388 355.5Q362 331 322 331Q285 331 257.5 356Q230 381 230 428Q230 456 241 482Q252 508 268 532L321 614H420Z" glyph-name="quotedblleft" horiz-adv-x="435" unicode="&#8220;" /><glyph d="M301 454Q274 460 254 481Q234 502 234 536Q234 575 260.5 599.5Q287 624 326 624Q364 624 391 599Q418 574 418 526Q418 499 407 472.5Q396 446 381 423L327 341H228ZM88 454Q61 460 41 481Q21 502 21 536Q21 575 47.5 599.5Q74 624 114 624Q151 624 178.5 599Q206 574 206 526Q206 499 195 472.5Q184 446 168 423L114 341H15Z" glyph-name="quotedblright" horiz-adv-x="435" unicode="&#8221;" /><glyph d="M134 500Q162 495 182 474Q202 453 202 419Q202 380 175.5 355.5Q149 331 109 331Q72 331 44.5 356Q17 381 17 428Q17 456 28 482Q39 508 55 532L109 614H208Z" glyph-name="quoteleft" horiz-adv-x="223" unicode="&#8216;" /><glyph d="M88 454Q61 460 41 481Q21 502 21 536Q21 575 47.5 599.5Q74 624 114 624Q151 624 178.5 599Q206 574 206 526Q206 499 195 472.5Q184 446 168 423L114 341H15Z" glyph-name="quoteright" horiz-adv-x="223" unicode="&#8217;" /><glyph d="M88 1Q61 6 41 27Q21 48 21 82Q21 121 47.5 145.5Q74 170 114 170Q151 170 178.5 145Q206 120 206 72Q206 45 195 19Q184 -7 168 -31L114 -113H15Z" glyph-name="quotesinglbase" horiz-adv-x="223" unicode="&#8218;" /><glyph d="M36 614H165V355H36Z" glyph-name="quotesingle" horiz-adv-x="201" unicode="&apos;" /><glyph d="M344 301Q329 309 313.5 312Q298 315 279 315Q247 315 226 301.5Q205 288 199 264V0H42V450H199V410Q215 433 241 446.5Q267 460 301 460Q316 460 327.5 457.5Q339 455 344 452Z" glyph-name="r" horiz-adv-x="365" unicode="r" /><glyph d="M344 301Q329 309 313.5 312Q298 315 279 315Q247 315 226 301.5Q205 288 199 264V0H42V450H199V410Q215 433 241 446.5Q267 460 301 460Q316 460 327.5 457.5Q339 455 344 452ZM121 500 203 650H352L265 500Z" glyph-name="racute" horiz-adv-x="365" unicode="&#341;" /><glyph d="M344 301Q329 309 313.5 312Q298 315 279 315Q247 315 226 301.5Q205 288 199 264V0H42V450H199V410Q215 433 241 446.5Q267 460 301 460Q316 460 327.5 457.5Q339 455 344 452ZM258 498H138L42 649H158L198 594L237 649H354Z" glyph-name="rcaron" horiz-adv-x="365" unicode="&#345;" /><glyph d="M344 301Q329 309 313.5 312Q298 315 279 315Q247 315 226 301.5Q205 288 199 264V0H42V450H199V410Q215 433 241 446.5Q267 460 301 460Q316 460 327.5 457.5Q339 455 344 452ZM86 -172Q66 -166 51.5 -149Q37 -132 37 -105Q37 -73 60.5 -53Q84 -33 119 -33Q151 -33 175 -53.5Q199 -74 199 -111Q199 -137 188 -157.5Q177 -178 160 -199L131 -236H36Z" glyph-name="rcommaaccent" horiz-adv-x="365" unicode="&#343;" /><glyph d="M384 441Q384 401 369.5 367.5Q355 334 330.5 309.5Q306 285 273 271.5Q240 258 203 258Q166 258 133 271.5Q100 285 75.5 309.5Q51 334 36.5 367.5Q22 401 22 441Q22 481 36.5 514.5Q51 548 75.5 572.5Q100 597 133 610.5Q166 624 203 624Q240 624 273 610.5Q306 597 330.5 572.5Q355 548 369.5 514.5Q384 481 384 441ZM351 441Q351 474 339.5 502Q328 530 308 550.5Q288 571 261 582Q234 593 203 593Q172 593 145 582Q118 571 98 550.5Q78 530 66.5 502Q55 474 55 441Q55 408 66.5 380Q78 352 98 331.5Q118 311 145 300Q172 289 203 289Q234 289 261 300Q288 311 308 331.5Q328 352 339.5 380Q351 408 351 441ZM185 404V346H126V538H219Q251 538 271 520Q291 502 291 469Q291 448 281.5 433Q272 418 255 411L297 346H232L197 404ZM233 469Q233 479 227 484Q221 489 210 489H185V451H210Q221 451 227 455.5Q233 460 233 469Z" glyph-name="registered" horiz-adv-x="407" unicode="&#174;" /><glyph d="M358 590Q358 567 350 548Q342 529 327 515Q312 501 292.5 493Q273 485 250 485Q227 485 207.5 493Q188 501 173.5 515Q159 529 150.5 548Q142 567 142 590Q142 612 150.5 631Q159 650 173.5 664.5Q188 679 207.5 687Q227 695 250 695Q273 695 292.5 687Q312 679 327 664.5Q342 650 350 631Q358 612 358 590ZM287 590Q287 605 276.5 615.5Q266 626 250 626Q235 626 225 615.5Q215 605 215 590Q215 575 225 564.5Q235 554 250 554Q266 554 276.5 564.5Q287 575 287 590Z" glyph-name="ring" horiz-adv-x="500" unicode="&#730;" /><glyph d="M358 747Q358 724 350 705Q342 686 327 672.5Q312 659 292.5 650.5Q273 642 250 642Q227 642 207.5 650.5Q188 659 173.5 672.5Q159 686 150.5 705Q142 724 142 747Q142 769 150.5 788.5Q159 808 173.5 822Q188 836 207.5 844.5Q227 853 250 853Q273 853 292.5 844.5Q312 836 327 822Q342 808 350 788.5Q358 769 358 747ZM287 747Q287 762 276.5 772.5Q266 783 250 783Q235 783 225 772.5Q215 762 215 747Q215 732 225 721.5Q235 711 250 711Q266 711 276.5 721.5Q287 732 287 747Z" glyph-name="ring.cap" horiz-adv-x="500" /><glyph d="M169 139Q174 120 189.5 110.5Q205 101 226 101Q236 101 244 102.5Q252 104 258 108Q264 112 267.5 117.5Q271 123 271 131Q271 144 262.5 149.5Q254 155 236 159L149 177Q92 189 58.5 219Q25 249 25 308Q25 344 40 372.5Q55 401 81 420.5Q107 440 141.5 450Q176 460 216 460Q309 460 360 420.5Q411 381 420 314H275Q272 329 260 339.5Q248 350 221 350Q204 350 191 342.5Q178 335 178 320Q178 310 186 304Q194 298 209 295L299 274Q360 259 392.5 226.5Q425 194 425 139Q425 103 409.5 75Q394 47 367.5 28.5Q341 10 305 0Q269 -10 228 -10Q185 -10 148.5 -0.5Q112 9 84 28Q56 47 38.5 74.5Q21 102 16 139Z" glyph-name="s" horiz-adv-x="448" unicode="s" /><glyph d="M169 139Q174 120 189.5 110.5Q205 101 226 101Q236 101 244 102.5Q252 104 258 108Q264 112 267.5 117.5Q271 123 271 131Q271 144 262.5 149.5Q254 155 236 159L149 177Q92 189 58.5 219Q25 249 25 308Q25 344 40 372.5Q55 401 81 420.5Q107 440 141.5 450Q176 460 216 460Q309 460 360 420.5Q411 381 420 314H275Q272 329 260 339.5Q248 350 221 350Q204 350 191 342.5Q178 335 178 320Q178 310 186 304Q194 298 209 295L299 274Q360 259 392.5 226.5Q425 194 425 139Q425 103 409.5 75Q394 47 367.5 28.5Q341 10 305 0Q269 -10 228 -10Q185 -10 148.5 -0.5Q112 9 84 28Q56 47 38.5 74.5Q21 102 16 139ZM147 500 229 650H378L291 500Z" glyph-name="sacute" horiz-adv-x="448" unicode="&#347;" /><glyph d="M169 139Q174 120 189.5 110.5Q205 101 226 101Q236 101 244 102.5Q252 104 258 108Q264 112 267.5 117.5Q271 123 271 131Q271 144 262.5 149.5Q254 155 236 159L149 177Q92 189 58.5 219Q25 249 25 308Q25 344 40 372.5Q55 401 81 420.5Q107 440 141.5 450Q176 460 216 460Q309 460 360 420.5Q411 381 420 314H275Q272 329 260 339.5Q248 350 221 350Q204 350 191 342.5Q178 335 178 320Q178 310 186 304Q194 298 209 295L299 274Q360 259 392.5 226.5Q425 194 425 139Q425 103 409.5 75Q394 47 367.5 28.5Q341 10 305 0Q269 -10 228 -10Q185 -10 148.5 -0.5Q112 9 84 28Q56 47 38.5 74.5Q21 102 16 139ZM285 498H165L69 649H185L225 594L264 649H381Z" glyph-name="scaron" horiz-adv-x="448" unicode="&#353;" /><glyph d="M169 139Q174 120 189.5 110.5Q205 101 226 101Q236 101 244 102.5Q252 104 258 108Q264 112 267.5 117.5Q271 123 271 131Q271 144 262.5 149.5Q254 155 236 159L149 177Q92 189 58.5 219Q25 249 25 308Q25 344 40 372.5Q55 401 81 420.5Q107 440 141.5 450Q176 460 216 460Q309 460 360 420.5Q411 381 420 314H275Q272 329 260 339.5Q248 350 221 350Q204 350 191 342.5Q178 335 178 320Q178 310 186 304Q194 298 209 295L299 274Q360 259 392.5 226.5Q425 194 425 139Q425 103 409.5 75Q394 47 367.5 28.5Q341 10 305 0Q269 -10 228 -10Q185 -10 148.5 -0.5Q112 9 84 28Q56 47 38.5 74.5Q21 102 16 139ZM88 -181 156 -40H292L221 -181Z" glyph-name="scedilla" horiz-adv-x="448" unicode="&#351;" /><glyph d="M169 139Q174 120 189.5 110.5Q205 101 226 101Q236 101 244 102.5Q252 104 258 108Q264 112 267.5 117.5Q271 123 271 131Q271 144 262.5 149.5Q254 155 236 159L149 177Q92 189 58.5 219Q25 249 25 308Q25 344 40 372.5Q55 401 81 420.5Q107 440 141.5 450Q176 460 216 460Q309 460 360 420.5Q411 381 420 314H275Q272 329 260 339.5Q248 350 221 350Q204 350 191 342.5Q178 335 178 320Q178 310 186 304Q194 298 209 295L299 274Q360 259 392.5 226.5Q425 194 425 139Q425 103 409.5 75Q394 47 367.5 28.5Q341 10 305 0Q269 -10 228 -10Q185 -10 148.5 -0.5Q112 9 84 28Q56 47 38.5 74.5Q21 102 16 139ZM381 498H264L225 553L185 498H69L165 649H285Z" glyph-name="scircumflex" horiz-adv-x="448" unicode="&#349;" /><glyph d="M169 139Q174 120 189.5 110.5Q205 101 226 101Q236 101 244 102.5Q252 104 258 108Q264 112 267.5 117.5Q271 123 271 131Q271 144 262.5 149.5Q254 155 236 159L149 177Q92 189 58.5 219Q25 249 25 308Q25 344 40 372.5Q55 401 81 420.5Q107 440 141.5 450Q176 460 216 460Q309 460 360 420.5Q411 381 420 314H275Q272 329 260 339.5Q248 350 221 350Q204 350 191 342.5Q178 335 178 320Q178 310 186 304Q194 298 209 295L299 274Q360 259 392.5 226.5Q425 194 425 139Q425 103 409.5 75Q394 47 367.5 28.5Q341 10 305 0Q269 -10 228 -10Q185 -10 148.5 -0.5Q112 9 84 28Q56 47 38.5 74.5Q21 102 16 139ZM191 -172Q171 -166 156.5 -149Q142 -132 142 -105Q142 -73 165.5 -53Q189 -33 224 -33Q256 -33 280 -53.5Q304 -74 304 -111Q304 -137 293 -157.5Q282 -178 265 -199L236 -236H141Z" glyph-name="scommaaccent" horiz-adv-x="448" unicode="&#537;" /><glyph d="M388 122Q402 107 410.5 88Q419 69 419 44Q419 11 405.5 -15.5Q392 -42 367.5 -61Q343 -80 309.5 -90Q276 -100 237 -100Q145 -100 96 -59Q47 -18 39 51H175Q178 32 191 19.5Q204 7 229 7Q246 7 259 16Q272 25 272 43Q272 58 262 66.5Q252 75 239 84L125 147Q100 160 81 174.5Q62 189 48 206Q34 223 27 243.5Q20 264 20 288Q20 325 38 354.5Q56 384 89 402Q76 417 67.5 436Q59 455 59 480Q59 513 73 539.5Q87 566 111 585Q135 604 168.5 614Q202 624 241 624Q333 624 382 582.5Q431 541 439 473H303Q300 492 287 504.5Q274 517 249 517Q233 517 219.5 508Q206 499 206 481Q206 473 209 467.5Q212 462 216.5 457.5Q221 453 227 448.5Q233 444 240 440L353 377Q378 364 397.5 349.5Q417 335 430.5 318Q444 301 451 280.5Q458 260 458 236Q458 198 439.5 168.5Q421 139 388 122ZM293 191Q307 195 313 204.5Q319 214 319 225Q319 240 309 251Q299 262 282 272L185 333Q171 328 165.5 319Q160 310 160 299Q160 284 169.5 273Q179 262 196 252Z" glyph-name="section" horiz-adv-x="478" unicode="&#167;" /><glyph d="M87 10Q59 15 39 36Q19 57 19 92Q19 130 45.5 155Q72 180 112 180Q149 180 176.5 155Q204 130 204 82Q204 54 193 28Q182 2 166 -22L111 -105H12ZM19 352Q19 392 45.5 419Q72 446 111 446Q130 446 147.5 438.5Q165 431 177 418.5Q189 406 196.5 389Q204 372 204 352Q204 332 196.5 315Q189 298 177 285.5Q165 273 147.5 265.5Q130 258 111 258Q92 258 75 265.5Q58 273 46 285.5Q34 298 26.5 315Q19 332 19 352Z" glyph-name="semicolon" horiz-adv-x="223" unicode=";" /><glyph d="M105 10Q77 15 57 36Q37 57 37 92Q37 130 63.5 155Q90 180 130 180Q167 180 194.5 155Q222 130 222 82Q222 54 211 28Q200 2 184 -22L129 -105H30ZM37 352Q37 392 63.5 419Q90 446 129 446Q148 446 165.5 438.5Q183 431 195 418.5Q207 406 214.5 389Q222 372 222 352Q222 332 214.5 315Q207 298 195 285.5Q183 273 165.5 265.5Q148 258 129 258Q110 258 93 265.5Q76 273 64 285.5Q52 298 44.5 315Q37 332 37 352Z" glyph-name="semicolon.tab" horiz-adv-x="260" /><glyph d="M257 0H95L274 476H13V614H444V506Z" glyph-name="seven" horiz-adv-x="467" unicode="7" /><glyph d="M294 0H133L315 476H34V614H485V506Z" glyph-name="seven.lt" horiz-adv-x="520" /><glyph d="M181 202Q181 183 187.5 168Q194 153 205 142Q216 131 231.5 125Q247 119 265 119Q283 119 298 125Q313 131 324.5 142Q336 153 342 168Q348 183 348 202Q348 220 342 236Q336 252 324.5 263Q313 274 298 280Q283 286 265 286Q247 286 231.5 280Q216 274 205 263Q194 252 187.5 236.5Q181 221 181 202ZM335 446Q328 467 313 480Q298 493 271 493Q250 493 233.5 483Q217 473 205.5 457.5Q194 442 186.5 420.5Q179 399 177 371Q176 364 176 364Q176 364 176 359Q183 369 194 377Q205 385 219.5 391.5Q234 398 251.5 401.5Q269 405 289 405Q336 405 373.5 389Q411 373 437.5 346.5Q464 320 478 283.5Q492 247 492 206Q492 160 476 120.5Q460 81 430.5 52Q401 23 359 6.5Q317 -10 264 -10Q204 -10 155.5 16Q107 42 76 92Q48 133 36.5 182.5Q25 232 25 293Q25 365 41.5 425.5Q58 486 89 530.5Q120 575 166 599.5Q212 624 270 624Q362 624 417 576Q472 528 487 446Z" glyph-name="six" horiz-adv-x="517" unicode="6" /><glyph d="M339 446Q332 467 317 480Q302 493 275 493Q253 493 234 482Q215 471 198 442Q181 413 179 359Q205 392 255 401Q273 405 293 405Q340 405 377.5 389Q415 373 441.5 346.5Q468 320 482 283.5Q496 247 496 206Q496 160 480 120.5Q464 81 434.5 52Q405 23 363 6.5Q321 -10 268 -10Q208 -10 159.5 16Q111 42 80 92Q52 133 40.5 182.5Q29 232 29 293Q29 365 45.5 425.5Q62 486 93 530.5Q124 575 170 599.5Q216 624 274 624Q366 624 421 576Q476 528 491 446ZM185 202Q185 183 191.5 168Q198 153 209 142Q220 131 235.5 125Q251 119 269 119Q287 119 302 125Q317 131 328.5 142Q340 153 346 168Q352 183 352 202Q352 220 346 236Q340 252 328 263Q321 270 312 274Q304 279 293 283Q281 286 269 286Q251 286 235.5 280Q220 274 209 263Q198 252 191.5 236.5Q185 221 185 202Z" glyph-name="six.lt" horiz-adv-x="520" /><glyph d="M253 650H389L141 -84H5Z" glyph-name="slash" horiz-adv-x="394" unicode="/" /><glyph d="M253 670H389L141 -64H5Z" glyph-name="slash.cap" horiz-adv-x="394" /><glyph glyph-name="space" horiz-adv-x="199" unicode=" " /><glyph glyph-name="space.tab" horiz-adv-x="260" /><glyph d="M238 222Q238 196 233 171Q228 146 217 131H480V0H24V131H68Q78 148 83 168.5Q88 189 88 222V244H24V363H88V417Q88 461 102 499Q116 537 141.5 565Q167 593 204 608.5Q241 624 288 624Q331 624 366 611Q401 598 426 574.5Q451 551 465.5 517.5Q480 484 482 444H341Q339 466 327.5 480Q316 494 292 494Q264 494 251 474Q238 454 238 422V363H350V244H238Z" glyph-name="sterling" horiz-adv-x="503" unicode="&#163;" /><glyph d="M245 222Q245 196 240 171Q235 146 224 131H487V0H31V131H75Q85 148 90 168.5Q95 189 95 222V244H31V363H95V417Q95 461 109 499Q123 537 148.5 565Q174 593 211 608.5Q248 624 295 624Q338 624 373 611Q408 598 433 574.5Q458 551 472.5 517.5Q487 484 489 444H348Q346 466 334.5 480Q323 494 299 494Q271 494 258 474Q245 454 245 422V363H357V244H245Z" glyph-name="sterling.lt" horiz-adv-x="520" /><glyph d="M75 327H9V450H75V574H230V450H324V327H230V179Q230 152 242 140Q254 128 278 128Q291 128 304 130.5Q317 133 328 138V5Q314 -1 290.5 -5Q267 -9 241 -9Q160 -9 117.5 30Q75 69 75 155Z" glyph-name="t" horiz-adv-x="358" unicode="t" /><glyph d="M26 294H75V346H11V450H75V574H232V450H326V346H232V294H297V198H232V182Q232 155 244 143Q256 131 280 131Q293 131 306 134Q319 137 330 141V5Q316 -1 292.5 -5Q269 -9 243 -9Q162 -9 118.5 30Q75 69 75 155V198H26Z" glyph-name="tbar" horiz-adv-x="360" unicode="&#359;" /><glyph d="M73 327H9V450H73V574H230V450H324V327H230V182Q230 155 242 143Q254 131 278 131Q291 131 304 134Q317 137 328 141V5Q314 -1 290.5 -5Q267 -9 241 -9Q160 -9 116.5 30Q73 69 73 155ZM262 487 304 654H427L383 487Z" glyph-name="tcaron" horiz-adv-x="358" unicode="&#357;" /><glyph d="M73 327H9V450H73V574H230V450H324V327H230V182Q230 155 242 143Q254 131 278 131Q291 131 304 134Q317 137 328 141V5Q314 -1 290.5 -5Q267 -9 241 -9Q160 -9 116.5 30Q73 69 73 155ZM172 -172Q152 -166 137.5 -149Q123 -132 123 -105Q123 -73 146.5 -53Q170 -33 205 -33Q237 -33 261 -53.5Q285 -74 285 -111Q285 -137 274 -157.5Q263 -178 246 -199L218 -236H122Z" glyph-name="tcommaaccent" horiz-adv-x="358" unicode="&#355;" /><glyph d="M199 -159H42V650H199V414Q207 423 219 431.5Q231 440 245 446Q259 452 276 456Q293 460 310 460Q358 460 395.5 441.5Q433 423 458.5 391Q484 359 497 316Q510 273 510 225Q510 177 497 134.5Q484 92 458.5 59.5Q433 27 395.5 8.5Q358 -10 310 -10Q293 -10 276 -6Q259 -2 245 4Q231 10 219 18.5Q207 27 199 36ZM199 166Q208 147 226.5 135.5Q245 124 268 124Q288 124 304 132Q320 140 330.5 153Q341 166 347 184.5Q353 203 353 225Q353 247 347 265.5Q341 284 330.5 297.5Q320 311 304 318.5Q288 326 268 326Q244 326 226 314.5Q208 303 199 284Z" glyph-name="thorn" horiz-adv-x="528" unicode="&#254;" /><glyph d="M193 368H226Q242 368 256.5 372Q271 376 281 383.5Q291 391 297.5 402.5Q304 414 304 430Q304 456 287.5 473Q271 490 241 490Q209 490 191 470Q173 450 170 422H17Q21 463 39 500Q57 537 86.5 564.5Q116 592 156 608Q196 624 247 624Q295 624 334 610Q373 596 400 571.5Q427 547 441.5 512Q456 477 456 436Q456 416 450.5 396.5Q445 377 436.5 361Q428 345 415.5 331.5Q403 318 389 310Q407 301 421.5 287.5Q436 274 445 257.5Q454 241 459 221.5Q464 202 464 181Q464 140 448.5 105Q433 70 405 44.5Q377 19 336.5 4.5Q296 -10 245 -10Q192 -10 149.5 5Q107 20 76.5 47Q46 74 28.5 112.5Q11 151 8 197H168Q171 166 189.5 145.5Q208 125 243 125Q273 125 292 142.5Q311 160 311 189Q311 204 305 216.5Q299 229 288.5 237Q278 245 263 249Q248 253 231 253H193Z" glyph-name="three" horiz-adv-x="487" unicode="3" /><glyph d="M213 368H248Q264 368 278.5 372Q293 376 303.5 383.5Q314 391 319.5 402.5Q325 414 325 430Q325 456 308 473Q291 490 261 490Q229 490 211 470Q193 450 190 422H37Q41 463 59 500Q77 537 106.5 564.5Q136 592 176.5 608Q217 624 268 624Q316 624 355 610Q394 596 421.5 571.5Q449 547 463.5 512Q478 477 478 436Q478 416 472.5 396.5Q467 377 458 361Q449 345 437 331.5Q425 318 411 310Q429 301 443.5 287.5Q458 274 467 257Q476 240 481 221Q486 202 486 181Q486 140 471 105Q456 70 427.5 44.5Q399 19 358 4.5Q317 -10 266 -10Q212 -10 169.5 5Q127 20 96.5 47Q66 74 48.5 112.5Q31 151 28 197H189Q192 166 210 145.5Q228 125 264 125Q293 125 312.5 143Q332 161 332 189Q332 204 326.5 216.5Q321 229 310 237Q299 245 284 249Q269 253 252 253H213Z" glyph-name="three.lt" horiz-adv-x="520" /><glyph d="M212 0H119L539 614H632ZM135 476H159Q175 476 185.5 483Q196 490 196 506Q196 518 188.5 526.5Q181 535 166 535Q151 535 142.5 524Q134 513 132 500H31Q34 524 43.5 545.5Q53 567 70 583Q87 599 110.5 609Q134 619 163 619Q225 619 259 588.5Q293 558 293 507Q293 487 283 467.5Q273 448 259 439Q277 430 287 411.5Q297 393 297 373Q297 321 262 289.5Q227 258 164 258Q103 258 67 291.5Q31 325 28 380H134Q136 365 144 355Q152 345 168 345Q182 345 190.5 353Q199 361 199 375Q199 391 189 397.5Q179 404 163 404H135ZM536 144H583V195H673V144H720V57H673V0H583V57H424V138L530 350H631Z" glyph-name="threequarters" horiz-adv-x="749" unicode="&#190;" /><glyph d="M120 476H144Q160 476 170.5 483Q181 490 181 506Q181 518 173.5 526.5Q166 535 151 535Q136 535 127.5 524Q119 513 117 500H16Q19 524 28.5 545.5Q38 567 55 583Q72 599 95.5 609Q119 619 148 619Q210 619 244 588.5Q278 558 278 507Q278 487 268 467.5Q258 448 244 439Q262 430 272 411.5Q282 393 282 373Q282 321 247 289.5Q212 258 149 258Q88 258 52 291.5Q16 325 13 380H119Q121 365 129 355Q137 345 153 345Q167 345 175.5 353Q184 361 184 375Q184 391 174 397.5Q164 404 148 404H120Z" glyph-name="threesuperior" horiz-adv-x="301" unicode="&#179;" /><glyph d="M399 647Q399 616 394.5 589Q390 562 379.5 541.5Q369 521 352 509Q335 497 310 497Q293 497 280 502.5Q267 508 256 515Q245 522 234.5 527.5Q224 533 212 533Q200 533 193.5 524Q187 515 186 500H101Q101 531 105.5 558Q110 585 120 605.5Q130 626 147 638Q164 650 189 650Q206 650 219 644.5Q232 639 243.5 632Q255 625 265.5 619.5Q276 614 288 614Q299 614 306 623Q313 632 313 647Z" glyph-name="tilde" horiz-adv-x="500" unicode="&#732;" /><glyph d="M407 809Q407 779 402.5 751.5Q398 724 388 703.5Q378 683 361 671Q344 659 319 659Q301 659 286 664.5Q271 670 257 676.5Q243 683 229.5 688.5Q216 694 204 694Q192 694 185.5 685.5Q179 677 178 663H93Q93 693 97.5 720Q102 747 112 768Q122 789 139 801Q156 813 181 813Q199 813 214 807.5Q229 802 243 795.5Q257 789 270 783.5Q283 778 296 778Q308 778 314.5 786Q321 794 322 809Z" glyph-name="tilde.cap" horiz-adv-x="500" /><glyph d="M20 614H255V541H178V360H96V541H20ZM407 360 360 501V360H288V614H384L432 470L480 614H576V360H503V501L456 360Z" glyph-name="trademark" horiz-adv-x="610" unicode="&#8482;" /><glyph d="M299 423Q299 448 283.5 464Q268 480 242 480Q213 480 198 462Q183 444 181 419H15Q19 462 37 499Q55 536 83.5 564Q112 592 152 608Q192 624 241 624Q291 624 332 610Q373 596 401.5 571.5Q430 547 445.5 511.5Q461 476 461 433Q461 403 451.5 377.5Q442 352 426 328.5Q410 305 388.5 283Q367 261 344 238L243 139H464V0H18V103L229 313Q245 329 258 343.5Q271 358 280 371Q289 384 294 396.5Q299 409 299 423Z" glyph-name="two" horiz-adv-x="491" unicode="2" /><glyph d="M315 423Q315 448 299.5 464Q284 480 258 480Q229 480 214 462Q199 444 197 419H31Q35 462 53 499Q71 536 99.5 564Q128 592 168 608Q208 624 257 624Q307 624 348 610Q389 596 417.5 571.5Q446 547 461.5 511.5Q477 476 477 433Q477 403 467.5 377.5Q458 352 442 328.5Q426 305 404.5 282.5Q383 260 360 238L259 139H480V0H34V103L245 313Q260 329 273.5 343.5Q287 358 296 371Q305 384 310 396.5Q315 409 315 423Z" glyph-name="two.lt" horiz-adv-x="520" /><glyph d="M185 501Q185 512 178 519.5Q171 527 159 527Q146 527 138.5 518.5Q131 510 131 499H21Q24 524 34 545.5Q44 567 61.5 583.5Q79 600 103 609.5Q127 619 157 619Q217 619 253 588Q289 557 289 507Q289 472 269.5 448Q250 424 225 400L174 353H288V264H24V332L152 451Q167 466 176 477Q185 488 185 501Z" glyph-name="twosuperior" horiz-adv-x="311" unicode="&#178;" /><glyph d="M475 0H319V39Q300 18 268.5 4Q237 -10 199 -10Q124 -10 82 35Q40 80 40 155V450H197V192Q197 164 210.5 145.5Q224 127 255 127Q277 127 294.5 140.5Q312 154 318 177V450H475Z" glyph-name="u" horiz-adv-x="517" unicode="u" /><glyph d="M475 0H319V39Q300 18 268.5 4Q237 -10 199 -10Q124 -10 82 35Q40 80 40 155V450H197V192Q197 164 210.5 145.5Q224 127 255 127Q277 127 294.5 140.5Q312 154 318 177V450H475ZM182 500 264 650H413L326 500Z" glyph-name="uacute" horiz-adv-x="517" unicode="&#250;" /><glyph d="M475 0H319V39Q300 18 268.5 4Q237 -10 199 -10Q124 -10 82 35Q40 80 40 155V450H197V192Q197 164 210.5 145.5Q224 127 255 127Q277 127 294.5 140.5Q312 154 318 177V450H475ZM258 488Q227 488 201 497.5Q175 507 155.5 526Q136 545 125.5 573Q115 601 115 638H223Q223 616 232 603.5Q241 591 258 591Q277 591 285.5 603.5Q294 616 294 638H402Q402 601 391.5 573Q381 545 361.5 526Q342 507 316 497.5Q290 488 258 488Z" glyph-name="ubreve" horiz-adv-x="517" unicode="&#365;" /><glyph d="M475 0H319V39Q300 18 268.5 4Q237 -10 199 -10Q124 -10 82 35Q40 80 40 155V450H197V192Q197 164 210.5 145.5Q224 127 255 127Q277 127 294.5 140.5Q312 154 318 177V450H475ZM415 498H298L259 553L219 498H103L199 649H319Z" glyph-name="ucircumflex" horiz-adv-x="517" unicode="&#251;" /><glyph d="M475 0H319V39Q300 18 268.5 4Q237 -10 199 -10Q124 -10 82 35Q40 80 40 155V450H197V192Q197 164 210.5 145.5Q224 127 255 127Q277 127 294.5 140.5Q312 154 318 177V450H475ZM94 567Q94 599 116.5 621.5Q139 644 171 644Q187 644 201 638Q215 632 225.5 621.5Q236 611 242 597Q248 583 248 567Q248 535 225 513Q202 491 171 491Q139 491 116.5 513Q94 535 94 567ZM271 567Q271 599 293.5 621.5Q316 644 347 644Q363 644 377 638Q391 632 401.5 621.5Q412 611 418.5 597Q425 583 425 567Q425 535 402 513Q379 491 347 491Q316 491 293.5 513Q271 535 271 567Z" glyph-name="udieresis" horiz-adv-x="517" unicode="&#252;" /><glyph d="M475 0H319V39Q300 18 268.5 4Q237 -10 199 -10Q124 -10 82 35Q40 80 40 155V450H197V192Q197 164 210.5 145.5Q224 127 255 127Q277 127 294.5 140.5Q312 154 318 177V450H475ZM191 500 104 650H253L335 500Z" glyph-name="ugrave" horiz-adv-x="517" unicode="&#249;" /><glyph d="M475 0H319V39Q300 18 268.5 4Q237 -10 199 -10Q124 -10 82 35Q40 80 40 155V450H197V192Q197 164 210.5 145.5Q224 127 255 127Q277 127 294.5 140.5Q312 154 318 177V450H475ZM115 500 191 650H313L237 500ZM273 500 349 650H472L395 500Z" glyph-name="uhungarumlaut" horiz-adv-x="517" unicode="&#369;" /><glyph d="M475 0H319V39Q300 18 268.5 4Q237 -10 199 -10Q124 -10 82 35Q40 80 40 155V450H197V192Q197 164 210.5 145.5Q224 127 255 127Q277 127 294.5 140.5Q312 154 318 177V450H475ZM132 613H385V504H132Z" glyph-name="umacron" horiz-adv-x="517" unicode="&#363;" /><glyph d="M20 -42H361V-161H20Z" glyph-name="underscore" horiz-adv-x="381" unicode="_" /><glyph glyph-name="uni00A0" horiz-adv-x="199" unicode="&#160;" /><glyph d="M36 328H277V196H36Z" glyph-name="uni00AD" horiz-adv-x="321" unicode="&#173;" /><glyph d="M182 0H90L510 614H602ZM536 213H559Q574 213 584.5 220Q595 227 595 242Q595 253 587.5 260.5Q580 268 567 268Q554 268 545.5 258.5Q537 249 535 236H432Q435 260 444.5 281.5Q454 303 470.5 319.5Q487 336 510.5 345.5Q534 355 564 355Q626 355 660 324.5Q694 294 694 243Q694 223 684 203.5Q674 184 659 175Q678 166 687.5 147.5Q697 129 697 109Q697 57 662.5 25.5Q628 -6 565 -6Q504 -6 468 27.5Q432 61 429 116H538Q539 102 546.5 93.5Q554 85 568 85Q582 85 589.5 92Q597 99 597 112Q597 126 587.5 132.5Q578 139 563 139H536ZM215 264H111V497L25 455V560L140 614H215Z" glyph-name="uni2153" horiz-adv-x="731" unicode="&#8531;" /><glyph d="M251 0H158L578 614H671ZM199 503Q199 514 192 521.5Q185 529 173 529Q160 529 152.5 520.5Q145 512 145 501H35Q38 526 48 547.5Q58 569 75.5 585.5Q93 602 117 611.5Q141 621 171 621Q231 621 267 590Q303 559 303 509Q303 474 283.5 449.5Q264 425 239 401L188 355H302V266H38V334L166 453Q181 468 190 479Q199 490 199 503ZM604 212H628Q644 212 654 219Q664 226 664 242Q664 254 657 262.5Q650 271 635 271Q620 271 611.5 260Q603 249 601 236H500Q503 260 512.5 281.5Q522 303 538.5 319.5Q555 336 578.5 345.5Q602 355 632 355Q694 355 728 324.5Q762 294 762 243Q762 223 752 203.5Q742 184 727 175Q746 166 756 147.5Q766 129 766 109Q766 57 731 25.5Q696 -6 633 -6Q572 -6 536 27.5Q500 61 497 116H603Q605 101 613 91Q621 81 637 81Q651 81 659.5 89.5Q668 98 668 112Q668 127 658 133.5Q648 140 632 140H604Z" glyph-name="uni2154" horiz-adv-x="800" unicode="&#8532;" /><glyph d="M182 0H90L510 614H602ZM562 75Q579 75 589 83.5Q599 92 599 106Q599 120 589 129Q579 138 562 138Q546 138 535.5 129Q525 120 525 106Q525 92 535.5 83.5Q546 75 562 75ZM562 218Q578 218 587 226.5Q596 235 596 248Q596 262 587 270Q578 278 562 278Q547 278 537.5 270Q528 262 528 248Q528 235 537.5 226.5Q547 218 562 218ZM562 -5Q534 -5 509 1.5Q484 8 465 21.5Q446 35 435 54Q424 73 424 97Q424 127 439 147Q454 167 477 176Q457 187 446.5 207Q436 227 436 250Q436 276 446 295.5Q456 315 473.5 328.5Q491 342 514 349Q537 356 562 356Q587 356 610 349Q633 342 650.5 328.5Q668 315 678 295.5Q688 276 688 250Q688 227 678 207Q668 187 647 176Q670 167 685 147Q700 127 700 97Q700 73 689 54Q678 35 659.5 21.5Q641 8 616 1.5Q591 -5 562 -5ZM215 264H111V497L25 455V560L140 614H215Z" glyph-name="uni215B" horiz-adv-x="741" unicode="&#8539;" /><glyph d="M592 75Q608 75 618 83.5Q628 92 628 106Q628 120 618 129Q608 138 592 138Q576 138 565 129Q554 120 554 106Q554 92 565 83.5Q576 75 592 75ZM592 218Q607 218 616 226.5Q625 235 625 248Q625 262 616 270Q607 278 592 278Q577 278 567 270Q557 262 557 248Q557 235 567 226.5Q577 218 592 218ZM592 -5Q563 -5 538 1.5Q513 8 494 21.5Q475 35 464 54Q453 73 453 97Q453 127 468 147Q483 167 506 176Q486 187 475.5 207Q465 227 465 250Q465 276 475.5 295.5Q486 315 503.5 328.5Q521 342 543.5 349Q566 356 592 356Q616 356 639 349Q662 342 679.5 328.5Q697 315 707.5 295.5Q718 276 718 250Q718 227 707.5 207Q697 187 677 176Q700 167 714.5 147Q729 127 729 97Q729 73 718.5 54Q708 35 689 21.5Q670 8 645 1.5Q620 -5 592 -5ZM212 0H119L539 614H632ZM135 476H159Q175 476 185.5 483Q196 490 196 506Q196 518 188.5 526.5Q181 535 166 535Q151 535 142.5 524Q134 513 132 500H31Q34 524 43.5 545.5Q53 567 70 583Q87 599 110.5 609Q134 619 163 619Q225 619 259 588.5Q293 558 293 507Q293 487 283 467.5Q273 448 259 439Q277 430 287 411.5Q297 393 297 373Q297 321 262 289.5Q227 258 164 258Q103 258 67 291.5Q31 325 28 380H134Q136 365 144 355Q152 345 168 345Q182 345 190.5 353Q199 361 199 375Q199 391 189 397.5Q179 404 163 404H135Z" glyph-name="uni215C" horiz-adv-x="770" unicode="&#8540;" /><glyph d="M599 75Q615 75 625 83.5Q635 92 635 106Q635 120 625 129Q615 138 599 138Q583 138 572.5 129Q562 120 562 106Q562 92 572.5 83.5Q583 75 599 75ZM599 218Q614 218 623.5 226.5Q633 235 633 248Q633 262 623.5 270Q614 278 599 278Q584 278 574.5 270Q565 262 565 248Q565 235 574.5 226.5Q584 218 599 218ZM599 -5Q571 -5 546 1.5Q521 8 502 21.5Q483 35 472 54Q461 73 461 97Q461 127 475.5 147Q490 167 513 176Q493 187 483 207Q473 227 473 250Q473 276 483 295.5Q493 315 510.5 328.5Q528 342 551 349Q574 356 599 356Q624 356 647 349Q670 342 687 328.5Q704 315 714.5 295.5Q725 276 725 250Q725 227 715 207Q705 187 684 176Q707 167 722 147Q737 127 737 97Q737 73 726 54Q715 35 696.5 21.5Q678 8 653 1.5Q628 -5 599 -5ZM219 0H127L547 614H639ZM168 415Q157 415 149.5 411.5Q142 408 134 402H46V614H274V529H132V484Q140 489 154.5 492Q169 495 181 495Q238 495 269.5 463.5Q301 432 301 380Q301 325 265.5 291.5Q230 258 170 258Q107 258 70.5 288.5Q34 319 30 374H135Q137 362 146 353.5Q155 345 169 345Q184 345 193.5 354.5Q203 364 203 380Q203 394 194 404.5Q185 415 168 415Z" glyph-name="uni215D" horiz-adv-x="778" unicode="&#8541;" /><glyph d="M538 75Q554 75 564 83.5Q574 92 574 106Q574 120 564 129Q554 138 538 138Q521 138 510.5 129Q500 120 500 106Q500 92 510.5 83.5Q521 75 538 75ZM538 218Q553 218 562 226.5Q571 235 571 248Q571 262 562 270Q553 278 538 278Q522 278 512.5 270Q503 262 503 248Q503 235 512.5 226.5Q522 218 538 218ZM538 -5Q509 -5 484 1.5Q459 8 440 21.5Q421 35 410 54Q399 73 399 97Q399 127 414 147Q429 167 452 176Q432 187 421.5 207Q411 227 411 250Q411 276 421 295.5Q431 315 449 328.5Q467 342 489.5 349Q512 356 538 356Q562 356 585 349Q608 342 625.5 328.5Q643 315 653.5 295.5Q664 276 664 250Q664 227 653.5 207Q643 187 622 176Q645 167 660 147Q675 127 675 97Q675 73 664 54Q653 35 634.5 21.5Q616 8 591 1.5Q566 -5 538 -5ZM158 0H65L485 614H578ZM171 264H62L167 524H29V614H282V544Z" glyph-name="uni215E" horiz-adv-x="716" unicode="&#8542;" /><glyph d="M475 0Q460 -19 450 -30Q440 -41 434 -49Q428 -57 426 -62.5Q424 -68 424 -75Q424 -84 429 -88.5Q434 -93 443 -93Q452 -93 459 -90Q466 -87 478 -79V-166Q465 -174 449.5 -179.5Q434 -185 413 -185Q393 -185 376 -180Q359 -175 347 -165Q335 -155 328 -140Q321 -125 321 -106Q321 -91 325 -78Q329 -65 336.5 -52Q344 -39 354.5 -26Q365 -13 376 0H319V39Q300 18 268.5 4Q237 -10 199 -10Q124 -10 82 35Q40 80 40 155V450H197V192Q197 164 210.5 145.5Q224 127 255 127Q277 127 294.5 140.5Q312 154 318 177V450H475Z" glyph-name="uogonek" horiz-adv-x="517" unicode="&#371;" /><glyph d="M475 0H319V39Q300 18 268.5 4Q237 -10 199 -10Q124 -10 82 35Q40 80 40 155V450H197V192Q197 164 210.5 145.5Q224 127 255 127Q277 127 294.5 140.5Q312 154 318 177V450H475ZM366 590Q366 567 358 548Q350 529 335 515Q320 501 300.5 493Q281 485 258 485Q235 485 215.5 493Q196 501 181.5 515Q167 529 158.5 548Q150 567 150 590Q150 612 158.5 631Q167 650 181.5 664.5Q196 679 215.5 687Q235 695 258 695Q281 695 300.5 687Q320 679 335 664.5Q350 650 358 631Q366 612 366 590ZM295 590Q295 605 284.5 615.5Q274 626 258 626Q243 626 233 615.5Q223 605 223 590Q223 575 233 564.5Q243 554 258 554Q274 554 284.5 564.5Q295 575 295 590Z" glyph-name="uring" horiz-adv-x="517" unicode="&#367;" /><glyph d="M475 0H319V39Q300 18 268.5 4Q237 -10 199 -10Q124 -10 82 35Q40 80 40 155V450H197V192Q197 164 210.5 145.5Q224 127 255 127Q277 127 294.5 140.5Q312 154 318 177V450H475ZM408 647Q408 616 403.5 589Q399 562 388.5 541.5Q378 521 361 509Q344 497 319 497Q302 497 289 502.5Q276 508 265 515Q254 522 243.5 527.5Q233 533 221 533Q209 533 202.5 524Q196 515 195 500H110Q110 531 114.5 558Q119 585 129 605.5Q139 626 156 638Q173 650 198 650Q215 650 228 644.5Q241 639 252.5 632Q264 625 274.5 619.5Q285 614 297 614Q308 614 315 623Q322 632 322 647Z" glyph-name="utilde" horiz-adv-x="517" unicode="&#361;" /><glyph d="M178 0 7 450H168L254 192L337 450H491L320 0Z" glyph-name="v" horiz-adv-x="498" unicode="v" /><glyph d="M470 206 541 450H692L547 0H414L349 228L285 0H152L7 450H163L235 206L302 450H403Z" glyph-name="w" horiz-adv-x="699" unicode="w" /><glyph d="M470 206 541 450H692L547 0H414L349 228L285 0H152L7 450H163L235 206L302 450H403ZM272 500 354 650H503L416 500Z" glyph-name="wacute" horiz-adv-x="699" unicode="&#7811;" /><glyph d="M470 206 541 450H692L547 0H414L349 228L285 0H152L7 450H163L235 206L302 450H403ZM505 498H388L349 553L309 498H193L289 649H409Z" glyph-name="wcircumflex" horiz-adv-x="699" unicode="&#373;" /><glyph d="M470 206 541 450H692L547 0H414L349 228L285 0H152L7 450H163L235 206L302 450H403ZM184 567Q184 599 206.5 621.5Q229 644 261 644Q277 644 291 638Q305 632 315.5 621.5Q326 611 332 597Q338 583 338 567Q338 535 315 513Q292 491 261 491Q229 491 206.5 513Q184 535 184 567ZM361 567Q361 599 383.5 621.5Q406 644 437 644Q453 644 467 638Q481 632 491.5 621.5Q502 611 508.5 597Q515 583 515 567Q515 535 492 513Q469 491 437 491Q406 491 383.5 513Q361 535 361 567Z" glyph-name="wdieresis" horiz-adv-x="699" unicode="&#7813;" /><glyph d="M470 206 541 450H692L547 0H414L349 228L285 0H152L7 450H163L235 206L302 450H403ZM280 500 193 650H342L424 500Z" glyph-name="wgrave" horiz-adv-x="699" unicode="&#7809;" /><glyph d="M332 230 489 0H320L243 117L166 0H4L161 229L10 450H180L249 342L321 450H483Z" glyph-name="x" horiz-adv-x="493" unicode="x" /><glyph d="M110 -159 176 11 7 450H170L257 194L340 450H496L264 -159Z" glyph-name="y" horiz-adv-x="503" unicode="y" /><glyph d="M110 -159 176 11 7 450H170L257 194L340 450H496L264 -159ZM180 500 262 650H411L324 500Z" glyph-name="yacute" horiz-adv-x="503" unicode="&#253;" /><glyph d="M110 -159 176 11 7 450H170L257 194L340 450H496L264 -159ZM413 498H296L257 553L217 498H101L197 649H317Z" glyph-name="ycircumflex" horiz-adv-x="503" unicode="&#375;" /><glyph d="M110 -159 176 11 7 450H170L257 194L340 450H496L264 -159ZM92 567Q92 599 114.5 621.5Q137 644 169 644Q185 644 199 638Q213 632 223.5 621.5Q234 611 240 597Q246 583 246 567Q246 535 223 513Q200 491 169 491Q137 491 114.5 513Q92 535 92 567ZM269 567Q269 599 291.5 621.5Q314 644 345 644Q361 644 375 638Q389 632 399.5 621.5Q410 611 416.5 597Q423 583 423 567Q423 535 400 513Q377 491 345 491Q314 491 291.5 513Q269 535 269 567Z" glyph-name="ydieresis" horiz-adv-x="503" unicode="&#255;" /><glyph d="M62 196H207V244H62V336H159L14 614H187L290 400L392 614H559L412 336H508V244H364V196H508V104H364V0H207V104H62Z" glyph-name="yen" horiz-adv-x="573" unicode="&#165;" /><glyph d="M42 196H180V244H42V336H137L10 614H178L263 411L347 614H509L380 336H475V244H337V196H475V104H337V0H180V104H42Z" glyph-name="yen.lt" horiz-adv-x="520" /><glyph d="M110 -159 176 11 7 450H170L257 194L340 450H496L264 -159ZM189 500 102 650H251L333 500Z" glyph-name="ygrave" horiz-adv-x="503" unicode="&#7923;" /><glyph d="M424 0H31V103L229 327H37V450H421V347L231 123H424Z" glyph-name="z" horiz-adv-x="456" unicode="z" /><glyph d="M424 0H31V103L229 327H37V450H421V347L231 123H424ZM162 500 244 650H393L306 500Z" glyph-name="zacute" horiz-adv-x="456" unicode="&#378;" /><glyph d="M424 0H31V103L229 327H37V450H421V347L231 123H424ZM300 498H180L84 649H200L240 594L279 649H396Z" glyph-name="zcaron" horiz-adv-x="456" unicode="&#382;" /><glyph d="M424 0H31V103L229 327H37V450H421V347L231 123H424ZM329 579Q329 540 303 517.5Q277 495 240 495Q204 495 177.5 517.5Q151 540 151 579Q151 619 177.5 641.5Q204 664 240 664Q277 664 303 641.5Q329 619 329 579Z" glyph-name="zdotaccent" horiz-adv-x="456" unicode="&#380;" /><glyph d="M280 -10Q223 -10 176 13Q129 36 95.5 78Q62 120 43.5 178.5Q25 237 25 307Q25 377 43.5 435.5Q62 494 95.5 536Q129 578 176 601Q223 624 280 624Q336 624 383 601Q430 578 464 536Q498 494 516.5 435.5Q535 377 535 307Q535 237 516.5 178.5Q498 120 464 78Q430 36 383 13Q336 -10 280 -10ZM280 483Q253 483 234 469Q215 455 203 431Q191 407 185.5 374.5Q180 342 180 307Q180 272 185.5 239.5Q191 207 203 183Q215 159 234 145Q253 131 280 131Q306 131 325 145Q344 159 356 183Q368 207 373 239.5Q378 272 378 307Q378 342 373 374.5Q368 407 356 431Q344 455 325 469Q306 483 280 483Z" glyph-name="zero" horiz-adv-x="560" unicode="0" /><glyph d="M260 -10Q203 -10 158.5 13Q114 36 83 78Q52 120 36 178.5Q20 237 20 307Q20 377 36 435.5Q52 494 83 536Q114 578 158.5 601Q203 624 260 624Q316 624 360.5 601Q405 578 436 536Q467 494 483 435.5Q499 377 499 307Q499 237 483 178.5Q467 120 436 78Q405 36 360.5 13Q316 -10 260 -10ZM260 483Q236 483 219.5 469Q203 455 193.5 431Q184 407 179.5 374.5Q175 342 175 307Q175 272 179.5 239.5Q184 207 193.5 183Q203 159 219.5 145Q236 131 260 131Q283 131 299.5 145Q316 159 325.5 183Q335 207 339 239.5Q343 272 343 307Q343 342 339 374.5Q335 407 325.5 431Q316 455 299.5 469Q283 483 260 483Z" glyph-name="zero.lt" horiz-adv-x="520" /></font>
</defs>
</svg>
